<ttFont>
    <TTGlyph name="A" xMin="10" yMin="-6" xMax="610" yMax="716">
      <contour>
        <pt x="224" y="702" on="1"/>
        <pt x="266" y="716" on="0"/>
        <pt x="300" y="716" on="1"/>
        <pt x="352" y="716" on="0"/>
        <pt x="410" y="643" on="0"/>
        <pt x="426" y="576" on="1"/>
        <pt x="431" y="556" on="0"/>
        <pt x="462" y="420" on="0"/>
        <pt x="472" y="378" on="1"/>
        <pt x="503" y="247" on="0"/>
        <pt x="554" y="103" on="0"/>
        <pt x="610" y="60" on="1"/>
        <pt x="598" y="30" on="0"/>
        <pt x="543" y="-6" on="0"/>
        <pt x="511" y="-6" on="1"/>
        <pt x="438" y="-6" on="0"/>
        <pt x="404" y="104" on="1"/>
        <pt x="388" y="155" on="0"/>
        <pt x="375" y="204" on="1"/>
        <pt x="340" y="192" on="0"/>
        <pt x="237" y="192" on="0"/>
        <pt x="162" y="203" on="1"/>
        <pt x="131" y="82" on="0"/>
        <pt x="131" y="21" on="1"/>
        <pt x="131" y="8" on="0"/>
        <pt x="132" y="2" on="1"/>
        <pt x="119" y="0" on="0"/>
        <pt x="57" y="0" on="0"/>
        <pt x="10" y="39" on="0"/>
        <pt x="10" y="75" on="1"/>
        <pt x="10" y="125" on="0"/>
        <pt x="202" y="611" on="0"/>
      </contour>
      <contour>
        <pt x="185" y="287" on="1"/>
        <pt x="225" y="282" on="0"/>
        <pt x="308" y="282" on="0"/>
        <pt x="355" y="291" on="1"/>
        <pt x="346" y="332" on="0"/>
        <pt x="294" y="605" on="1"/>
        <pt x="232" y="444" on="0"/>
      </contour>
    </TTGlyph>
    <TTGlyph name="A.end" xMin="10" yMin="-6" xMax="913" yMax="716">
      <contour>
        <pt x="224" y="702" on="1"/>
        <pt x="266" y="716" on="0"/>
        <pt x="300" y="716" on="1"/>
        <pt x="352" y="716" on="0"/>
        <pt x="410" y="643" on="0"/>
        <pt x="426" y="576" on="1"/>
        <pt x="427" y="573" on="0"/>
        <pt x="472" y="373" on="0"/>
        <pt x="486" y="318" on="1"/>
        <pt x="584" y="330" on="0"/>
        <pt x="715" y="330" on="0"/>
        <pt x="796" y="313" on="0"/>
        <pt x="869" y="275" on="0"/>
        <pt x="913" y="205" on="0"/>
        <pt x="913" y="113" on="0"/>
        <pt x="867" y="54" on="1"/>
        <pt x="829" y="145" on="0"/>
        <pt x="679" y="238" on="0"/>
        <pt x="585" y="238" on="1"/>
        <pt x="552" y="238" on="0"/>
        <pt x="510" y="233" on="1"/>
        <pt x="522" y="193" on="0"/>
        <pt x="529" y="175" on="1"/>
        <pt x="554" y="103" on="0"/>
        <pt x="610" y="60" on="1"/>
        <pt x="598" y="30" on="0"/>
        <pt x="543" y="-6" on="0"/>
        <pt x="511" y="-6" on="1"/>
        <pt x="438" y="-6" on="0"/>
        <pt x="404" y="104" on="1"/>
        <pt x="388" y="155" on="0"/>
        <pt x="375" y="204" on="1"/>
        <pt x="340" y="192" on="0"/>
        <pt x="237" y="192" on="0"/>
        <pt x="162" y="203" on="1"/>
        <pt x="131" y="82" on="0"/>
        <pt x="131" y="21" on="1"/>
        <pt x="131" y="8" on="0"/>
        <pt x="132" y="2" on="1"/>
        <pt x="119" y="0" on="0"/>
        <pt x="57" y="0" on="0"/>
        <pt x="10" y="39" on="0"/>
        <pt x="10" y="75" on="1"/>
        <pt x="10" y="125" on="0"/>
        <pt x="202" y="611" on="0"/>
      </contour>
      <contour>
        <pt x="185" y="287" on="1"/>
        <pt x="225" y="282" on="0"/>
        <pt x="308" y="282" on="0"/>
        <pt x="355" y="291" on="1"/>
        <pt x="346" y="332" on="0"/>
        <pt x="294" y="605" on="1"/>
        <pt x="232" y="444" on="0"/>
      </contour>
    </TTGlyph>
    <TTGlyph name="A.ini" xMin="10" yMin="-6" xMax="943" yMax="716">
      <contour>
        <pt x="390" y="0" on="0"/>
        <pt x="343" y="39" on="0"/>
        <pt x="343" y="113" on="0"/>
        <pt x="381" y="219" on="1"/>
        <pt x="151" y="269" on="0"/>
        <pt x="62" y="352" on="1"/>
        <pt x="10" y="400" on="0"/>
        <pt x="10" y="465" on="1"/>
        <pt x="10" y="508" on="0"/>
        <pt x="60" y="583" on="0"/>
        <pt x="100" y="602" on="1"/>
        <pt x="106" y="473" on="0"/>
        <pt x="278" y="327" on="0"/>
        <pt x="412" y="299" on="1"/>
        <pt x="439" y="364" on="0"/>
        <pt x="483" y="480" on="1"/>
        <pt x="539" y="629" on="0"/>
        <pt x="557" y="702" on="1"/>
        <pt x="599" y="716" on="0"/>
        <pt x="633" y="716" on="1"/>
        <pt x="685" y="716" on="0"/>
        <pt x="743" y="643" on="0"/>
        <pt x="759" y="576" on="1"/>
        <pt x="764" y="556" on="0"/>
        <pt x="795" y="420" on="0"/>
        <pt x="805" y="378" on="1"/>
        <pt x="836" y="247" on="0"/>
        <pt x="887" y="103" on="0"/>
        <pt x="943" y="60" on="1"/>
        <pt x="931" y="30" on="0"/>
        <pt x="876" y="-6" on="0"/>
        <pt x="844" y="-6" on="1"/>
        <pt x="771" y="-6" on="0"/>
        <pt x="737" y="104" on="1"/>
        <pt x="721" y="155" on="0"/>
        <pt x="708" y="204" on="1"/>
        <pt x="673" y="192" on="0"/>
        <pt x="563" y="192" on="0"/>
        <pt x="493" y="200" on="1"/>
        <pt x="464" y="90" on="0"/>
        <pt x="464" y="21" on="1"/>
        <pt x="464" y="8" on="0"/>
        <pt x="465" y="2" on="1"/>
        <pt x="452" y="0" on="0"/>
      </contour>
      <contour>
        <pt x="627" y="605" on="1"/>
        <pt x="554" y="409" on="0"/>
        <pt x="516" y="285" on="1"/>
        <pt x="557" y="282" on="0"/>
        <pt x="642" y="282" on="0"/>
        <pt x="688" y="291" on="1"/>
        <pt x="679" y="332" on="0"/>
      </contour>
    </TTGlyph>
    <TTGlyph name="A.swash" xMin="10" yMin="-250" xMax="813" yMax="716">
      <contour>
        <pt x="185" y="287" on="1"/>
        <pt x="225" y="282" on="0"/>
        <pt x="308" y="282" on="0"/>
        <pt x="355" y="291" on="1"/>
        <pt x="346" y="332" on="0"/>
        <pt x="294" y="605" on="1"/>
        <pt x="232" y="444" on="0"/>
      </contour>
      <contour>
        <pt x="375" y="205" on="1"/>
        <pt x="341" y="192" on="0"/>
        <pt x="237" y="192" on="0"/>
        <pt x="162" y="203" on="1"/>
        <pt x="131" y="82" on="0"/>
        <pt x="131" y="21" on="1"/>
        <pt x="131" y="8" on="0"/>
        <pt x="132" y="2" on="1"/>
        <pt x="119" y="0" on="0"/>
        <pt x="57" y="0" on="0"/>
        <pt x="10" y="39" on="0"/>
        <pt x="10" y="75" on="1"/>
        <pt x="10" y="125" on="0"/>
        <pt x="202" y="611" on="0"/>
        <pt x="224" y="702" on="1"/>
        <pt x="266" y="716" on="0"/>
        <pt x="300" y="716" on="1"/>
        <pt x="352" y="716" on="0"/>
        <pt x="410" y="643" on="0"/>
        <pt x="433" y="545" on="0"/>
        <pt x="450" y="456" on="1"/>
        <pt x="492" y="246" on="0"/>
        <pt x="524" y="164" on="1"/>
        <pt x="574" y="35" on="0"/>
        <pt x="722" y="-132" on="0"/>
        <pt x="813" y="-142" on="1"/>
        <pt x="813" y="-191" on="0"/>
        <pt x="757" y="-250" on="0"/>
        <pt x="705" y="-250" on="1"/>
        <pt x="637" y="-250" on="0"/>
        <pt x="501" y="-114" on="0"/>
        <pt x="401" y="91" on="0"/>
      </contour>
    </TTGlyph>
    <TTGlyph name="A.swash_end" xMin="10" yMin="-250" xMax="913" yMax="716">
      <contour>
        <pt x="500" y="233" on="1"/>
        <pt x="561" y="29" on="0"/>
        <pt x="678" y="-78" on="1"/>
        <pt x="744" y="-137" on="0"/>
        <pt x="813" y="-142" on="1"/>
        <pt x="813" y="-191" on="0"/>
        <pt x="757" y="-250" on="0"/>
        <pt x="709" y="-250" on="1"/>
        <pt x="639" y="-250" on="0"/>
        <pt x="501" y="-116" on="0"/>
        <pt x="402" y="87" on="0"/>
        <pt x="375" y="204" on="1"/>
        <pt x="340" y="192" on="0"/>
        <pt x="237" y="192" on="0"/>
        <pt x="162" y="203" on="1"/>
        <pt x="131" y="82" on="0"/>
        <pt x="131" y="21" on="1"/>
        <pt x="131" y="8" on="0"/>
        <pt x="132" y="2" on="1"/>
        <pt x="119" y="0" on="0"/>
        <pt x="58" y="0" on="0"/>
        <pt x="10" y="39" on="0"/>
        <pt x="10" y="73" on="1"/>
        <pt x="10" y="126" on="0"/>
        <pt x="202" y="611" on="0"/>
        <pt x="224" y="702" on="1"/>
        <pt x="266" y="716" on="0"/>
        <pt x="298" y="716" on="1"/>
        <pt x="352" y="716" on="0"/>
        <pt x="412" y="644" on="0"/>
        <pt x="426" y="576" on="1"/>
        <pt x="456" y="414" on="0"/>
        <pt x="478" y="317" on="1"/>
        <pt x="588" y="330" on="0"/>
        <pt x="659" y="330" on="1"/>
        <pt x="773" y="330" on="0"/>
        <pt x="913" y="244" on="0"/>
        <pt x="913" y="165" on="1"/>
        <pt x="913" y="123" on="0"/>
        <pt x="890" y="87" on="1"/>
        <pt x="883" y="75" on="0"/>
        <pt x="867" y="54" on="1"/>
        <pt x="828" y="146" on="0"/>
        <pt x="678" y="238" on="0"/>
        <pt x="581" y="238" on="1"/>
        <pt x="547" y="238" on="0"/>
      </contour>
      <contour>
        <pt x="185" y="287" on="1"/>
        <pt x="225" y="282" on="0"/>
        <pt x="308" y="282" on="0"/>
        <pt x="355" y="291" on="1"/>
        <pt x="346" y="332" on="0"/>
        <pt x="294" y="605" on="1"/>
        <pt x="232" y="444" on="0"/>
      </contour>
    </TTGlyph>
    <TTGlyph name="A.swash_ini" xMin="10" yMin="-250" xMax="1146" yMax="716">
      <contour>
        <pt x="627" y="605" on="1"/>
        <pt x="554" y="409" on="0"/>
        <pt x="516" y="285" on="1"/>
        <pt x="557" y="282" on="0"/>
        <pt x="642" y="282" on="0"/>
        <pt x="688" y="291" on="1"/>
        <pt x="679" y="332" on="0"/>
      </contour>
      <contour>
        <pt x="708" y="205" on="1"/>
        <pt x="670" y="192" on="0"/>
        <pt x="563" y="192" on="0"/>
        <pt x="493" y="200" on="1"/>
        <pt x="464" y="90" on="0"/>
        <pt x="464" y="21" on="1"/>
        <pt x="464" y="8" on="0"/>
        <pt x="465" y="2" on="1"/>
        <pt x="452" y="0" on="0"/>
        <pt x="390" y="0" on="0"/>
        <pt x="343" y="39" on="0"/>
        <pt x="343" y="113" on="0"/>
        <pt x="381" y="219" on="1"/>
        <pt x="151" y="269" on="0"/>
        <pt x="62" y="352" on="1"/>
        <pt x="10" y="400" on="0"/>
        <pt x="10" y="465" on="1"/>
        <pt x="10" y="508" on="0"/>
        <pt x="60" y="583" on="0"/>
        <pt x="100" y="602" on="1"/>
        <pt x="106" y="473" on="0"/>
        <pt x="278" y="327" on="0"/>
        <pt x="412" y="299" on="1"/>
        <pt x="439" y="364" on="0"/>
        <pt x="483" y="480" on="1"/>
        <pt x="539" y="629" on="0"/>
        <pt x="557" y="702" on="1"/>
        <pt x="599" y="716" on="0"/>
        <pt x="633" y="716" on="1"/>
        <pt x="685" y="716" on="0"/>
        <pt x="743" y="643" on="0"/>
        <pt x="766" y="545" on="0"/>
        <pt x="784" y="456" on="1"/>
        <pt x="825" y="246" on="0"/>
        <pt x="857" y="164" on="1"/>
        <pt x="907" y="35" on="0"/>
        <pt x="1055" y="-132" on="0"/>
        <pt x="1146" y="-142" on="1"/>
        <pt x="1146" y="-191" on="0"/>
        <pt x="1090" y="-250" on="0"/>
        <pt x="1038" y="-250" on="1"/>
        <pt x="970" y="-250" on="0"/>
        <pt x="834" y="-114" on="0"/>
        <pt x="734" y="91" on="0"/>
      </contour>
    </TTGlyph>
    <TTGlyph name="AE" xMin="10" yMin="-6" xMax="796" yMax="722">
      <contour>
        <pt x="203" y="287" on="1"/>
        <pt x="243" y="282" on="0"/>
        <pt x="337" y="282" on="0"/>
        <pt x="384" y="291" on="1"/>
        <pt x="380" y="322" on="0"/>
        <pt x="373" y="386" on="1"/>
        <pt x="358" y="528" on="0"/>
        <pt x="342" y="611" on="1"/>
        <pt x="307" y="546" on="0"/>
        <pt x="215" y="315" on="0"/>
      </contour>
      <contour>
        <pt x="460" y="6" on="1"/>
        <pt x="421" y="6" on="0"/>
        <pt x="413" y="49" on="1"/>
        <pt x="408" y="78" on="0"/>
        <pt x="392" y="204" on="1"/>
        <pt x="357" y="192" on="0"/>
        <pt x="250" y="192" on="0"/>
        <pt x="175" y="203" on="1"/>
        <pt x="134" y="84" on="0"/>
        <pt x="128" y="7" on="1"/>
        <pt x="105" y="0" on="0"/>
        <pt x="53" y="0" on="0"/>
        <pt x="10" y="33" on="0"/>
        <pt x="10" y="103" on="0"/>
        <pt x="106" y="314" on="0"/>
        <pt x="244" y="607" on="0"/>
        <pt x="277" y="702" on="1"/>
        <pt x="324" y="716" on="0"/>
        <pt x="409" y="716" on="0"/>
        <pt x="579" y="704" on="0"/>
        <pt x="713" y="704" on="0"/>
        <pt x="771" y="722" on="1"/>
        <pt x="783" y="700" on="0"/>
        <pt x="783" y="641" on="0"/>
        <pt x="736" y="592" on="0"/>
        <pt x="670" y="592" on="0"/>
        <pt x="518" y="609" on="0"/>
        <pt x="467" y="609" on="1"/>
        <pt x="482" y="487" on="0"/>
        <pt x="491" y="421" on="1"/>
        <pt x="538" y="416" on="0"/>
        <pt x="681" y="416" on="0"/>
        <pt x="731" y="431" on="1"/>
        <pt x="743" y="411" on="0"/>
        <pt x="743" y="353" on="0"/>
        <pt x="698" y="313" on="0"/>
        <pt x="631" y="313" on="0"/>
        <pt x="526" y="328" on="0"/>
        <pt x="502" y="329" on="1"/>
        <pt x="523" y="173" on="0"/>
        <pt x="539" y="94" on="1"/>
        <pt x="687" y="94" on="0"/>
        <pt x="787" y="138" on="1"/>
        <pt x="796" y="110" on="0"/>
        <pt x="796" y="38" on="0"/>
        <pt x="747" y="-6" on="0"/>
        <pt x="680" y="-6" on="0"/>
        <pt x="510" y="6" on="0"/>
      </contour>
    </TTGlyph>
    <TTGlyph name="Aacute" xMin="10" yMin="-6" xMax="610" yMax="950">
      <component glyphName="A" x="0" y="0" flags="0x1004"/>
      <component glyphName="acute" x="198" y="200" flags="0x1004"/>
    </TTGlyph>
    <TTGlyph name="Aacute.end" xMin="10" yMin="-6" xMax="913" yMax="950">
      <contour>
        <pt x="248" y="810" on="1"/>
        <pt x="338" y="860" on="0"/>
        <pt x="387" y="950" on="1"/>
        <pt x="427" y="950" on="0"/>
        <pt x="482" y="921" on="0"/>
        <pt x="482" y="893" on="1"/>
        <pt x="482" y="853" on="0"/>
        <pt x="333" y="772" on="0"/>
        <pt x="289" y="772" on="1"/>
        <pt x="256" y="772" on="0"/>
      </contour>
      <contour>
        <pt x="224" y="702" on="1"/>
        <pt x="266" y="716" on="0"/>
        <pt x="300" y="716" on="1"/>
        <pt x="352" y="716" on="0"/>
        <pt x="410" y="643" on="0"/>
        <pt x="426" y="576" on="1"/>
        <pt x="427" y="573" on="0"/>
        <pt x="472" y="373" on="0"/>
        <pt x="486" y="318" on="1"/>
        <pt x="584" y="330" on="0"/>
        <pt x="715" y="330" on="0"/>
        <pt x="796" y="313" on="0"/>
        <pt x="869" y="275" on="0"/>
        <pt x="913" y="205" on="0"/>
        <pt x="913" y="113" on="0"/>
        <pt x="867" y="54" on="1"/>
        <pt x="829" y="145" on="0"/>
        <pt x="679" y="238" on="0"/>
        <pt x="585" y="238" on="1"/>
        <pt x="552" y="238" on="0"/>
        <pt x="510" y="233" on="1"/>
        <pt x="522" y="193" on="0"/>
        <pt x="529" y="175" on="1"/>
        <pt x="554" y="103" on="0"/>
        <pt x="610" y="60" on="1"/>
        <pt x="598" y="30" on="0"/>
        <pt x="543" y="-6" on="0"/>
        <pt x="511" y="-6" on="1"/>
        <pt x="438" y="-6" on="0"/>
        <pt x="404" y="104" on="1"/>
        <pt x="388" y="155" on="0"/>
        <pt x="375" y="204" on="1"/>
        <pt x="340" y="192" on="0"/>
        <pt x="237" y="192" on="0"/>
        <pt x="162" y="203" on="1"/>
        <pt x="131" y="82" on="0"/>
        <pt x="131" y="21" on="1"/>
        <pt x="131" y="8" on="0"/>
        <pt x="132" y="2" on="1"/>
        <pt x="119" y="0" on="0"/>
        <pt x="57" y="0" on="0"/>
        <pt x="10" y="39" on="0"/>
        <pt x="10" y="75" on="1"/>
        <pt x="10" y="125" on="0"/>
        <pt x="202" y="611" on="0"/>
      </contour>
      <contour>
        <pt x="185" y="287" on="1"/>
        <pt x="225" y="282" on="0"/>
        <pt x="308" y="282" on="0"/>
        <pt x="355" y="291" on="1"/>
        <pt x="346" y="332" on="0"/>
        <pt x="294" y="605" on="1"/>
        <pt x="232" y="444" on="0"/>
      </contour>
    </TTGlyph>
    <TTGlyph name="Aacute.ini" xMin="10" yMin="-6" xMax="943" yMax="950">
      <contour>
        <pt x="581" y="810" on="1"/>
        <pt x="671" y="860" on="0"/>
        <pt x="720" y="950" on="1"/>
        <pt x="760" y="950" on="0"/>
        <pt x="815" y="921" on="0"/>
        <pt x="815" y="893" on="1"/>
        <pt x="815" y="853" on="0"/>
        <pt x="666" y="772" on="0"/>
        <pt x="622" y="772" on="1"/>
        <pt x="589" y="772" on="0"/>
      </contour>
      <contour>
        <pt x="390" y="0" on="0"/>
        <pt x="343" y="39" on="0"/>
        <pt x="343" y="113" on="0"/>
        <pt x="381" y="219" on="1"/>
        <pt x="151" y="269" on="0"/>
        <pt x="62" y="352" on="1"/>
        <pt x="10" y="400" on="0"/>
        <pt x="10" y="465" on="1"/>
        <pt x="10" y="508" on="0"/>
        <pt x="60" y="583" on="0"/>
        <pt x="100" y="602" on="1"/>
        <pt x="106" y="473" on="0"/>
        <pt x="278" y="327" on="0"/>
        <pt x="412" y="299" on="1"/>
        <pt x="439" y="364" on="0"/>
        <pt x="483" y="480" on="1"/>
        <pt x="539" y="629" on="0"/>
        <pt x="557" y="702" on="1"/>
        <pt x="599" y="716" on="0"/>
        <pt x="633" y="716" on="1"/>
        <pt x="685" y="716" on="0"/>
        <pt x="743" y="643" on="0"/>
        <pt x="759" y="576" on="1"/>
        <pt x="764" y="556" on="0"/>
        <pt x="795" y="420" on="0"/>
        <pt x="805" y="378" on="1"/>
        <pt x="836" y="247" on="0"/>
        <pt x="887" y="103" on="0"/>
        <pt x="943" y="60" on="1"/>
        <pt x="931" y="30" on="0"/>
        <pt x="876" y="-6" on="0"/>
        <pt x="844" y="-6" on="1"/>
        <pt x="771" y="-6" on="0"/>
        <pt x="737" y="104" on="1"/>
        <pt x="721" y="155" on="0"/>
        <pt x="708" y="204" on="1"/>
        <pt x="673" y="192" on="0"/>
        <pt x="563" y="192" on="0"/>
        <pt x="493" y="200" on="1"/>
        <pt x="464" y="90" on="0"/>
        <pt x="464" y="21" on="1"/>
        <pt x="464" y="8" on="0"/>
        <pt x="465" y="2" on="1"/>
        <pt x="452" y="0" on="0"/>
      </contour>
      <contour>
        <pt x="627" y="605" on="1"/>
        <pt x="554" y="409" on="0"/>
        <pt x="516" y="285" on="1"/>
        <pt x="557" y="282" on="0"/>
        <pt x="642" y="282" on="0"/>
        <pt x="688" y="291" on="1"/>
        <pt x="679" y="332" on="0"/>
      </contour>
    </TTGlyph>
    <TTGlyph name="Aacute.swash" xMin="10" yMin="-250" xMax="813" yMax="950">
      <contour>
        <pt x="185" y="287" on="1"/>
        <pt x="225" y="282" on="0"/>
        <pt x="308" y="282" on="0"/>
        <pt x="355" y="291" on="1"/>
        <pt x="346" y="332" on="0"/>
        <pt x="294" y="605" on="1"/>
        <pt x="232" y="444" on="0"/>
      </contour>
      <contour>
        <pt x="375" y="205" on="1"/>
        <pt x="341" y="192" on="0"/>
        <pt x="237" y="192" on="0"/>
        <pt x="162" y="203" on="1"/>
        <pt x="131" y="82" on="0"/>
        <pt x="131" y="21" on="1"/>
        <pt x="131" y="8" on="0"/>
        <pt x="132" y="2" on="1"/>
        <pt x="119" y="0" on="0"/>
        <pt x="57" y="0" on="0"/>
        <pt x="10" y="39" on="0"/>
        <pt x="10" y="75" on="1"/>
        <pt x="10" y="125" on="0"/>
        <pt x="202" y="611" on="0"/>
        <pt x="224" y="702" on="1"/>
        <pt x="266" y="716" on="0"/>
        <pt x="300" y="716" on="1"/>
        <pt x="352" y="716" on="0"/>
        <pt x="410" y="643" on="0"/>
        <pt x="433" y="545" on="0"/>
        <pt x="450" y="456" on="1"/>
        <pt x="492" y="246" on="0"/>
        <pt x="524" y="164" on="1"/>
        <pt x="574" y="35" on="0"/>
        <pt x="722" y="-132" on="0"/>
        <pt x="813" y="-142" on="1"/>
        <pt x="813" y="-191" on="0"/>
        <pt x="757" y="-250" on="0"/>
        <pt x="705" y="-250" on="1"/>
        <pt x="637" y="-250" on="0"/>
        <pt x="501" y="-114" on="0"/>
        <pt x="401" y="91" on="0"/>
      </contour>
      <contour>
        <pt x="248" y="810" on="1"/>
        <pt x="338" y="860" on="0"/>
        <pt x="387" y="950" on="1"/>
        <pt x="427" y="950" on="0"/>
        <pt x="482" y="921" on="0"/>
        <pt x="482" y="893" on="1"/>
        <pt x="482" y="853" on="0"/>
        <pt x="333" y="772" on="0"/>
        <pt x="289" y="772" on="1"/>
        <pt x="256" y="772" on="0"/>
      </contour>
    </TTGlyph>
    <TTGlyph name="Aacute.swash_end" xMin="10" yMin="-250" xMax="913" yMax="950">
      <contour>
        <pt x="500" y="233" on="1"/>
        <pt x="561" y="29" on="0"/>
        <pt x="678" y="-78" on="1"/>
        <pt x="744" y="-137" on="0"/>
        <pt x="813" y="-142" on="1"/>
        <pt x="813" y="-191" on="0"/>
        <pt x="757" y="-250" on="0"/>
        <pt x="709" y="-250" on="1"/>
        <pt x="639" y="-250" on="0"/>
        <pt x="501" y="-116" on="0"/>
        <pt x="402" y="87" on="0"/>
        <pt x="375" y="204" on="1"/>
        <pt x="340" y="192" on="0"/>
        <pt x="237" y="192" on="0"/>
        <pt x="162" y="203" on="1"/>
        <pt x="131" y="82" on="0"/>
        <pt x="131" y="21" on="1"/>
        <pt x="131" y="8" on="0"/>
        <pt x="132" y="2" on="1"/>
        <pt x="119" y="0" on="0"/>
        <pt x="58" y="0" on="0"/>
        <pt x="10" y="39" on="0"/>
        <pt x="10" y="73" on="1"/>
        <pt x="10" y="126" on="0"/>
        <pt x="202" y="611" on="0"/>
        <pt x="224" y="702" on="1"/>
        <pt x="266" y="716" on="0"/>
        <pt x="298" y="716" on="1"/>
        <pt x="352" y="716" on="0"/>
        <pt x="412" y="644" on="0"/>
        <pt x="426" y="576" on="1"/>
        <pt x="456" y="414" on="0"/>
        <pt x="478" y="317" on="1"/>
        <pt x="588" y="330" on="0"/>
        <pt x="659" y="330" on="1"/>
        <pt x="773" y="330" on="0"/>
        <pt x="913" y="244" on="0"/>
        <pt x="913" y="165" on="1"/>
        <pt x="913" y="123" on="0"/>
        <pt x="890" y="87" on="1"/>
        <pt x="883" y="75" on="0"/>
        <pt x="867" y="54" on="1"/>
        <pt x="828" y="146" on="0"/>
        <pt x="678" y="238" on="0"/>
        <pt x="581" y="238" on="1"/>
        <pt x="547" y="238" on="0"/>
      </contour>
      <contour>
        <pt x="185" y="287" on="1"/>
        <pt x="225" y="282" on="0"/>
        <pt x="308" y="282" on="0"/>
        <pt x="355" y="291" on="1"/>
        <pt x="346" y="332" on="0"/>
        <pt x="294" y="605" on="1"/>
        <pt x="232" y="444" on="0"/>
      </contour>
      <contour>
        <pt x="248" y="810" on="1"/>
        <pt x="338" y="860" on="0"/>
        <pt x="387" y="950" on="1"/>
        <pt x="427" y="950" on="0"/>
        <pt x="482" y="921" on="0"/>
        <pt x="482" y="893" on="1"/>
        <pt x="482" y="853" on="0"/>
        <pt x="333" y="772" on="0"/>
        <pt x="289" y="772" on="1"/>
        <pt x="256" y="772" on="0"/>
      </contour>
    </TTGlyph>
    <TTGlyph name="Aacute.swash_ini" xMin="10" yMin="-250" xMax="1146" yMax="950">
      <contour>
        <pt x="581" y="810" on="1"/>
        <pt x="671" y="860" on="0"/>
        <pt x="720" y="950" on="1"/>
        <pt x="760" y="950" on="0"/>
        <pt x="815" y="921" on="0"/>
        <pt x="815" y="893" on="1"/>
        <pt x="815" y="853" on="0"/>
        <pt x="666" y="772" on="0"/>
        <pt x="622" y="772" on="1"/>
        <pt x="589" y="772" on="0"/>
      </contour>
      <contour>
        <pt x="627" y="605" on="1"/>
        <pt x="554" y="409" on="0"/>
        <pt x="516" y="285" on="1"/>
        <pt x="557" y="282" on="0"/>
        <pt x="642" y="282" on="0"/>
        <pt x="688" y="291" on="1"/>
        <pt x="679" y="332" on="0"/>
      </contour>
      <contour>
        <pt x="708" y="205" on="1"/>
        <pt x="670" y="192" on="0"/>
        <pt x="563" y="192" on="0"/>
        <pt x="493" y="200" on="1"/>
        <pt x="464" y="90" on="0"/>
        <pt x="464" y="21" on="1"/>
        <pt x="464" y="8" on="0"/>
        <pt x="465" y="2" on="1"/>
        <pt x="452" y="0" on="0"/>
        <pt x="390" y="0" on="0"/>
        <pt x="343" y="39" on="0"/>
        <pt x="343" y="113" on="0"/>
        <pt x="381" y="219" on="1"/>
        <pt x="151" y="269" on="0"/>
        <pt x="62" y="352" on="1"/>
        <pt x="10" y="400" on="0"/>
        <pt x="10" y="465" on="1"/>
        <pt x="10" y="508" on="0"/>
        <pt x="60" y="583" on="0"/>
        <pt x="100" y="602" on="1"/>
        <pt x="106" y="473" on="0"/>
        <pt x="278" y="327" on="0"/>
        <pt x="412" y="299" on="1"/>
        <pt x="439" y="364" on="0"/>
        <pt x="483" y="480" on="1"/>
        <pt x="539" y="629" on="0"/>
        <pt x="557" y="702" on="1"/>
        <pt x="599" y="716" on="0"/>
        <pt x="633" y="716" on="1"/>
        <pt x="685" y="716" on="0"/>
        <pt x="743" y="643" on="0"/>
        <pt x="766" y="545" on="0"/>
        <pt x="784" y="456" on="1"/>
        <pt x="825" y="246" on="0"/>
        <pt x="857" y="164" on="1"/>
        <pt x="907" y="35" on="0"/>
        <pt x="1055" y="-132" on="0"/>
        <pt x="1146" y="-142" on="1"/>
        <pt x="1146" y="-191" on="0"/>
        <pt x="1090" y="-250" on="0"/>
        <pt x="1038" y="-250" on="1"/>
        <pt x="970" y="-250" on="0"/>
        <pt x="834" y="-114" on="0"/>
        <pt x="734" y="91" on="0"/>
      </contour>
    </TTGlyph>
    <TTGlyph name="Acircumflex" xMin="10" yMin="-6" xMax="610" yMax="970">
      <component glyphName="A" x="0" y="0" flags="0x1004"/>
      <component glyphName="circumflex" x="88" y="200" flags="0x1004"/>
    </TTGlyph>
    <TTGlyph name="Acircumflex.end" xMin="10" yMin="-6" xMax="913" yMax="970">
      <contour>
        <pt x="491" y="800" on="1"/>
        <pt x="478" y="772" on="0"/>
        <pt x="431" y="772" on="0"/>
        <pt x="339" y="822" on="0"/>
        <pt x="301" y="852" on="1"/>
        <pt x="210" y="772" on="0"/>
        <pt x="151" y="772" on="0"/>
        <pt x="138" y="800" on="1"/>
        <pt x="181" y="833" on="0"/>
        <pt x="219" y="878" on="0"/>
        <pt x="259" y="931" on="0"/>
        <pt x="260" y="932" on="1"/>
        <pt x="290" y="970" on="0"/>
        <pt x="331" y="970" on="1"/>
        <pt x="360" y="919" on="0"/>
        <pt x="454" y="818" on="0"/>
      </contour>
      <contour>
        <pt x="224" y="702" on="1"/>
        <pt x="266" y="716" on="0"/>
        <pt x="300" y="716" on="1"/>
        <pt x="352" y="716" on="0"/>
        <pt x="410" y="643" on="0"/>
        <pt x="426" y="576" on="1"/>
        <pt x="427" y="573" on="0"/>
        <pt x="472" y="373" on="0"/>
        <pt x="486" y="318" on="1"/>
        <pt x="584" y="330" on="0"/>
        <pt x="715" y="330" on="0"/>
        <pt x="796" y="313" on="0"/>
        <pt x="869" y="275" on="0"/>
        <pt x="913" y="205" on="0"/>
        <pt x="913" y="113" on="0"/>
        <pt x="867" y="54" on="1"/>
        <pt x="829" y="145" on="0"/>
        <pt x="679" y="238" on="0"/>
        <pt x="585" y="238" on="1"/>
        <pt x="552" y="238" on="0"/>
        <pt x="510" y="233" on="1"/>
        <pt x="522" y="193" on="0"/>
        <pt x="529" y="175" on="1"/>
        <pt x="554" y="103" on="0"/>
        <pt x="610" y="60" on="1"/>
        <pt x="598" y="30" on="0"/>
        <pt x="543" y="-6" on="0"/>
        <pt x="511" y="-6" on="1"/>
        <pt x="438" y="-6" on="0"/>
        <pt x="404" y="104" on="1"/>
        <pt x="388" y="155" on="0"/>
        <pt x="375" y="204" on="1"/>
        <pt x="340" y="192" on="0"/>
        <pt x="237" y="192" on="0"/>
        <pt x="162" y="203" on="1"/>
        <pt x="131" y="82" on="0"/>
        <pt x="131" y="21" on="1"/>
        <pt x="131" y="8" on="0"/>
        <pt x="132" y="2" on="1"/>
        <pt x="119" y="0" on="0"/>
        <pt x="57" y="0" on="0"/>
        <pt x="10" y="39" on="0"/>
        <pt x="10" y="75" on="1"/>
        <pt x="10" y="125" on="0"/>
        <pt x="202" y="611" on="0"/>
      </contour>
      <contour>
        <pt x="185" y="287" on="1"/>
        <pt x="225" y="282" on="0"/>
        <pt x="308" y="282" on="0"/>
        <pt x="355" y="291" on="1"/>
        <pt x="346" y="332" on="0"/>
        <pt x="294" y="605" on="1"/>
        <pt x="232" y="444" on="0"/>
      </contour>
    </TTGlyph>
    <TTGlyph name="Acircumflex.ini" xMin="10" yMin="-6" xMax="943" yMax="970">
      <contour>
        <pt x="824" y="800" on="1"/>
        <pt x="811" y="772" on="0"/>
        <pt x="764" y="772" on="0"/>
        <pt x="672" y="822" on="0"/>
        <pt x="634" y="852" on="1"/>
        <pt x="543" y="772" on="0"/>
        <pt x="484" y="772" on="0"/>
        <pt x="471" y="800" on="1"/>
        <pt x="514" y="833" on="0"/>
        <pt x="552" y="878" on="0"/>
        <pt x="592" y="931" on="0"/>
        <pt x="593" y="932" on="1"/>
        <pt x="623" y="970" on="0"/>
        <pt x="664" y="970" on="1"/>
        <pt x="693" y="919" on="0"/>
        <pt x="787" y="818" on="0"/>
      </contour>
      <contour>
        <pt x="390" y="0" on="0"/>
        <pt x="343" y="39" on="0"/>
        <pt x="343" y="113" on="0"/>
        <pt x="381" y="219" on="1"/>
        <pt x="151" y="269" on="0"/>
        <pt x="62" y="352" on="1"/>
        <pt x="10" y="400" on="0"/>
        <pt x="10" y="465" on="1"/>
        <pt x="10" y="508" on="0"/>
        <pt x="60" y="583" on="0"/>
        <pt x="100" y="602" on="1"/>
        <pt x="106" y="473" on="0"/>
        <pt x="278" y="327" on="0"/>
        <pt x="412" y="299" on="1"/>
        <pt x="439" y="364" on="0"/>
        <pt x="483" y="480" on="1"/>
        <pt x="539" y="629" on="0"/>
        <pt x="557" y="702" on="1"/>
        <pt x="599" y="716" on="0"/>
        <pt x="633" y="716" on="1"/>
        <pt x="685" y="716" on="0"/>
        <pt x="743" y="643" on="0"/>
        <pt x="759" y="576" on="1"/>
        <pt x="764" y="556" on="0"/>
        <pt x="795" y="420" on="0"/>
        <pt x="805" y="378" on="1"/>
        <pt x="836" y="247" on="0"/>
        <pt x="887" y="103" on="0"/>
        <pt x="943" y="60" on="1"/>
        <pt x="931" y="30" on="0"/>
        <pt x="876" y="-6" on="0"/>
        <pt x="844" y="-6" on="1"/>
        <pt x="771" y="-6" on="0"/>
        <pt x="737" y="104" on="1"/>
        <pt x="721" y="155" on="0"/>
        <pt x="708" y="204" on="1"/>
        <pt x="673" y="192" on="0"/>
        <pt x="563" y="192" on="0"/>
        <pt x="493" y="200" on="1"/>
        <pt x="464" y="90" on="0"/>
        <pt x="464" y="21" on="1"/>
        <pt x="464" y="8" on="0"/>
        <pt x="465" y="2" on="1"/>
        <pt x="452" y="0" on="0"/>
      </contour>
      <contour>
        <pt x="627" y="605" on="1"/>
        <pt x="554" y="409" on="0"/>
        <pt x="516" y="285" on="1"/>
        <pt x="557" y="282" on="0"/>
        <pt x="642" y="282" on="0"/>
        <pt x="688" y="291" on="1"/>
        <pt x="679" y="332" on="0"/>
      </contour>
    </TTGlyph>
    <TTGlyph name="Acircumflex.swash" xMin="10" yMin="-250" xMax="813" yMax="970">
      <contour>
        <pt x="185" y="287" on="1"/>
        <pt x="225" y="282" on="0"/>
        <pt x="308" y="282" on="0"/>
        <pt x="355" y="291" on="1"/>
        <pt x="346" y="332" on="0"/>
        <pt x="294" y="605" on="1"/>
        <pt x="232" y="444" on="0"/>
      </contour>
      <contour>
        <pt x="375" y="205" on="1"/>
        <pt x="341" y="192" on="0"/>
        <pt x="237" y="192" on="0"/>
        <pt x="162" y="203" on="1"/>
        <pt x="131" y="82" on="0"/>
        <pt x="131" y="21" on="1"/>
        <pt x="131" y="8" on="0"/>
        <pt x="132" y="2" on="1"/>
        <pt x="119" y="0" on="0"/>
        <pt x="57" y="0" on="0"/>
        <pt x="10" y="39" on="0"/>
        <pt x="10" y="75" on="1"/>
        <pt x="10" y="125" on="0"/>
        <pt x="202" y="611" on="0"/>
        <pt x="224" y="702" on="1"/>
        <pt x="266" y="716" on="0"/>
        <pt x="300" y="716" on="1"/>
        <pt x="352" y="716" on="0"/>
        <pt x="410" y="643" on="0"/>
        <pt x="433" y="545" on="0"/>
        <pt x="450" y="456" on="1"/>
        <pt x="492" y="246" on="0"/>
        <pt x="524" y="164" on="1"/>
        <pt x="574" y="35" on="0"/>
        <pt x="722" y="-132" on="0"/>
        <pt x="813" y="-142" on="1"/>
        <pt x="813" y="-191" on="0"/>
        <pt x="757" y="-250" on="0"/>
        <pt x="705" y="-250" on="1"/>
        <pt x="637" y="-250" on="0"/>
        <pt x="501" y="-114" on="0"/>
        <pt x="401" y="91" on="0"/>
      </contour>
      <contour>
        <pt x="491" y="800" on="1"/>
        <pt x="478" y="772" on="0"/>
        <pt x="431" y="772" on="0"/>
        <pt x="339" y="822" on="0"/>
        <pt x="301" y="852" on="1"/>
        <pt x="210" y="772" on="0"/>
        <pt x="151" y="772" on="0"/>
        <pt x="138" y="800" on="1"/>
        <pt x="181" y="833" on="0"/>
        <pt x="219" y="878" on="0"/>
        <pt x="259" y="931" on="0"/>
        <pt x="260" y="932" on="1"/>
        <pt x="290" y="970" on="0"/>
        <pt x="331" y="970" on="1"/>
        <pt x="360" y="919" on="0"/>
        <pt x="454" y="818" on="0"/>
      </contour>
    </TTGlyph>
    <TTGlyph name="Acircumflex.swash_end" xMin="10" yMin="-250" xMax="913" yMax="970">
      <contour>
        <pt x="500" y="233" on="1"/>
        <pt x="561" y="29" on="0"/>
        <pt x="678" y="-78" on="1"/>
        <pt x="744" y="-137" on="0"/>
        <pt x="813" y="-142" on="1"/>
        <pt x="813" y="-191" on="0"/>
        <pt x="757" y="-250" on="0"/>
        <pt x="709" y="-250" on="1"/>
        <pt x="639" y="-250" on="0"/>
        <pt x="501" y="-116" on="0"/>
        <pt x="402" y="87" on="0"/>
        <pt x="375" y="204" on="1"/>
        <pt x="340" y="192" on="0"/>
        <pt x="237" y="192" on="0"/>
        <pt x="162" y="203" on="1"/>
        <pt x="131" y="82" on="0"/>
        <pt x="131" y="21" on="1"/>
        <pt x="131" y="8" on="0"/>
        <pt x="132" y="2" on="1"/>
        <pt x="119" y="0" on="0"/>
        <pt x="58" y="0" on="0"/>
        <pt x="10" y="39" on="0"/>
        <pt x="10" y="73" on="1"/>
        <pt x="10" y="126" on="0"/>
        <pt x="202" y="611" on="0"/>
        <pt x="224" y="702" on="1"/>
        <pt x="266" y="716" on="0"/>
        <pt x="298" y="716" on="1"/>
        <pt x="352" y="716" on="0"/>
        <pt x="412" y="644" on="0"/>
        <pt x="426" y="576" on="1"/>
        <pt x="456" y="414" on="0"/>
        <pt x="478" y="317" on="1"/>
        <pt x="588" y="330" on="0"/>
        <pt x="659" y="330" on="1"/>
        <pt x="773" y="330" on="0"/>
        <pt x="913" y="244" on="0"/>
        <pt x="913" y="165" on="1"/>
        <pt x="913" y="123" on="0"/>
        <pt x="890" y="87" on="1"/>
        <pt x="883" y="75" on="0"/>
        <pt x="867" y="54" on="1"/>
        <pt x="828" y="146" on="0"/>
        <pt x="678" y="238" on="0"/>
        <pt x="581" y="238" on="1"/>
        <pt x="547" y="238" on="0"/>
      </contour>
      <contour>
        <pt x="185" y="287" on="1"/>
        <pt x="225" y="282" on="0"/>
        <pt x="308" y="282" on="0"/>
        <pt x="355" y="291" on="1"/>
        <pt x="346" y="332" on="0"/>
        <pt x="294" y="605" on="1"/>
        <pt x="232" y="444" on="0"/>
      </contour>
      <contour>
        <pt x="491" y="800" on="1"/>
        <pt x="478" y="772" on="0"/>
        <pt x="431" y="772" on="0"/>
        <pt x="339" y="822" on="0"/>
        <pt x="301" y="852" on="1"/>
        <pt x="210" y="772" on="0"/>
        <pt x="151" y="772" on="0"/>
        <pt x="138" y="800" on="1"/>
        <pt x="181" y="833" on="0"/>
        <pt x="219" y="878" on="0"/>
        <pt x="259" y="931" on="0"/>
        <pt x="260" y="932" on="1"/>
        <pt x="290" y="970" on="0"/>
        <pt x="331" y="970" on="1"/>
        <pt x="360" y="919" on="0"/>
        <pt x="454" y="818" on="0"/>
      </contour>
    </TTGlyph>
    <TTGlyph name="Acircumflex.swash_ini" xMin="10" yMin="-250" xMax="1146" yMax="970">
      <contour>
        <pt x="627" y="605" on="1"/>
        <pt x="554" y="409" on="0"/>
        <pt x="516" y="285" on="1"/>
        <pt x="557" y="282" on="0"/>
        <pt x="642" y="282" on="0"/>
        <pt x="688" y="291" on="1"/>
        <pt x="679" y="332" on="0"/>
      </contour>
      <contour>
        <pt x="708" y="205" on="1"/>
        <pt x="670" y="192" on="0"/>
        <pt x="563" y="192" on="0"/>
        <pt x="493" y="200" on="1"/>
        <pt x="464" y="90" on="0"/>
        <pt x="464" y="21" on="1"/>
        <pt x="464" y="8" on="0"/>
        <pt x="465" y="2" on="1"/>
        <pt x="452" y="0" on="0"/>
        <pt x="390" y="0" on="0"/>
        <pt x="343" y="39" on="0"/>
        <pt x="343" y="113" on="0"/>
        <pt x="381" y="219" on="1"/>
        <pt x="151" y="269" on="0"/>
        <pt x="62" y="352" on="1"/>
        <pt x="10" y="400" on="0"/>
        <pt x="10" y="465" on="1"/>
        <pt x="10" y="508" on="0"/>
        <pt x="60" y="583" on="0"/>
        <pt x="100" y="602" on="1"/>
        <pt x="106" y="473" on="0"/>
        <pt x="278" y="327" on="0"/>
        <pt x="412" y="299" on="1"/>
        <pt x="439" y="364" on="0"/>
        <pt x="483" y="480" on="1"/>
        <pt x="539" y="629" on="0"/>
        <pt x="557" y="702" on="1"/>
        <pt x="599" y="716" on="0"/>
        <pt x="633" y="716" on="1"/>
        <pt x="685" y="716" on="0"/>
        <pt x="743" y="643" on="0"/>
        <pt x="766" y="545" on="0"/>
        <pt x="784" y="456" on="1"/>
        <pt x="825" y="246" on="0"/>
        <pt x="857" y="164" on="1"/>
        <pt x="907" y="35" on="0"/>
        <pt x="1055" y="-132" on="0"/>
        <pt x="1146" y="-142" on="1"/>
        <pt x="1146" y="-191" on="0"/>
        <pt x="1090" y="-250" on="0"/>
        <pt x="1038" y="-250" on="1"/>
        <pt x="970" y="-250" on="0"/>
        <pt x="834" y="-114" on="0"/>
        <pt x="734" y="91" on="0"/>
      </contour>
      <contour>
        <pt x="824" y="800" on="1"/>
        <pt x="811" y="772" on="0"/>
        <pt x="764" y="772" on="0"/>
        <pt x="672" y="822" on="0"/>
        <pt x="634" y="852" on="1"/>
        <pt x="543" y="772" on="0"/>
        <pt x="484" y="772" on="0"/>
        <pt x="471" y="800" on="1"/>
        <pt x="514" y="833" on="0"/>
        <pt x="552" y="878" on="0"/>
        <pt x="592" y="931" on="0"/>
        <pt x="593" y="932" on="1"/>
        <pt x="623" y="970" on="0"/>
        <pt x="664" y="970" on="1"/>
        <pt x="693" y="919" on="0"/>
        <pt x="787" y="818" on="0"/>
      </contour>
    </TTGlyph>
    <TTGlyph name="Adieresis" xMin="10" yMin="-6" xMax="610" yMax="938">
      <component glyphName="A" x="0" y="0" flags="0x1004"/>
      <component glyphName="dieresis" x="64" y="200" flags="0x1004"/>
    </TTGlyph>
    <TTGlyph name="Adieresis.end" xMin="10" yMin="-6" xMax="913" yMax="938">
      <contour>
        <pt x="142" y="926" on="1"/>
        <pt x="168" y="938" on="0"/>
        <pt x="201" y="938" on="1"/>
        <pt x="251" y="938" on="0"/>
        <pt x="251" y="886" on="1"/>
        <pt x="251" y="858" on="0"/>
        <pt x="213" y="821" on="0"/>
        <pt x="162" y="821" on="0"/>
        <pt x="134" y="849" on="0"/>
        <pt x="134" y="902" on="0"/>
      </contour>
      <contour>
        <pt x="366" y="926" on="1"/>
        <pt x="392" y="938" on="0"/>
        <pt x="425" y="938" on="1"/>
        <pt x="475" y="938" on="0"/>
        <pt x="475" y="886" on="1"/>
        <pt x="475" y="858" on="0"/>
        <pt x="437" y="821" on="0"/>
        <pt x="386" y="821" on="0"/>
        <pt x="358" y="849" on="0"/>
        <pt x="358" y="902" on="0"/>
      </contour>
      <contour>
        <pt x="224" y="702" on="1"/>
        <pt x="266" y="716" on="0"/>
        <pt x="300" y="716" on="1"/>
        <pt x="352" y="716" on="0"/>
        <pt x="410" y="643" on="0"/>
        <pt x="426" y="576" on="1"/>
        <pt x="427" y="573" on="0"/>
        <pt x="472" y="373" on="0"/>
        <pt x="486" y="318" on="1"/>
        <pt x="584" y="330" on="0"/>
        <pt x="715" y="330" on="0"/>
        <pt x="796" y="313" on="0"/>
        <pt x="869" y="275" on="0"/>
        <pt x="913" y="205" on="0"/>
        <pt x="913" y="113" on="0"/>
        <pt x="867" y="54" on="1"/>
        <pt x="829" y="145" on="0"/>
        <pt x="679" y="238" on="0"/>
        <pt x="585" y="238" on="1"/>
        <pt x="552" y="238" on="0"/>
        <pt x="510" y="233" on="1"/>
        <pt x="522" y="193" on="0"/>
        <pt x="529" y="175" on="1"/>
        <pt x="554" y="103" on="0"/>
        <pt x="610" y="60" on="1"/>
        <pt x="598" y="30" on="0"/>
        <pt x="543" y="-6" on="0"/>
        <pt x="511" y="-6" on="1"/>
        <pt x="438" y="-6" on="0"/>
        <pt x="404" y="104" on="1"/>
        <pt x="388" y="155" on="0"/>
        <pt x="375" y="204" on="1"/>
        <pt x="340" y="192" on="0"/>
        <pt x="237" y="192" on="0"/>
        <pt x="162" y="203" on="1"/>
        <pt x="131" y="82" on="0"/>
        <pt x="131" y="21" on="1"/>
        <pt x="131" y="8" on="0"/>
        <pt x="132" y="2" on="1"/>
        <pt x="119" y="0" on="0"/>
        <pt x="57" y="0" on="0"/>
        <pt x="10" y="39" on="0"/>
        <pt x="10" y="75" on="1"/>
        <pt x="10" y="125" on="0"/>
        <pt x="202" y="611" on="0"/>
      </contour>
      <contour>
        <pt x="185" y="287" on="1"/>
        <pt x="225" y="282" on="0"/>
        <pt x="308" y="282" on="0"/>
        <pt x="355" y="291" on="1"/>
        <pt x="346" y="332" on="0"/>
        <pt x="294" y="605" on="1"/>
        <pt x="232" y="444" on="0"/>
      </contour>
    </TTGlyph>
    <TTGlyph name="Adieresis.ini" xMin="10" yMin="-6" xMax="943" yMax="938">
      <contour>
        <pt x="475" y="926" on="1"/>
        <pt x="500" y="938" on="0"/>
        <pt x="534" y="938" on="1"/>
        <pt x="584" y="938" on="0"/>
        <pt x="584" y="886" on="1"/>
        <pt x="584" y="858" on="0"/>
        <pt x="546" y="821" on="0"/>
        <pt x="495" y="821" on="0"/>
        <pt x="467" y="849" on="0"/>
        <pt x="467" y="902" on="0"/>
      </contour>
      <contour>
        <pt x="699" y="926" on="1"/>
        <pt x="725" y="938" on="0"/>
        <pt x="758" y="938" on="1"/>
        <pt x="808" y="938" on="0"/>
        <pt x="808" y="886" on="1"/>
        <pt x="808" y="858" on="0"/>
        <pt x="770" y="821" on="0"/>
        <pt x="719" y="821" on="0"/>
        <pt x="691" y="849" on="0"/>
        <pt x="691" y="902" on="0"/>
      </contour>
      <contour>
        <pt x="390" y="0" on="0"/>
        <pt x="343" y="39" on="0"/>
        <pt x="343" y="113" on="0"/>
        <pt x="381" y="219" on="1"/>
        <pt x="151" y="269" on="0"/>
        <pt x="62" y="352" on="1"/>
        <pt x="10" y="400" on="0"/>
        <pt x="10" y="465" on="1"/>
        <pt x="10" y="508" on="0"/>
        <pt x="60" y="583" on="0"/>
        <pt x="100" y="602" on="1"/>
        <pt x="106" y="473" on="0"/>
        <pt x="278" y="327" on="0"/>
        <pt x="412" y="299" on="1"/>
        <pt x="439" y="364" on="0"/>
        <pt x="483" y="480" on="1"/>
        <pt x="539" y="629" on="0"/>
        <pt x="557" y="702" on="1"/>
        <pt x="599" y="716" on="0"/>
        <pt x="633" y="716" on="1"/>
        <pt x="685" y="716" on="0"/>
        <pt x="743" y="643" on="0"/>
        <pt x="759" y="576" on="1"/>
        <pt x="764" y="556" on="0"/>
        <pt x="795" y="420" on="0"/>
        <pt x="805" y="378" on="1"/>
        <pt x="836" y="247" on="0"/>
        <pt x="887" y="103" on="0"/>
        <pt x="943" y="60" on="1"/>
        <pt x="931" y="30" on="0"/>
        <pt x="876" y="-6" on="0"/>
        <pt x="844" y="-6" on="1"/>
        <pt x="771" y="-6" on="0"/>
        <pt x="737" y="104" on="1"/>
        <pt x="721" y="155" on="0"/>
        <pt x="708" y="204" on="1"/>
        <pt x="673" y="192" on="0"/>
        <pt x="563" y="192" on="0"/>
        <pt x="493" y="200" on="1"/>
        <pt x="464" y="90" on="0"/>
        <pt x="464" y="21" on="1"/>
        <pt x="464" y="8" on="0"/>
        <pt x="465" y="2" on="1"/>
        <pt x="452" y="0" on="0"/>
      </contour>
      <contour>
        <pt x="627" y="605" on="1"/>
        <pt x="554" y="409" on="0"/>
        <pt x="516" y="285" on="1"/>
        <pt x="557" y="282" on="0"/>
        <pt x="642" y="282" on="0"/>
        <pt x="688" y="291" on="1"/>
        <pt x="679" y="332" on="0"/>
      </contour>
    </TTGlyph>
    <TTGlyph name="Adieresis.swash" xMin="10" yMin="-250" xMax="813" yMax="938">
      <contour>
        <pt x="185" y="287" on="1"/>
        <pt x="225" y="282" on="0"/>
        <pt x="308" y="282" on="0"/>
        <pt x="355" y="291" on="1"/>
        <pt x="346" y="332" on="0"/>
        <pt x="294" y="605" on="1"/>
        <pt x="232" y="444" on="0"/>
      </contour>
      <contour>
        <pt x="375" y="205" on="1"/>
        <pt x="341" y="192" on="0"/>
        <pt x="237" y="192" on="0"/>
        <pt x="162" y="203" on="1"/>
        <pt x="131" y="82" on="0"/>
        <pt x="131" y="21" on="1"/>
        <pt x="131" y="8" on="0"/>
        <pt x="132" y="2" on="1"/>
        <pt x="119" y="0" on="0"/>
        <pt x="57" y="0" on="0"/>
        <pt x="10" y="39" on="0"/>
        <pt x="10" y="75" on="1"/>
        <pt x="10" y="125" on="0"/>
        <pt x="202" y="611" on="0"/>
        <pt x="224" y="702" on="1"/>
        <pt x="266" y="716" on="0"/>
        <pt x="300" y="716" on="1"/>
        <pt x="352" y="716" on="0"/>
        <pt x="410" y="643" on="0"/>
        <pt x="433" y="545" on="0"/>
        <pt x="450" y="456" on="1"/>
        <pt x="492" y="246" on="0"/>
        <pt x="524" y="164" on="1"/>
        <pt x="574" y="35" on="0"/>
        <pt x="722" y="-132" on="0"/>
        <pt x="813" y="-142" on="1"/>
        <pt x="813" y="-191" on="0"/>
        <pt x="757" y="-250" on="0"/>
        <pt x="705" y="-250" on="1"/>
        <pt x="637" y="-250" on="0"/>
        <pt x="501" y="-114" on="0"/>
        <pt x="401" y="91" on="0"/>
      </contour>
      <contour>
        <pt x="142" y="926" on="1"/>
        <pt x="168" y="938" on="0"/>
        <pt x="201" y="938" on="1"/>
        <pt x="251" y="938" on="0"/>
        <pt x="251" y="886" on="1"/>
        <pt x="251" y="858" on="0"/>
        <pt x="213" y="821" on="0"/>
        <pt x="162" y="821" on="0"/>
        <pt x="134" y="849" on="0"/>
        <pt x="134" y="902" on="0"/>
      </contour>
      <contour>
        <pt x="366" y="926" on="1"/>
        <pt x="392" y="938" on="0"/>
        <pt x="425" y="938" on="1"/>
        <pt x="475" y="938" on="0"/>
        <pt x="475" y="886" on="1"/>
        <pt x="475" y="858" on="0"/>
        <pt x="437" y="821" on="0"/>
        <pt x="386" y="821" on="0"/>
        <pt x="358" y="849" on="0"/>
        <pt x="358" y="902" on="0"/>
      </contour>
    </TTGlyph>
    <TTGlyph name="Adieresis.swash_end" xMin="10" yMin="-250" xMax="913" yMax="938">
      <contour>
        <pt x="500" y="233" on="1"/>
        <pt x="561" y="29" on="0"/>
        <pt x="678" y="-78" on="1"/>
        <pt x="744" y="-137" on="0"/>
        <pt x="813" y="-142" on="1"/>
        <pt x="813" y="-191" on="0"/>
        <pt x="757" y="-250" on="0"/>
        <pt x="709" y="-250" on="1"/>
        <pt x="639" y="-250" on="0"/>
        <pt x="501" y="-116" on="0"/>
        <pt x="402" y="87" on="0"/>
        <pt x="375" y="204" on="1"/>
        <pt x="340" y="192" on="0"/>
        <pt x="237" y="192" on="0"/>
        <pt x="162" y="203" on="1"/>
        <pt x="131" y="82" on="0"/>
        <pt x="131" y="21" on="1"/>
        <pt x="131" y="8" on="0"/>
        <pt x="132" y="2" on="1"/>
        <pt x="119" y="0" on="0"/>
        <pt x="58" y="0" on="0"/>
        <pt x="10" y="39" on="0"/>
        <pt x="10" y="73" on="1"/>
        <pt x="10" y="126" on="0"/>
        <pt x="202" y="611" on="0"/>
        <pt x="224" y="702" on="1"/>
        <pt x="266" y="716" on="0"/>
        <pt x="298" y="716" on="1"/>
        <pt x="352" y="716" on="0"/>
        <pt x="412" y="644" on="0"/>
        <pt x="426" y="576" on="1"/>
        <pt x="456" y="414" on="0"/>
        <pt x="478" y="317" on="1"/>
        <pt x="588" y="330" on="0"/>
        <pt x="659" y="330" on="1"/>
        <pt x="773" y="330" on="0"/>
        <pt x="913" y="244" on="0"/>
        <pt x="913" y="165" on="1"/>
        <pt x="913" y="123" on="0"/>
        <pt x="890" y="87" on="1"/>
        <pt x="883" y="75" on="0"/>
        <pt x="867" y="54" on="1"/>
        <pt x="828" y="146" on="0"/>
        <pt x="678" y="238" on="0"/>
        <pt x="581" y="238" on="1"/>
        <pt x="547" y="238" on="0"/>
      </contour>
      <contour>
        <pt x="185" y="287" on="1"/>
        <pt x="225" y="282" on="0"/>
        <pt x="308" y="282" on="0"/>
        <pt x="355" y="291" on="1"/>
        <pt x="346" y="332" on="0"/>
        <pt x="294" y="605" on="1"/>
        <pt x="232" y="444" on="0"/>
      </contour>
      <contour>
        <pt x="142" y="926" on="1"/>
        <pt x="168" y="938" on="0"/>
        <pt x="201" y="938" on="1"/>
        <pt x="251" y="938" on="0"/>
        <pt x="251" y="886" on="1"/>
        <pt x="251" y="858" on="0"/>
        <pt x="213" y="821" on="0"/>
        <pt x="162" y="821" on="0"/>
        <pt x="134" y="849" on="0"/>
        <pt x="134" y="902" on="0"/>
      </contour>
      <contour>
        <pt x="366" y="926" on="1"/>
        <pt x="392" y="938" on="0"/>
        <pt x="425" y="938" on="1"/>
        <pt x="475" y="938" on="0"/>
        <pt x="475" y="886" on="1"/>
        <pt x="475" y="858" on="0"/>
        <pt x="437" y="821" on="0"/>
        <pt x="386" y="821" on="0"/>
        <pt x="358" y="849" on="0"/>
        <pt x="358" y="902" on="0"/>
      </contour>
    </TTGlyph>
    <TTGlyph name="Adieresis.swash_ini" xMin="10" yMin="-250" xMax="1146" yMax="938">
      <contour>
        <pt x="627" y="605" on="1"/>
        <pt x="554" y="409" on="0"/>
        <pt x="516" y="285" on="1"/>
        <pt x="557" y="282" on="0"/>
        <pt x="642" y="282" on="0"/>
        <pt x="688" y="291" on="1"/>
        <pt x="679" y="332" on="0"/>
      </contour>
      <contour>
        <pt x="708" y="205" on="1"/>
        <pt x="670" y="192" on="0"/>
        <pt x="563" y="192" on="0"/>
        <pt x="493" y="200" on="1"/>
        <pt x="464" y="90" on="0"/>
        <pt x="464" y="21" on="1"/>
        <pt x="464" y="8" on="0"/>
        <pt x="465" y="2" on="1"/>
        <pt x="452" y="0" on="0"/>
        <pt x="390" y="0" on="0"/>
        <pt x="343" y="39" on="0"/>
        <pt x="343" y="113" on="0"/>
        <pt x="381" y="219" on="1"/>
        <pt x="151" y="269" on="0"/>
        <pt x="62" y="352" on="1"/>
        <pt x="10" y="400" on="0"/>
        <pt x="10" y="465" on="1"/>
        <pt x="10" y="508" on="0"/>
        <pt x="60" y="583" on="0"/>
        <pt x="100" y="602" on="1"/>
        <pt x="106" y="473" on="0"/>
        <pt x="278" y="327" on="0"/>
        <pt x="412" y="299" on="1"/>
        <pt x="439" y="364" on="0"/>
        <pt x="483" y="480" on="1"/>
        <pt x="539" y="629" on="0"/>
        <pt x="557" y="702" on="1"/>
        <pt x="599" y="716" on="0"/>
        <pt x="633" y="716" on="1"/>
        <pt x="685" y="716" on="0"/>
        <pt x="743" y="643" on="0"/>
        <pt x="766" y="545" on="0"/>
        <pt x="784" y="456" on="1"/>
        <pt x="825" y="246" on="0"/>
        <pt x="857" y="164" on="1"/>
        <pt x="907" y="35" on="0"/>
        <pt x="1055" y="-132" on="0"/>
        <pt x="1146" y="-142" on="1"/>
        <pt x="1146" y="-191" on="0"/>
        <pt x="1090" y="-250" on="0"/>
        <pt x="1038" y="-250" on="1"/>
        <pt x="970" y="-250" on="0"/>
        <pt x="834" y="-114" on="0"/>
        <pt x="734" y="91" on="0"/>
      </contour>
      <contour>
        <pt x="475" y="926" on="1"/>
        <pt x="500" y="938" on="0"/>
        <pt x="534" y="938" on="1"/>
        <pt x="584" y="938" on="0"/>
        <pt x="584" y="886" on="1"/>
        <pt x="584" y="858" on="0"/>
        <pt x="546" y="821" on="0"/>
        <pt x="495" y="821" on="0"/>
        <pt x="467" y="849" on="0"/>
        <pt x="467" y="902" on="0"/>
      </contour>
      <contour>
        <pt x="699" y="926" on="1"/>
        <pt x="725" y="938" on="0"/>
        <pt x="758" y="938" on="1"/>
        <pt x="808" y="938" on="0"/>
        <pt x="808" y="886" on="1"/>
        <pt x="808" y="858" on="0"/>
        <pt x="770" y="821" on="0"/>
        <pt x="719" y="821" on="0"/>
        <pt x="691" y="849" on="0"/>
        <pt x="691" y="902" on="0"/>
      </contour>
    </TTGlyph>
    <TTGlyph name="Agrave" xMin="10" yMin="-6" xMax="610" yMax="950">
      <contour>
        <pt x="224" y="702" on="1"/>
        <pt x="266" y="716" on="0"/>
        <pt x="300" y="716" on="1"/>
        <pt x="352" y="716" on="0"/>
        <pt x="410" y="643" on="0"/>
        <pt x="426" y="576" on="1"/>
        <pt x="431" y="556" on="0"/>
        <pt x="462" y="420" on="0"/>
        <pt x="472" y="378" on="1"/>
        <pt x="503" y="247" on="0"/>
        <pt x="554" y="103" on="0"/>
        <pt x="610" y="60" on="1"/>
        <pt x="598" y="30" on="0"/>
        <pt x="543" y="-6" on="0"/>
        <pt x="511" y="-6" on="1"/>
        <pt x="438" y="-6" on="0"/>
        <pt x="404" y="104" on="1"/>
        <pt x="388" y="155" on="0"/>
        <pt x="375" y="204" on="1"/>
        <pt x="340" y="192" on="0"/>
        <pt x="237" y="192" on="0"/>
        <pt x="162" y="203" on="1"/>
        <pt x="131" y="82" on="0"/>
        <pt x="131" y="21" on="1"/>
        <pt x="131" y="8" on="0"/>
        <pt x="132" y="2" on="1"/>
        <pt x="119" y="0" on="0"/>
        <pt x="57" y="0" on="0"/>
        <pt x="10" y="39" on="0"/>
        <pt x="10" y="75" on="1"/>
        <pt x="10" y="125" on="0"/>
        <pt x="202" y="611" on="0"/>
      </contour>
      <contour>
        <pt x="185" y="287" on="1"/>
        <pt x="225" y="282" on="0"/>
        <pt x="308" y="282" on="0"/>
        <pt x="355" y="291" on="1"/>
        <pt x="346" y="332" on="0"/>
        <pt x="294" y="605" on="1"/>
        <pt x="232" y="444" on="0"/>
      </contour>
      <contour>
        <pt x="402" y="810" on="1"/>
        <pt x="394" y="772" on="0"/>
        <pt x="361" y="772" on="1"/>
        <pt x="317" y="772" on="0"/>
        <pt x="168" y="853" on="0"/>
        <pt x="168" y="893" on="1"/>
        <pt x="168" y="921" on="0"/>
        <pt x="223" y="950" on="0"/>
        <pt x="263" y="950" on="1"/>
        <pt x="312" y="860" on="0"/>
      </contour>
    </TTGlyph>
    <TTGlyph name="Agrave.end" xMin="10" yMin="-6" xMax="913" yMax="950">
      <contour>
        <pt x="402" y="810" on="1"/>
        <pt x="394" y="772" on="0"/>
        <pt x="361" y="772" on="1"/>
        <pt x="317" y="772" on="0"/>
        <pt x="168" y="853" on="0"/>
        <pt x="168" y="893" on="1"/>
        <pt x="168" y="921" on="0"/>
        <pt x="223" y="950" on="0"/>
        <pt x="263" y="950" on="1"/>
        <pt x="312" y="860" on="0"/>
      </contour>
      <contour>
        <pt x="224" y="702" on="1"/>
        <pt x="266" y="716" on="0"/>
        <pt x="300" y="716" on="1"/>
        <pt x="352" y="716" on="0"/>
        <pt x="410" y="643" on="0"/>
        <pt x="426" y="576" on="1"/>
        <pt x="427" y="573" on="0"/>
        <pt x="472" y="373" on="0"/>
        <pt x="486" y="318" on="1"/>
        <pt x="584" y="330" on="0"/>
        <pt x="715" y="330" on="0"/>
        <pt x="796" y="313" on="0"/>
        <pt x="869" y="275" on="0"/>
        <pt x="913" y="205" on="0"/>
        <pt x="913" y="113" on="0"/>
        <pt x="867" y="54" on="1"/>
        <pt x="829" y="145" on="0"/>
        <pt x="679" y="238" on="0"/>
        <pt x="585" y="238" on="1"/>
        <pt x="552" y="238" on="0"/>
        <pt x="510" y="233" on="1"/>
        <pt x="522" y="193" on="0"/>
        <pt x="529" y="175" on="1"/>
        <pt x="554" y="103" on="0"/>
        <pt x="610" y="60" on="1"/>
        <pt x="598" y="30" on="0"/>
        <pt x="543" y="-6" on="0"/>
        <pt x="511" y="-6" on="1"/>
        <pt x="438" y="-6" on="0"/>
        <pt x="404" y="104" on="1"/>
        <pt x="388" y="155" on="0"/>
        <pt x="375" y="204" on="1"/>
        <pt x="340" y="192" on="0"/>
        <pt x="237" y="192" on="0"/>
        <pt x="162" y="203" on="1"/>
        <pt x="131" y="82" on="0"/>
        <pt x="131" y="21" on="1"/>
        <pt x="131" y="8" on="0"/>
        <pt x="132" y="2" on="1"/>
        <pt x="119" y="0" on="0"/>
        <pt x="57" y="0" on="0"/>
        <pt x="10" y="39" on="0"/>
        <pt x="10" y="75" on="1"/>
        <pt x="10" y="125" on="0"/>
        <pt x="202" y="611" on="0"/>
      </contour>
      <contour>
        <pt x="185" y="287" on="1"/>
        <pt x="225" y="282" on="0"/>
        <pt x="308" y="282" on="0"/>
        <pt x="355" y="291" on="1"/>
        <pt x="346" y="332" on="0"/>
        <pt x="294" y="605" on="1"/>
        <pt x="232" y="444" on="0"/>
      </contour>
    </TTGlyph>
    <TTGlyph name="Agrave.ini" xMin="10" yMin="-6" xMax="943" yMax="950">
      <contour>
        <pt x="735" y="810" on="1"/>
        <pt x="727" y="772" on="0"/>
        <pt x="694" y="772" on="1"/>
        <pt x="650" y="772" on="0"/>
        <pt x="501" y="853" on="0"/>
        <pt x="501" y="893" on="1"/>
        <pt x="501" y="921" on="0"/>
        <pt x="556" y="950" on="0"/>
        <pt x="596" y="950" on="1"/>
        <pt x="645" y="860" on="0"/>
      </contour>
      <contour>
        <pt x="390" y="0" on="0"/>
        <pt x="343" y="39" on="0"/>
        <pt x="343" y="113" on="0"/>
        <pt x="381" y="219" on="1"/>
        <pt x="151" y="269" on="0"/>
        <pt x="62" y="352" on="1"/>
        <pt x="10" y="400" on="0"/>
        <pt x="10" y="465" on="1"/>
        <pt x="10" y="508" on="0"/>
        <pt x="60" y="583" on="0"/>
        <pt x="100" y="602" on="1"/>
        <pt x="106" y="473" on="0"/>
        <pt x="278" y="327" on="0"/>
        <pt x="412" y="299" on="1"/>
        <pt x="439" y="364" on="0"/>
        <pt x="483" y="480" on="1"/>
        <pt x="539" y="629" on="0"/>
        <pt x="557" y="702" on="1"/>
        <pt x="599" y="716" on="0"/>
        <pt x="633" y="716" on="1"/>
        <pt x="685" y="716" on="0"/>
        <pt x="743" y="643" on="0"/>
        <pt x="759" y="576" on="1"/>
        <pt x="764" y="556" on="0"/>
        <pt x="795" y="420" on="0"/>
        <pt x="805" y="378" on="1"/>
        <pt x="836" y="247" on="0"/>
        <pt x="887" y="103" on="0"/>
        <pt x="943" y="60" on="1"/>
        <pt x="931" y="30" on="0"/>
        <pt x="876" y="-6" on="0"/>
        <pt x="844" y="-6" on="1"/>
        <pt x="771" y="-6" on="0"/>
        <pt x="737" y="104" on="1"/>
        <pt x="721" y="155" on="0"/>
        <pt x="708" y="204" on="1"/>
        <pt x="673" y="192" on="0"/>
        <pt x="563" y="192" on="0"/>
        <pt x="493" y="200" on="1"/>
        <pt x="464" y="90" on="0"/>
        <pt x="464" y="21" on="1"/>
        <pt x="464" y="8" on="0"/>
        <pt x="465" y="2" on="1"/>
        <pt x="452" y="0" on="0"/>
      </contour>
      <contour>
        <pt x="627" y="605" on="1"/>
        <pt x="554" y="409" on="0"/>
        <pt x="516" y="285" on="1"/>
        <pt x="557" y="282" on="0"/>
        <pt x="642" y="282" on="0"/>
        <pt x="688" y="291" on="1"/>
        <pt x="679" y="332" on="0"/>
      </contour>
    </TTGlyph>
    <TTGlyph name="Agrave.swash" xMin="10" yMin="-250" xMax="813" yMax="950">
      <contour>
        <pt x="185" y="287" on="1"/>
        <pt x="225" y="282" on="0"/>
        <pt x="308" y="282" on="0"/>
        <pt x="355" y="291" on="1"/>
        <pt x="346" y="332" on="0"/>
        <pt x="294" y="605" on="1"/>
        <pt x="232" y="444" on="0"/>
      </contour>
      <contour>
        <pt x="375" y="205" on="1"/>
        <pt x="341" y="192" on="0"/>
        <pt x="237" y="192" on="0"/>
        <pt x="162" y="203" on="1"/>
        <pt x="131" y="82" on="0"/>
        <pt x="131" y="21" on="1"/>
        <pt x="131" y="8" on="0"/>
        <pt x="132" y="2" on="1"/>
        <pt x="119" y="0" on="0"/>
        <pt x="57" y="0" on="0"/>
        <pt x="10" y="39" on="0"/>
        <pt x="10" y="75" on="1"/>
        <pt x="10" y="125" on="0"/>
        <pt x="202" y="611" on="0"/>
        <pt x="224" y="702" on="1"/>
        <pt x="266" y="716" on="0"/>
        <pt x="300" y="716" on="1"/>
        <pt x="352" y="716" on="0"/>
        <pt x="410" y="643" on="0"/>
        <pt x="433" y="545" on="0"/>
        <pt x="450" y="456" on="1"/>
        <pt x="492" y="246" on="0"/>
        <pt x="524" y="164" on="1"/>
        <pt x="574" y="35" on="0"/>
        <pt x="722" y="-132" on="0"/>
        <pt x="813" y="-142" on="1"/>
        <pt x="813" y="-191" on="0"/>
        <pt x="757" y="-250" on="0"/>
        <pt x="705" y="-250" on="1"/>
        <pt x="637" y="-250" on="0"/>
        <pt x="501" y="-114" on="0"/>
        <pt x="401" y="91" on="0"/>
      </contour>
      <contour>
        <pt x="402" y="810" on="1"/>
        <pt x="394" y="772" on="0"/>
        <pt x="361" y="772" on="1"/>
        <pt x="317" y="772" on="0"/>
        <pt x="168" y="853" on="0"/>
        <pt x="168" y="893" on="1"/>
        <pt x="168" y="921" on="0"/>
        <pt x="223" y="950" on="0"/>
        <pt x="263" y="950" on="1"/>
        <pt x="312" y="860" on="0"/>
      </contour>
    </TTGlyph>
    <TTGlyph name="Agrave.swash_end" xMin="10" yMin="-250" xMax="913" yMax="950">
      <contour>
        <pt x="500" y="233" on="1"/>
        <pt x="561" y="29" on="0"/>
        <pt x="678" y="-78" on="1"/>
        <pt x="744" y="-137" on="0"/>
        <pt x="813" y="-142" on="1"/>
        <pt x="813" y="-191" on="0"/>
        <pt x="757" y="-250" on="0"/>
        <pt x="709" y="-250" on="1"/>
        <pt x="639" y="-250" on="0"/>
        <pt x="501" y="-116" on="0"/>
        <pt x="402" y="87" on="0"/>
        <pt x="375" y="204" on="1"/>
        <pt x="340" y="192" on="0"/>
        <pt x="237" y="192" on="0"/>
        <pt x="162" y="203" on="1"/>
        <pt x="131" y="82" on="0"/>
        <pt x="131" y="21" on="1"/>
        <pt x="131" y="8" on="0"/>
        <pt x="132" y="2" on="1"/>
        <pt x="119" y="0" on="0"/>
        <pt x="58" y="0" on="0"/>
        <pt x="10" y="39" on="0"/>
        <pt x="10" y="73" on="1"/>
        <pt x="10" y="126" on="0"/>
        <pt x="202" y="611" on="0"/>
        <pt x="224" y="702" on="1"/>
        <pt x="266" y="716" on="0"/>
        <pt x="298" y="716" on="1"/>
        <pt x="352" y="716" on="0"/>
        <pt x="412" y="644" on="0"/>
        <pt x="426" y="576" on="1"/>
        <pt x="456" y="414" on="0"/>
        <pt x="478" y="317" on="1"/>
        <pt x="588" y="330" on="0"/>
        <pt x="659" y="330" on="1"/>
        <pt x="773" y="330" on="0"/>
        <pt x="913" y="244" on="0"/>
        <pt x="913" y="165" on="1"/>
        <pt x="913" y="123" on="0"/>
        <pt x="890" y="87" on="1"/>
        <pt x="883" y="75" on="0"/>
        <pt x="867" y="54" on="1"/>
        <pt x="828" y="146" on="0"/>
        <pt x="678" y="238" on="0"/>
        <pt x="581" y="238" on="1"/>
        <pt x="547" y="238" on="0"/>
      </contour>
      <contour>
        <pt x="185" y="287" on="1"/>
        <pt x="225" y="282" on="0"/>
        <pt x="308" y="282" on="0"/>
        <pt x="355" y="291" on="1"/>
        <pt x="346" y="332" on="0"/>
        <pt x="294" y="605" on="1"/>
        <pt x="232" y="444" on="0"/>
      </contour>
      <contour>
        <pt x="402" y="810" on="1"/>
        <pt x="394" y="772" on="0"/>
        <pt x="361" y="772" on="1"/>
        <pt x="317" y="772" on="0"/>
        <pt x="168" y="853" on="0"/>
        <pt x="168" y="893" on="1"/>
        <pt x="168" y="921" on="0"/>
        <pt x="223" y="950" on="0"/>
        <pt x="263" y="950" on="1"/>
        <pt x="312" y="860" on="0"/>
      </contour>
    </TTGlyph>
    <TTGlyph name="Agrave.swash_ini" xMin="10" yMin="-250" xMax="1146" yMax="950">
      <contour>
        <pt x="627" y="605" on="1"/>
        <pt x="554" y="409" on="0"/>
        <pt x="516" y="285" on="1"/>
        <pt x="557" y="282" on="0"/>
        <pt x="642" y="282" on="0"/>
        <pt x="688" y="291" on="1"/>
        <pt x="679" y="332" on="0"/>
      </contour>
      <contour>
        <pt x="708" y="205" on="1"/>
        <pt x="670" y="192" on="0"/>
        <pt x="563" y="192" on="0"/>
        <pt x="493" y="200" on="1"/>
        <pt x="464" y="90" on="0"/>
        <pt x="464" y="21" on="1"/>
        <pt x="464" y="8" on="0"/>
        <pt x="465" y="2" on="1"/>
        <pt x="452" y="0" on="0"/>
        <pt x="390" y="0" on="0"/>
        <pt x="343" y="39" on="0"/>
        <pt x="343" y="113" on="0"/>
        <pt x="381" y="219" on="1"/>
        <pt x="151" y="269" on="0"/>
        <pt x="62" y="352" on="1"/>
        <pt x="10" y="400" on="0"/>
        <pt x="10" y="465" on="1"/>
        <pt x="10" y="508" on="0"/>
        <pt x="60" y="583" on="0"/>
        <pt x="100" y="602" on="1"/>
        <pt x="106" y="473" on="0"/>
        <pt x="278" y="327" on="0"/>
        <pt x="412" y="299" on="1"/>
        <pt x="439" y="364" on="0"/>
        <pt x="483" y="480" on="1"/>
        <pt x="539" y="629" on="0"/>
        <pt x="557" y="702" on="1"/>
        <pt x="599" y="716" on="0"/>
        <pt x="633" y="716" on="1"/>
        <pt x="685" y="716" on="0"/>
        <pt x="743" y="643" on="0"/>
        <pt x="766" y="545" on="0"/>
        <pt x="784" y="456" on="1"/>
        <pt x="825" y="246" on="0"/>
        <pt x="857" y="164" on="1"/>
        <pt x="907" y="35" on="0"/>
        <pt x="1055" y="-132" on="0"/>
        <pt x="1146" y="-142" on="1"/>
        <pt x="1146" y="-191" on="0"/>
        <pt x="1090" y="-250" on="0"/>
        <pt x="1038" y="-250" on="1"/>
        <pt x="970" y="-250" on="0"/>
        <pt x="834" y="-114" on="0"/>
        <pt x="734" y="91" on="0"/>
      </contour>
      <contour>
        <pt x="735" y="810" on="1"/>
        <pt x="727" y="772" on="0"/>
        <pt x="694" y="772" on="1"/>
        <pt x="650" y="772" on="0"/>
        <pt x="501" y="853" on="0"/>
        <pt x="501" y="893" on="1"/>
        <pt x="501" y="921" on="0"/>
        <pt x="556" y="950" on="0"/>
        <pt x="596" y="950" on="1"/>
        <pt x="645" y="860" on="0"/>
      </contour>
    </TTGlyph>
    <TTGlyph name="Aring" xMin="10" yMin="-6" xMax="610" yMax="950">
      <contour>
        <pt x="224" y="702" on="1"/>
        <pt x="266" y="716" on="0"/>
        <pt x="300" y="716" on="1"/>
        <pt x="352" y="716" on="0"/>
        <pt x="410" y="643" on="0"/>
        <pt x="426" y="576" on="1"/>
        <pt x="431" y="556" on="0"/>
        <pt x="462" y="420" on="0"/>
        <pt x="472" y="378" on="1"/>
        <pt x="503" y="247" on="0"/>
        <pt x="554" y="103" on="0"/>
        <pt x="610" y="60" on="1"/>
        <pt x="598" y="30" on="0"/>
        <pt x="543" y="-6" on="0"/>
        <pt x="511" y="-6" on="1"/>
        <pt x="438" y="-6" on="0"/>
        <pt x="404" y="104" on="1"/>
        <pt x="388" y="155" on="0"/>
        <pt x="375" y="204" on="1"/>
        <pt x="340" y="192" on="0"/>
        <pt x="237" y="192" on="0"/>
        <pt x="162" y="203" on="1"/>
        <pt x="131" y="82" on="0"/>
        <pt x="131" y="21" on="1"/>
        <pt x="131" y="8" on="0"/>
        <pt x="132" y="2" on="1"/>
        <pt x="119" y="0" on="0"/>
        <pt x="57" y="0" on="0"/>
        <pt x="10" y="39" on="0"/>
        <pt x="10" y="75" on="1"/>
        <pt x="10" y="125" on="0"/>
        <pt x="202" y="611" on="0"/>
      </contour>
      <contour>
        <pt x="185" y="287" on="1"/>
        <pt x="225" y="282" on="0"/>
        <pt x="308" y="282" on="0"/>
        <pt x="355" y="291" on="1"/>
        <pt x="346" y="332" on="0"/>
        <pt x="294" y="605" on="1"/>
        <pt x="232" y="444" on="0"/>
      </contour>
      <contour>
        <pt x="392" y="830" on="0"/>
        <pt x="334" y="776" on="0"/>
        <pt x="261" y="776" on="0"/>
        <pt x="217" y="819" on="0"/>
        <pt x="217" y="894" on="0"/>
        <pt x="273" y="950" on="0"/>
        <pt x="349" y="950" on="0"/>
        <pt x="392" y="904" on="0"/>
      </contour>
      <contour>
        <pt x="271" y="852" on="0"/>
        <pt x="293" y="829" on="0"/>
        <pt x="322" y="829" on="0"/>
        <pt x="339" y="845" on="0"/>
        <pt x="339" y="874" on="0"/>
        <pt x="316" y="898" on="0"/>
        <pt x="286" y="898" on="0"/>
        <pt x="276" y="892" on="1"/>
        <pt x="271" y="883" on="0"/>
      </contour>
    </TTGlyph>
    <TTGlyph name="Aring.end" xMin="10" yMin="-6" xMax="913" yMax="950">
      <contour>
        <pt x="392" y="830" on="0"/>
        <pt x="334" y="776" on="0"/>
        <pt x="261" y="776" on="0"/>
        <pt x="217" y="819" on="0"/>
        <pt x="217" y="894" on="0"/>
        <pt x="273" y="950" on="0"/>
        <pt x="349" y="950" on="0"/>
        <pt x="392" y="904" on="0"/>
      </contour>
      <contour>
        <pt x="271" y="852" on="0"/>
        <pt x="293" y="829" on="0"/>
        <pt x="322" y="829" on="0"/>
        <pt x="339" y="845" on="0"/>
        <pt x="339" y="874" on="0"/>
        <pt x="316" y="898" on="0"/>
        <pt x="286" y="898" on="0"/>
        <pt x="276" y="892" on="1"/>
        <pt x="271" y="883" on="0"/>
      </contour>
      <contour>
        <pt x="224" y="702" on="1"/>
        <pt x="266" y="716" on="0"/>
        <pt x="300" y="716" on="1"/>
        <pt x="352" y="716" on="0"/>
        <pt x="410" y="643" on="0"/>
        <pt x="426" y="576" on="1"/>
        <pt x="427" y="573" on="0"/>
        <pt x="472" y="373" on="0"/>
        <pt x="486" y="318" on="1"/>
        <pt x="584" y="330" on="0"/>
        <pt x="715" y="330" on="0"/>
        <pt x="796" y="313" on="0"/>
        <pt x="869" y="275" on="0"/>
        <pt x="913" y="205" on="0"/>
        <pt x="913" y="113" on="0"/>
        <pt x="867" y="54" on="1"/>
        <pt x="829" y="145" on="0"/>
        <pt x="679" y="238" on="0"/>
        <pt x="585" y="238" on="1"/>
        <pt x="552" y="238" on="0"/>
        <pt x="510" y="233" on="1"/>
        <pt x="522" y="193" on="0"/>
        <pt x="529" y="175" on="1"/>
        <pt x="554" y="103" on="0"/>
        <pt x="610" y="60" on="1"/>
        <pt x="598" y="30" on="0"/>
        <pt x="543" y="-6" on="0"/>
        <pt x="511" y="-6" on="1"/>
        <pt x="438" y="-6" on="0"/>
        <pt x="404" y="104" on="1"/>
        <pt x="388" y="155" on="0"/>
        <pt x="375" y="204" on="1"/>
        <pt x="340" y="192" on="0"/>
        <pt x="237" y="192" on="0"/>
        <pt x="162" y="203" on="1"/>
        <pt x="131" y="82" on="0"/>
        <pt x="131" y="21" on="1"/>
        <pt x="131" y="8" on="0"/>
        <pt x="132" y="2" on="1"/>
        <pt x="119" y="0" on="0"/>
        <pt x="57" y="0" on="0"/>
        <pt x="10" y="39" on="0"/>
        <pt x="10" y="75" on="1"/>
        <pt x="10" y="125" on="0"/>
        <pt x="202" y="611" on="0"/>
      </contour>
      <contour>
        <pt x="185" y="287" on="1"/>
        <pt x="225" y="282" on="0"/>
        <pt x="308" y="282" on="0"/>
        <pt x="355" y="291" on="1"/>
        <pt x="346" y="332" on="0"/>
        <pt x="294" y="605" on="1"/>
        <pt x="232" y="444" on="0"/>
      </contour>
    </TTGlyph>
    <TTGlyph name="Aring.ini" xMin="10" yMin="-6" xMax="943" yMax="950">
      <contour>
        <pt x="725" y="830" on="0"/>
        <pt x="667" y="776" on="0"/>
        <pt x="594" y="776" on="0"/>
        <pt x="550" y="819" on="0"/>
        <pt x="550" y="894" on="0"/>
        <pt x="606" y="950" on="0"/>
        <pt x="682" y="950" on="0"/>
        <pt x="725" y="904" on="0"/>
      </contour>
      <contour>
        <pt x="604" y="852" on="0"/>
        <pt x="626" y="829" on="0"/>
        <pt x="655" y="829" on="0"/>
        <pt x="672" y="845" on="0"/>
        <pt x="672" y="874" on="0"/>
        <pt x="649" y="898" on="0"/>
        <pt x="620" y="898" on="0"/>
        <pt x="609" y="892" on="1"/>
        <pt x="604" y="883" on="0"/>
      </contour>
      <contour>
        <pt x="390" y="0" on="0"/>
        <pt x="343" y="39" on="0"/>
        <pt x="343" y="113" on="0"/>
        <pt x="381" y="219" on="1"/>
        <pt x="151" y="269" on="0"/>
        <pt x="62" y="352" on="1"/>
        <pt x="10" y="400" on="0"/>
        <pt x="10" y="465" on="1"/>
        <pt x="10" y="508" on="0"/>
        <pt x="60" y="583" on="0"/>
        <pt x="100" y="602" on="1"/>
        <pt x="106" y="473" on="0"/>
        <pt x="278" y="327" on="0"/>
        <pt x="412" y="299" on="1"/>
        <pt x="439" y="364" on="0"/>
        <pt x="483" y="480" on="1"/>
        <pt x="539" y="629" on="0"/>
        <pt x="557" y="702" on="1"/>
        <pt x="599" y="716" on="0"/>
        <pt x="633" y="716" on="1"/>
        <pt x="685" y="716" on="0"/>
        <pt x="743" y="643" on="0"/>
        <pt x="759" y="576" on="1"/>
        <pt x="764" y="556" on="0"/>
        <pt x="795" y="420" on="0"/>
        <pt x="805" y="378" on="1"/>
        <pt x="836" y="247" on="0"/>
        <pt x="887" y="103" on="0"/>
        <pt x="943" y="60" on="1"/>
        <pt x="931" y="30" on="0"/>
        <pt x="876" y="-6" on="0"/>
        <pt x="844" y="-6" on="1"/>
        <pt x="771" y="-6" on="0"/>
        <pt x="737" y="104" on="1"/>
        <pt x="721" y="155" on="0"/>
        <pt x="708" y="204" on="1"/>
        <pt x="673" y="192" on="0"/>
        <pt x="563" y="192" on="0"/>
        <pt x="493" y="200" on="1"/>
        <pt x="464" y="90" on="0"/>
        <pt x="464" y="21" on="1"/>
        <pt x="464" y="8" on="0"/>
        <pt x="465" y="2" on="1"/>
        <pt x="452" y="0" on="0"/>
      </contour>
      <contour>
        <pt x="627" y="605" on="1"/>
        <pt x="554" y="409" on="0"/>
        <pt x="516" y="285" on="1"/>
        <pt x="557" y="282" on="0"/>
        <pt x="642" y="282" on="0"/>
        <pt x="688" y="291" on="1"/>
        <pt x="679" y="332" on="0"/>
      </contour>
    </TTGlyph>
    <TTGlyph name="Aring.swash" xMin="10" yMin="-250" xMax="813" yMax="950">
      <contour>
        <pt x="185" y="287" on="1"/>
        <pt x="225" y="282" on="0"/>
        <pt x="308" y="282" on="0"/>
        <pt x="355" y="291" on="1"/>
        <pt x="346" y="332" on="0"/>
        <pt x="294" y="605" on="1"/>
        <pt x="232" y="444" on="0"/>
      </contour>
      <contour>
        <pt x="375" y="205" on="1"/>
        <pt x="341" y="192" on="0"/>
        <pt x="237" y="192" on="0"/>
        <pt x="162" y="203" on="1"/>
        <pt x="131" y="82" on="0"/>
        <pt x="131" y="21" on="1"/>
        <pt x="131" y="8" on="0"/>
        <pt x="132" y="2" on="1"/>
        <pt x="119" y="0" on="0"/>
        <pt x="57" y="0" on="0"/>
        <pt x="10" y="39" on="0"/>
        <pt x="10" y="75" on="1"/>
        <pt x="10" y="125" on="0"/>
        <pt x="202" y="611" on="0"/>
        <pt x="224" y="702" on="1"/>
        <pt x="266" y="716" on="0"/>
        <pt x="300" y="716" on="1"/>
        <pt x="352" y="716" on="0"/>
        <pt x="410" y="643" on="0"/>
        <pt x="433" y="545" on="0"/>
        <pt x="450" y="456" on="1"/>
        <pt x="492" y="246" on="0"/>
        <pt x="524" y="164" on="1"/>
        <pt x="574" y="35" on="0"/>
        <pt x="722" y="-132" on="0"/>
        <pt x="813" y="-142" on="1"/>
        <pt x="813" y="-191" on="0"/>
        <pt x="757" y="-250" on="0"/>
        <pt x="705" y="-250" on="1"/>
        <pt x="637" y="-250" on="0"/>
        <pt x="501" y="-114" on="0"/>
        <pt x="401" y="91" on="0"/>
      </contour>
      <contour>
        <pt x="392" y="830" on="0"/>
        <pt x="334" y="776" on="0"/>
        <pt x="261" y="776" on="0"/>
        <pt x="217" y="819" on="0"/>
        <pt x="217" y="894" on="0"/>
        <pt x="273" y="950" on="0"/>
        <pt x="349" y="950" on="0"/>
        <pt x="392" y="904" on="0"/>
      </contour>
      <contour>
        <pt x="271" y="852" on="0"/>
        <pt x="293" y="829" on="0"/>
        <pt x="322" y="829" on="0"/>
        <pt x="339" y="845" on="0"/>
        <pt x="339" y="874" on="0"/>
        <pt x="316" y="898" on="0"/>
        <pt x="286" y="898" on="0"/>
        <pt x="276" y="892" on="1"/>
        <pt x="271" y="883" on="0"/>
      </contour>
    </TTGlyph>
    <TTGlyph name="Aring.swash_end" xMin="10" yMin="-250" xMax="913" yMax="950">
      <contour>
        <pt x="500" y="233" on="1"/>
        <pt x="561" y="29" on="0"/>
        <pt x="678" y="-78" on="1"/>
        <pt x="744" y="-137" on="0"/>
        <pt x="813" y="-142" on="1"/>
        <pt x="813" y="-191" on="0"/>
        <pt x="757" y="-250" on="0"/>
        <pt x="709" y="-250" on="1"/>
        <pt x="639" y="-250" on="0"/>
        <pt x="501" y="-116" on="0"/>
        <pt x="402" y="87" on="0"/>
        <pt x="375" y="204" on="1"/>
        <pt x="340" y="192" on="0"/>
        <pt x="237" y="192" on="0"/>
        <pt x="162" y="203" on="1"/>
        <pt x="131" y="82" on="0"/>
        <pt x="131" y="21" on="1"/>
        <pt x="131" y="8" on="0"/>
        <pt x="132" y="2" on="1"/>
        <pt x="119" y="0" on="0"/>
        <pt x="58" y="0" on="0"/>
        <pt x="10" y="39" on="0"/>
        <pt x="10" y="73" on="1"/>
        <pt x="10" y="126" on="0"/>
        <pt x="202" y="611" on="0"/>
        <pt x="224" y="702" on="1"/>
        <pt x="266" y="716" on="0"/>
        <pt x="298" y="716" on="1"/>
        <pt x="352" y="716" on="0"/>
        <pt x="412" y="644" on="0"/>
        <pt x="426" y="576" on="1"/>
        <pt x="456" y="414" on="0"/>
        <pt x="478" y="317" on="1"/>
        <pt x="588" y="330" on="0"/>
        <pt x="659" y="330" on="1"/>
        <pt x="773" y="330" on="0"/>
        <pt x="913" y="244" on="0"/>
        <pt x="913" y="165" on="1"/>
        <pt x="913" y="123" on="0"/>
        <pt x="890" y="87" on="1"/>
        <pt x="883" y="75" on="0"/>
        <pt x="867" y="54" on="1"/>
        <pt x="828" y="146" on="0"/>
        <pt x="678" y="238" on="0"/>
        <pt x="581" y="238" on="1"/>
        <pt x="547" y="238" on="0"/>
      </contour>
      <contour>
        <pt x="185" y="287" on="1"/>
        <pt x="225" y="282" on="0"/>
        <pt x="308" y="282" on="0"/>
        <pt x="355" y="291" on="1"/>
        <pt x="346" y="332" on="0"/>
        <pt x="294" y="605" on="1"/>
        <pt x="232" y="444" on="0"/>
      </contour>
      <contour>
        <pt x="392" y="830" on="0"/>
        <pt x="334" y="776" on="0"/>
        <pt x="261" y="776" on="0"/>
        <pt x="217" y="819" on="0"/>
        <pt x="217" y="894" on="0"/>
        <pt x="273" y="950" on="0"/>
        <pt x="349" y="950" on="0"/>
        <pt x="392" y="904" on="0"/>
      </contour>
      <contour>
        <pt x="271" y="852" on="0"/>
        <pt x="293" y="829" on="0"/>
        <pt x="322" y="829" on="0"/>
        <pt x="339" y="845" on="0"/>
        <pt x="339" y="874" on="0"/>
        <pt x="316" y="898" on="0"/>
        <pt x="286" y="898" on="0"/>
        <pt x="276" y="892" on="1"/>
        <pt x="271" y="883" on="0"/>
      </contour>
    </TTGlyph>
    <TTGlyph name="Aring.swash_ini" xMin="10" yMin="-250" xMax="1146" yMax="950">
      <contour>
        <pt x="627" y="605" on="1"/>
        <pt x="554" y="409" on="0"/>
        <pt x="516" y="285" on="1"/>
        <pt x="557" y="282" on="0"/>
        <pt x="642" y="282" on="0"/>
        <pt x="688" y="291" on="1"/>
        <pt x="679" y="332" on="0"/>
      </contour>
      <contour>
        <pt x="708" y="205" on="1"/>
        <pt x="670" y="192" on="0"/>
        <pt x="563" y="192" on="0"/>
        <pt x="493" y="200" on="1"/>
        <pt x="464" y="90" on="0"/>
        <pt x="464" y="21" on="1"/>
        <pt x="464" y="8" on="0"/>
        <pt x="465" y="2" on="1"/>
        <pt x="452" y="0" on="0"/>
        <pt x="390" y="0" on="0"/>
        <pt x="343" y="39" on="0"/>
        <pt x="343" y="113" on="0"/>
        <pt x="381" y="219" on="1"/>
        <pt x="151" y="269" on="0"/>
        <pt x="62" y="352" on="1"/>
        <pt x="10" y="400" on="0"/>
        <pt x="10" y="465" on="1"/>
        <pt x="10" y="508" on="0"/>
        <pt x="60" y="583" on="0"/>
        <pt x="100" y="602" on="1"/>
        <pt x="106" y="473" on="0"/>
        <pt x="278" y="327" on="0"/>
        <pt x="412" y="299" on="1"/>
        <pt x="439" y="364" on="0"/>
        <pt x="483" y="480" on="1"/>
        <pt x="539" y="629" on="0"/>
        <pt x="557" y="702" on="1"/>
        <pt x="599" y="716" on="0"/>
        <pt x="633" y="716" on="1"/>
        <pt x="685" y="716" on="0"/>
        <pt x="743" y="643" on="0"/>
        <pt x="766" y="545" on="0"/>
        <pt x="784" y="456" on="1"/>
        <pt x="825" y="246" on="0"/>
        <pt x="857" y="164" on="1"/>
        <pt x="907" y="35" on="0"/>
        <pt x="1055" y="-132" on="0"/>
        <pt x="1146" y="-142" on="1"/>
        <pt x="1146" y="-191" on="0"/>
        <pt x="1090" y="-250" on="0"/>
        <pt x="1038" y="-250" on="1"/>
        <pt x="970" y="-250" on="0"/>
        <pt x="834" y="-114" on="0"/>
        <pt x="734" y="91" on="0"/>
      </contour>
      <contour>
        <pt x="725" y="830" on="0"/>
        <pt x="667" y="776" on="0"/>
        <pt x="594" y="776" on="0"/>
        <pt x="550" y="819" on="0"/>
        <pt x="550" y="894" on="0"/>
        <pt x="606" y="950" on="0"/>
        <pt x="682" y="950" on="0"/>
        <pt x="725" y="904" on="0"/>
      </contour>
      <contour>
        <pt x="604" y="852" on="0"/>
        <pt x="626" y="829" on="0"/>
        <pt x="655" y="829" on="0"/>
        <pt x="672" y="845" on="0"/>
        <pt x="672" y="874" on="0"/>
        <pt x="649" y="898" on="0"/>
        <pt x="620" y="898" on="0"/>
        <pt x="609" y="892" on="1"/>
        <pt x="604" y="883" on="0"/>
      </contour>
    </TTGlyph>
    <TTGlyph name="Atilde" xMin="10" yMin="-6" xMax="610" yMax="901">
      <contour>
        <pt x="224" y="702" on="1"/>
        <pt x="266" y="716" on="0"/>
        <pt x="300" y="716" on="1"/>
        <pt x="352" y="716" on="0"/>
        <pt x="410" y="643" on="0"/>
        <pt x="426" y="576" on="1"/>
        <pt x="431" y="556" on="0"/>
        <pt x="462" y="420" on="0"/>
        <pt x="472" y="378" on="1"/>
        <pt x="503" y="247" on="0"/>
        <pt x="554" y="103" on="0"/>
        <pt x="610" y="60" on="1"/>
        <pt x="598" y="30" on="0"/>
        <pt x="543" y="-6" on="0"/>
        <pt x="511" y="-6" on="1"/>
        <pt x="438" y="-6" on="0"/>
        <pt x="404" y="104" on="1"/>
        <pt x="388" y="155" on="0"/>
        <pt x="375" y="204" on="1"/>
        <pt x="340" y="192" on="0"/>
        <pt x="237" y="192" on="0"/>
        <pt x="162" y="203" on="1"/>
        <pt x="131" y="82" on="0"/>
        <pt x="131" y="21" on="1"/>
        <pt x="131" y="8" on="0"/>
        <pt x="132" y="2" on="1"/>
        <pt x="119" y="0" on="0"/>
        <pt x="57" y="0" on="0"/>
        <pt x="10" y="39" on="0"/>
        <pt x="10" y="75" on="1"/>
        <pt x="10" y="125" on="0"/>
        <pt x="202" y="611" on="0"/>
      </contour>
      <contour>
        <pt x="185" y="287" on="1"/>
        <pt x="225" y="282" on="0"/>
        <pt x="308" y="282" on="0"/>
        <pt x="355" y="291" on="1"/>
        <pt x="346" y="332" on="0"/>
        <pt x="294" y="605" on="1"/>
        <pt x="232" y="444" on="0"/>
      </contour>
      <contour>
        <pt x="484" y="901" on="1"/>
        <pt x="494" y="882" on="0"/>
        <pt x="494" y="829" on="0"/>
        <pt x="444" y="782" on="0"/>
        <pt x="379" y="782" on="0"/>
        <pt x="246" y="821" on="0"/>
        <pt x="169" y="821" on="0"/>
        <pt x="140" y="791" on="1"/>
        <pt x="130" y="810" on="0"/>
        <pt x="130" y="859" on="0"/>
        <pt x="184" y="900" on="0"/>
        <pt x="262" y="900" on="0"/>
        <pt x="379" y="871" on="0"/>
        <pt x="455" y="871" on="0"/>
      </contour>
    </TTGlyph>
    <TTGlyph name="Atilde.end" xMin="10" yMin="-6" xMax="913" yMax="901">
      <contour>
        <pt x="484" y="901" on="1"/>
        <pt x="494" y="882" on="0"/>
        <pt x="494" y="829" on="0"/>
        <pt x="444" y="782" on="0"/>
        <pt x="379" y="782" on="0"/>
        <pt x="246" y="821" on="0"/>
        <pt x="169" y="821" on="0"/>
        <pt x="140" y="791" on="1"/>
        <pt x="130" y="810" on="0"/>
        <pt x="130" y="859" on="0"/>
        <pt x="184" y="900" on="0"/>
        <pt x="262" y="900" on="0"/>
        <pt x="379" y="871" on="0"/>
        <pt x="455" y="871" on="0"/>
      </contour>
      <contour>
        <pt x="224" y="702" on="1"/>
        <pt x="266" y="716" on="0"/>
        <pt x="300" y="716" on="1"/>
        <pt x="352" y="716" on="0"/>
        <pt x="410" y="643" on="0"/>
        <pt x="426" y="576" on="1"/>
        <pt x="427" y="573" on="0"/>
        <pt x="472" y="373" on="0"/>
        <pt x="486" y="318" on="1"/>
        <pt x="584" y="330" on="0"/>
        <pt x="715" y="330" on="0"/>
        <pt x="796" y="313" on="0"/>
        <pt x="869" y="275" on="0"/>
        <pt x="913" y="205" on="0"/>
        <pt x="913" y="113" on="0"/>
        <pt x="867" y="54" on="1"/>
        <pt x="829" y="145" on="0"/>
        <pt x="679" y="238" on="0"/>
        <pt x="585" y="238" on="1"/>
        <pt x="552" y="238" on="0"/>
        <pt x="510" y="233" on="1"/>
        <pt x="522" y="193" on="0"/>
        <pt x="529" y="175" on="1"/>
        <pt x="554" y="103" on="0"/>
        <pt x="610" y="60" on="1"/>
        <pt x="598" y="30" on="0"/>
        <pt x="543" y="-6" on="0"/>
        <pt x="511" y="-6" on="1"/>
        <pt x="438" y="-6" on="0"/>
        <pt x="404" y="104" on="1"/>
        <pt x="388" y="155" on="0"/>
        <pt x="375" y="204" on="1"/>
        <pt x="340" y="192" on="0"/>
        <pt x="237" y="192" on="0"/>
        <pt x="162" y="203" on="1"/>
        <pt x="131" y="82" on="0"/>
        <pt x="131" y="21" on="1"/>
        <pt x="131" y="8" on="0"/>
        <pt x="132" y="2" on="1"/>
        <pt x="119" y="0" on="0"/>
        <pt x="57" y="0" on="0"/>
        <pt x="10" y="39" on="0"/>
        <pt x="10" y="75" on="1"/>
        <pt x="10" y="125" on="0"/>
        <pt x="202" y="611" on="0"/>
      </contour>
      <contour>
        <pt x="185" y="287" on="1"/>
        <pt x="225" y="282" on="0"/>
        <pt x="308" y="282" on="0"/>
        <pt x="355" y="291" on="1"/>
        <pt x="346" y="332" on="0"/>
        <pt x="294" y="605" on="1"/>
        <pt x="232" y="444" on="0"/>
      </contour>
    </TTGlyph>
    <TTGlyph name="Atilde.ini" xMin="10" yMin="-6" xMax="943" yMax="901">
      <contour>
        <pt x="817" y="901" on="1"/>
        <pt x="827" y="882" on="0"/>
        <pt x="827" y="829" on="0"/>
        <pt x="777" y="782" on="0"/>
        <pt x="712" y="782" on="0"/>
        <pt x="579" y="821" on="0"/>
        <pt x="502" y="821" on="0"/>
        <pt x="473" y="791" on="1"/>
        <pt x="463" y="810" on="0"/>
        <pt x="463" y="859" on="0"/>
        <pt x="517" y="900" on="0"/>
        <pt x="595" y="900" on="0"/>
        <pt x="712" y="871" on="0"/>
        <pt x="788" y="871" on="0"/>
      </contour>
      <contour>
        <pt x="390" y="0" on="0"/>
        <pt x="343" y="39" on="0"/>
        <pt x="343" y="113" on="0"/>
        <pt x="381" y="219" on="1"/>
        <pt x="151" y="269" on="0"/>
        <pt x="62" y="352" on="1"/>
        <pt x="10" y="400" on="0"/>
        <pt x="10" y="465" on="1"/>
        <pt x="10" y="508" on="0"/>
        <pt x="60" y="583" on="0"/>
        <pt x="100" y="602" on="1"/>
        <pt x="106" y="473" on="0"/>
        <pt x="278" y="327" on="0"/>
        <pt x="412" y="299" on="1"/>
        <pt x="439" y="364" on="0"/>
        <pt x="483" y="480" on="1"/>
        <pt x="539" y="629" on="0"/>
        <pt x="557" y="702" on="1"/>
        <pt x="599" y="716" on="0"/>
        <pt x="633" y="716" on="1"/>
        <pt x="685" y="716" on="0"/>
        <pt x="743" y="643" on="0"/>
        <pt x="759" y="576" on="1"/>
        <pt x="764" y="556" on="0"/>
        <pt x="795" y="420" on="0"/>
        <pt x="805" y="378" on="1"/>
        <pt x="836" y="247" on="0"/>
        <pt x="887" y="103" on="0"/>
        <pt x="943" y="60" on="1"/>
        <pt x="931" y="30" on="0"/>
        <pt x="876" y="-6" on="0"/>
        <pt x="844" y="-6" on="1"/>
        <pt x="771" y="-6" on="0"/>
        <pt x="737" y="104" on="1"/>
        <pt x="721" y="155" on="0"/>
        <pt x="708" y="204" on="1"/>
        <pt x="673" y="192" on="0"/>
        <pt x="563" y="192" on="0"/>
        <pt x="493" y="200" on="1"/>
        <pt x="464" y="90" on="0"/>
        <pt x="464" y="21" on="1"/>
        <pt x="464" y="8" on="0"/>
        <pt x="465" y="2" on="1"/>
        <pt x="452" y="0" on="0"/>
      </contour>
      <contour>
        <pt x="627" y="605" on="1"/>
        <pt x="554" y="409" on="0"/>
        <pt x="516" y="285" on="1"/>
        <pt x="557" y="282" on="0"/>
        <pt x="642" y="282" on="0"/>
        <pt x="688" y="291" on="1"/>
        <pt x="679" y="332" on="0"/>
      </contour>
    </TTGlyph>
    <TTGlyph name="Atilde.swash" xMin="10" yMin="-250" xMax="813" yMax="901">
      <contour>
        <pt x="185" y="287" on="1"/>
        <pt x="225" y="282" on="0"/>
        <pt x="308" y="282" on="0"/>
        <pt x="355" y="291" on="1"/>
        <pt x="346" y="332" on="0"/>
        <pt x="294" y="605" on="1"/>
        <pt x="232" y="444" on="0"/>
      </contour>
      <contour>
        <pt x="375" y="205" on="1"/>
        <pt x="341" y="192" on="0"/>
        <pt x="237" y="192" on="0"/>
        <pt x="162" y="203" on="1"/>
        <pt x="131" y="82" on="0"/>
        <pt x="131" y="21" on="1"/>
        <pt x="131" y="8" on="0"/>
        <pt x="132" y="2" on="1"/>
        <pt x="119" y="0" on="0"/>
        <pt x="57" y="0" on="0"/>
        <pt x="10" y="39" on="0"/>
        <pt x="10" y="75" on="1"/>
        <pt x="10" y="125" on="0"/>
        <pt x="202" y="611" on="0"/>
        <pt x="224" y="702" on="1"/>
        <pt x="266" y="716" on="0"/>
        <pt x="300" y="716" on="1"/>
        <pt x="352" y="716" on="0"/>
        <pt x="410" y="643" on="0"/>
        <pt x="433" y="545" on="0"/>
        <pt x="450" y="456" on="1"/>
        <pt x="492" y="246" on="0"/>
        <pt x="524" y="164" on="1"/>
        <pt x="574" y="35" on="0"/>
        <pt x="722" y="-132" on="0"/>
        <pt x="813" y="-142" on="1"/>
        <pt x="813" y="-191" on="0"/>
        <pt x="757" y="-250" on="0"/>
        <pt x="705" y="-250" on="1"/>
        <pt x="637" y="-250" on="0"/>
        <pt x="501" y="-114" on="0"/>
        <pt x="401" y="91" on="0"/>
      </contour>
      <contour>
        <pt x="484" y="901" on="1"/>
        <pt x="494" y="882" on="0"/>
        <pt x="494" y="829" on="0"/>
        <pt x="444" y="782" on="0"/>
        <pt x="379" y="782" on="0"/>
        <pt x="246" y="821" on="0"/>
        <pt x="169" y="821" on="0"/>
        <pt x="140" y="791" on="1"/>
        <pt x="130" y="810" on="0"/>
        <pt x="130" y="859" on="0"/>
        <pt x="184" y="900" on="0"/>
        <pt x="262" y="900" on="0"/>
        <pt x="379" y="871" on="0"/>
        <pt x="455" y="871" on="0"/>
      </contour>
    </TTGlyph>
    <TTGlyph name="Atilde.swash_end" xMin="10" yMin="-250" xMax="913" yMax="901">
      <contour>
        <pt x="500" y="233" on="1"/>
        <pt x="561" y="29" on="0"/>
        <pt x="678" y="-78" on="1"/>
        <pt x="744" y="-137" on="0"/>
        <pt x="813" y="-142" on="1"/>
        <pt x="813" y="-191" on="0"/>
        <pt x="757" y="-250" on="0"/>
        <pt x="709" y="-250" on="1"/>
        <pt x="639" y="-250" on="0"/>
        <pt x="501" y="-116" on="0"/>
        <pt x="402" y="87" on="0"/>
        <pt x="375" y="204" on="1"/>
        <pt x="340" y="192" on="0"/>
        <pt x="237" y="192" on="0"/>
        <pt x="162" y="203" on="1"/>
        <pt x="131" y="82" on="0"/>
        <pt x="131" y="21" on="1"/>
        <pt x="131" y="8" on="0"/>
        <pt x="132" y="2" on="1"/>
        <pt x="119" y="0" on="0"/>
        <pt x="58" y="0" on="0"/>
        <pt x="10" y="39" on="0"/>
        <pt x="10" y="73" on="1"/>
        <pt x="10" y="126" on="0"/>
        <pt x="202" y="611" on="0"/>
        <pt x="224" y="702" on="1"/>
        <pt x="266" y="716" on="0"/>
        <pt x="298" y="716" on="1"/>
        <pt x="352" y="716" on="0"/>
        <pt x="412" y="644" on="0"/>
        <pt x="426" y="576" on="1"/>
        <pt x="456" y="414" on="0"/>
        <pt x="478" y="317" on="1"/>
        <pt x="588" y="330" on="0"/>
        <pt x="659" y="330" on="1"/>
        <pt x="773" y="330" on="0"/>
        <pt x="913" y="244" on="0"/>
        <pt x="913" y="165" on="1"/>
        <pt x="913" y="123" on="0"/>
        <pt x="890" y="87" on="1"/>
        <pt x="883" y="75" on="0"/>
        <pt x="867" y="54" on="1"/>
        <pt x="828" y="146" on="0"/>
        <pt x="678" y="238" on="0"/>
        <pt x="581" y="238" on="1"/>
        <pt x="547" y="238" on="0"/>
      </contour>
      <contour>
        <pt x="185" y="287" on="1"/>
        <pt x="225" y="282" on="0"/>
        <pt x="308" y="282" on="0"/>
        <pt x="355" y="291" on="1"/>
        <pt x="346" y="332" on="0"/>
        <pt x="294" y="605" on="1"/>
        <pt x="232" y="444" on="0"/>
      </contour>
      <contour>
        <pt x="484" y="901" on="1"/>
        <pt x="494" y="882" on="0"/>
        <pt x="494" y="829" on="0"/>
        <pt x="444" y="782" on="0"/>
        <pt x="379" y="782" on="0"/>
        <pt x="246" y="821" on="0"/>
        <pt x="169" y="821" on="0"/>
        <pt x="140" y="791" on="1"/>
        <pt x="130" y="810" on="0"/>
        <pt x="130" y="859" on="0"/>
        <pt x="184" y="900" on="0"/>
        <pt x="262" y="900" on="0"/>
        <pt x="379" y="871" on="0"/>
        <pt x="455" y="871" on="0"/>
      </contour>
    </TTGlyph>
    <TTGlyph name="Atilde.swash_ini" xMin="10" yMin="-250" xMax="1146" yMax="901">
      <contour>
        <pt x="627" y="605" on="1"/>
        <pt x="554" y="409" on="0"/>
        <pt x="516" y="285" on="1"/>
        <pt x="557" y="282" on="0"/>
        <pt x="642" y="282" on="0"/>
        <pt x="688" y="291" on="1"/>
        <pt x="679" y="332" on="0"/>
      </contour>
      <contour>
        <pt x="708" y="205" on="1"/>
        <pt x="670" y="192" on="0"/>
        <pt x="563" y="192" on="0"/>
        <pt x="493" y="200" on="1"/>
        <pt x="464" y="90" on="0"/>
        <pt x="464" y="21" on="1"/>
        <pt x="464" y="8" on="0"/>
        <pt x="465" y="2" on="1"/>
        <pt x="452" y="0" on="0"/>
        <pt x="390" y="0" on="0"/>
        <pt x="343" y="39" on="0"/>
        <pt x="343" y="113" on="0"/>
        <pt x="381" y="219" on="1"/>
        <pt x="151" y="269" on="0"/>
        <pt x="62" y="352" on="1"/>
        <pt x="10" y="400" on="0"/>
        <pt x="10" y="465" on="1"/>
        <pt x="10" y="508" on="0"/>
        <pt x="60" y="583" on="0"/>
        <pt x="100" y="602" on="1"/>
        <pt x="106" y="473" on="0"/>
        <pt x="278" y="327" on="0"/>
        <pt x="412" y="299" on="1"/>
        <pt x="439" y="364" on="0"/>
        <pt x="483" y="480" on="1"/>
        <pt x="539" y="629" on="0"/>
        <pt x="557" y="702" on="1"/>
        <pt x="599" y="716" on="0"/>
        <pt x="633" y="716" on="1"/>
        <pt x="685" y="716" on="0"/>
        <pt x="743" y="643" on="0"/>
        <pt x="766" y="545" on="0"/>
        <pt x="784" y="456" on="1"/>
        <pt x="825" y="246" on="0"/>
        <pt x="857" y="164" on="1"/>
        <pt x="907" y="35" on="0"/>
        <pt x="1055" y="-132" on="0"/>
        <pt x="1146" y="-142" on="1"/>
        <pt x="1146" y="-191" on="0"/>
        <pt x="1090" y="-250" on="0"/>
        <pt x="1038" y="-250" on="1"/>
        <pt x="970" y="-250" on="0"/>
        <pt x="834" y="-114" on="0"/>
        <pt x="734" y="91" on="0"/>
      </contour>
      <contour>
        <pt x="817" y="901" on="1"/>
        <pt x="827" y="882" on="0"/>
        <pt x="827" y="829" on="0"/>
        <pt x="777" y="782" on="0"/>
        <pt x="712" y="782" on="0"/>
        <pt x="579" y="821" on="0"/>
        <pt x="502" y="821" on="0"/>
        <pt x="473" y="791" on="1"/>
        <pt x="463" y="810" on="0"/>
        <pt x="463" y="859" on="0"/>
        <pt x="517" y="900" on="0"/>
        <pt x="595" y="900" on="0"/>
        <pt x="712" y="871" on="0"/>
        <pt x="788" y="871" on="0"/>
      </contour>
    </TTGlyph>
    <TTGlyph name="B" xMin="60" yMin="-6" xMax="596" yMax="716">
      <contour>
        <pt x="66" y="678" on="1"/>
        <pt x="210" y="716" on="0"/>
        <pt x="317" y="716" on="1"/>
        <pt x="546" y="716" on="0"/>
        <pt x="546" y="557" on="1"/>
        <pt x="546" y="460" on="0"/>
        <pt x="455" y="409" on="1"/>
        <pt x="516" y="394" on="0"/>
        <pt x="596" y="309" on="0"/>
        <pt x="596" y="245" on="1"/>
        <pt x="596" y="125" on="0"/>
        <pt x="418" y="-6" on="0"/>
        <pt x="156" y="-6" on="0"/>
        <pt x="60" y="46" on="1"/>
        <pt x="91" y="154" on="0"/>
        <pt x="91" y="521" on="0"/>
      </contour>
      <contour>
        <pt x="217" y="102" on="1"/>
        <pt x="261" y="88" on="0"/>
        <pt x="305" y="88" on="1"/>
        <pt x="374" y="88" on="0"/>
        <pt x="464" y="157" on="0"/>
        <pt x="464" y="220" on="1"/>
        <pt x="464" y="340" on="0"/>
        <pt x="334" y="340" on="1"/>
        <pt x="272" y="340" on="0"/>
        <pt x="208" y="314" on="1"/>
        <pt x="208" y="213" on="0"/>
      </contour>
      <contour>
        <pt x="207" y="402" on="1"/>
        <pt x="221" y="405" on="0"/>
        <pt x="276" y="413" on="0"/>
        <pt x="306" y="419" on="0"/>
        <pt x="351" y="431" on="0"/>
        <pt x="376" y="448" on="0"/>
        <pt x="389" y="461" on="1"/>
        <pt x="414" y="486" on="0"/>
        <pt x="414" y="534" on="1"/>
        <pt x="414" y="627" on="0"/>
        <pt x="303" y="627" on="1"/>
        <pt x="267" y="627" on="0"/>
        <pt x="215" y="615" on="1"/>
        <pt x="207" y="410" on="0"/>
      </contour>
    </TTGlyph>
    <TTGlyph name="B.ini" xMin="60" yMin="-6" xMax="1048" yMax="716">
      <contour>
        <pt x="531" y="586" on="1"/>
        <pt x="160" y="481" on="0"/>
        <pt x="131" y="248" on="1"/>
        <pt x="100" y="260" on="0"/>
        <pt x="60" y="323" on="0"/>
        <pt x="60" y="357" on="1"/>
        <pt x="60" y="424" on="0"/>
        <pt x="164" y="543" on="0"/>
        <pt x="326" y="626" on="0"/>
        <pt x="424" y="656" on="1"/>
        <pt x="614" y="716" on="0"/>
        <pt x="776" y="716" on="1"/>
        <pt x="876" y="716" on="0"/>
        <pt x="998" y="641" on="0"/>
        <pt x="998" y="557" on="1"/>
        <pt x="998" y="460" on="0"/>
        <pt x="907" y="409" on="1"/>
        <pt x="968" y="394" on="0"/>
        <pt x="1048" y="309" on="0"/>
        <pt x="1048" y="245" on="1"/>
        <pt x="1048" y="125" on="0"/>
        <pt x="870" y="-6" on="0"/>
        <pt x="608" y="-6" on="0"/>
        <pt x="512" y="46" on="1"/>
        <pt x="543" y="154" on="0"/>
        <pt x="543" y="472" on="0"/>
      </contour>
      <contour>
        <pt x="669" y="102" on="1"/>
        <pt x="713" y="88" on="0"/>
        <pt x="757" y="88" on="1"/>
        <pt x="826" y="88" on="0"/>
        <pt x="916" y="157" on="0"/>
        <pt x="916" y="220" on="1"/>
        <pt x="916" y="340" on="0"/>
        <pt x="786" y="340" on="1"/>
        <pt x="724" y="340" on="0"/>
        <pt x="660" y="314" on="1"/>
        <pt x="660" y="213" on="0"/>
      </contour>
      <contour>
        <pt x="659" y="402" on="1"/>
        <pt x="673" y="405" on="0"/>
        <pt x="728" y="413" on="0"/>
        <pt x="758" y="419" on="0"/>
        <pt x="803" y="431" on="0"/>
        <pt x="828" y="448" on="0"/>
        <pt x="841" y="461" on="1"/>
        <pt x="866" y="486" on="0"/>
        <pt x="866" y="534" on="1"/>
        <pt x="866" y="627" on="0"/>
        <pt x="755" y="627" on="1"/>
        <pt x="706" y="627" on="0"/>
        <pt x="667" y="618" on="1"/>
        <pt x="659" y="413" on="0"/>
      </contour>
    </TTGlyph>
    <TTGlyph name="B.swash" xMin="-319" yMin="-249" xMax="666" yMax="716">
      <contour>
        <pt x="207" y="382" on="1"/>
        <pt x="220" y="385" on="0"/>
        <pt x="276" y="394" on="0"/>
        <pt x="305" y="401" on="0"/>
        <pt x="351" y="415" on="0"/>
        <pt x="376" y="434" on="0"/>
        <pt x="389" y="449" on="1"/>
        <pt x="414" y="478" on="0"/>
        <pt x="414" y="583" on="0"/>
        <pt x="354" y="627" on="0"/>
        <pt x="267" y="627" on="0"/>
        <pt x="215" y="615" on="1"/>
        <pt x="207" y="388" on="0"/>
      </contour>
      <contour>
        <pt x="91" y="370" on="1"/>
        <pt x="90" y="532" on="0"/>
        <pt x="66" y="678" on="1"/>
        <pt x="210" y="716" on="0"/>
        <pt x="317" y="716" on="1"/>
        <pt x="546" y="716" on="0"/>
        <pt x="546" y="557" on="1"/>
        <pt x="546" y="447" on="0"/>
        <pt x="455" y="389" on="1"/>
        <pt x="543" y="367" on="0"/>
        <pt x="666" y="225" on="0"/>
        <pt x="666" y="11" on="0"/>
        <pt x="514" y="-163" on="0"/>
        <pt x="271" y="-249" on="0"/>
        <pt x="126" y="-249" on="1"/>
        <pt x="-37" y="-249" on="0"/>
        <pt x="-169" y="-202" on="1"/>
        <pt x="-237" y="-177" on="0"/>
        <pt x="-319" y="-84" on="0"/>
        <pt x="-319" y="41" on="0"/>
        <pt x="-275" y="72" on="1"/>
        <pt x="-257" y="-2" on="0"/>
        <pt x="-184" y="-54" on="1"/>
        <pt x="-51" y="-150" on="0"/>
        <pt x="173" y="-150" on="1"/>
        <pt x="384" y="-150" on="0"/>
        <pt x="481" y="-40" on="1"/>
        <pt x="534" y="20" on="0"/>
        <pt x="534" y="214" on="0"/>
        <pt x="427" y="320" on="0"/>
        <pt x="334" y="320" on="1"/>
        <pt x="272" y="320" on="0"/>
        <pt x="208" y="294" on="1"/>
        <pt x="210" y="108" on="0"/>
        <pt x="228" y="12" on="1"/>
        <pt x="196" y="0" on="0"/>
        <pt x="124" y="0" on="0"/>
        <pt x="71" y="46" on="0"/>
        <pt x="71" y="122" on="0"/>
        <pt x="91" y="313" on="0"/>
      </contour>
    </TTGlyph>
    <TTGlyph name="C" xMin="25" yMin="-12" xMax="592" yMax="722">
      <contour>
        <pt x="364" y="722" on="1"/>
        <pt x="451" y="722" on="0"/>
        <pt x="581" y="620" on="0"/>
        <pt x="581" y="539" on="1"/>
        <pt x="581" y="496" on="0"/>
        <pt x="533" y="440" on="0"/>
        <pt x="463" y="440" on="0"/>
        <pt x="442" y="449" on="1"/>
        <pt x="445" y="465" on="0"/>
        <pt x="445" y="483" on="1"/>
        <pt x="444" y="546" on="0"/>
        <pt x="384" y="625" on="0"/>
        <pt x="269" y="625" on="0"/>
        <pt x="220" y="588" on="1"/>
        <pt x="191" y="546" on="0"/>
        <pt x="159" y="410" on="0"/>
        <pt x="159" y="344" on="1"/>
        <pt x="159" y="234" on="0"/>
        <pt x="244" y="85" on="0"/>
        <pt x="334" y="85" on="1"/>
        <pt x="417" y="85" on="0"/>
        <pt x="446" y="148" on="1"/>
        <pt x="473" y="203" on="0"/>
        <pt x="473" y="294" on="1"/>
        <pt x="524" y="294" on="0"/>
        <pt x="592" y="257" on="0"/>
        <pt x="592" y="215" on="1"/>
        <pt x="592" y="117" on="0"/>
        <pt x="420" y="-12" on="0"/>
        <pt x="312" y="-12" on="1"/>
        <pt x="171" y="-12" on="0"/>
        <pt x="25" y="175" on="0"/>
        <pt x="25" y="495" on="0"/>
        <pt x="208" y="722" on="0"/>
      </contour>
    </TTGlyph>
    <TTGlyph name="C.swash" xMin="25" yMin="-250" xMax="699" yMax="724">
      <contour>
        <pt x="554" y="381" on="1"/>
        <pt x="558" y="402" on="0"/>
        <pt x="558" y="423" on="1"/>
        <pt x="558" y="513" on="0"/>
        <pt x="489" y="627" on="0"/>
        <pt x="420" y="627" on="1"/>
        <pt x="380" y="627" on="0"/>
        <pt x="290" y="588" on="0"/>
        <pt x="257" y="557" on="1"/>
        <pt x="159" y="418" on="0"/>
        <pt x="159" y="206" on="1"/>
        <pt x="159" y="110" on="0"/>
        <pt x="202" y="-35" on="0"/>
        <pt x="238" y="-75" on="1"/>
        <pt x="308" y="-153" on="0"/>
        <pt x="401" y="-153" on="1"/>
        <pt x="466" y="-153" on="0"/>
        <pt x="549" y="-75" on="0"/>
        <pt x="581" y="38" on="0"/>
        <pt x="581" y="112" on="1"/>
        <pt x="639" y="112" on="0"/>
        <pt x="699" y="72" on="0"/>
        <pt x="699" y="21" on="1"/>
        <pt x="699" y="-78" on="0"/>
        <pt x="502" y="-250" on="0"/>
        <pt x="364" y="-250" on="1"/>
        <pt x="256" y="-250" on="0"/>
        <pt x="99" y="-129" on="0"/>
        <pt x="25" y="62" on="0"/>
        <pt x="25" y="320" on="0"/>
        <pt x="132" y="569" on="0"/>
        <pt x="327" y="724" on="0"/>
        <pt x="446" y="724" on="1"/>
        <pt x="512" y="724" on="0"/>
        <pt x="613" y="676" on="0"/>
        <pt x="640" y="638" on="1"/>
        <pt x="695" y="563" on="0"/>
        <pt x="695" y="482" on="1"/>
        <pt x="695" y="425" on="0"/>
        <pt x="639" y="371" on="0"/>
        <pt x="600" y="371" on="1"/>
        <pt x="584" y="371" on="0"/>
      </contour>
    </TTGlyph>
    <TTGlyph name="Ccedilla" xMin="25" yMin="-250" xMax="592" yMax="722">
      <contour>
        <pt x="278" y="-120" on="1"/>
        <pt x="261" y="-93" on="0"/>
        <pt x="261" y="-32" on="0"/>
        <pt x="276" y="-10" on="1"/>
        <pt x="153" y="2" on="0"/>
        <pt x="25" y="185" on="0"/>
        <pt x="25" y="328" on="1"/>
        <pt x="25" y="495" on="0"/>
        <pt x="208" y="722" on="0"/>
        <pt x="364" y="722" on="1"/>
        <pt x="451" y="722" on="0"/>
        <pt x="581" y="620" on="0"/>
        <pt x="581" y="539" on="1"/>
        <pt x="581" y="496" on="0"/>
        <pt x="533" y="440" on="0"/>
        <pt x="463" y="440" on="0"/>
        <pt x="442" y="449" on="1"/>
        <pt x="445" y="465" on="0"/>
        <pt x="445" y="483" on="1"/>
        <pt x="444" y="546" on="0"/>
        <pt x="384" y="625" on="0"/>
        <pt x="269" y="625" on="0"/>
        <pt x="220" y="588" on="1"/>
        <pt x="191" y="546" on="0"/>
        <pt x="159" y="410" on="0"/>
        <pt x="159" y="344" on="1"/>
        <pt x="159" y="234" on="0"/>
        <pt x="244" y="85" on="0"/>
        <pt x="334" y="85" on="1"/>
        <pt x="417" y="85" on="0"/>
        <pt x="446" y="148" on="1"/>
        <pt x="473" y="203" on="0"/>
        <pt x="473" y="294" on="1"/>
        <pt x="524" y="294" on="0"/>
        <pt x="592" y="257" on="0"/>
        <pt x="592" y="215" on="1"/>
        <pt x="592" y="123" on="0"/>
        <pt x="438" y="-3" on="0"/>
        <pt x="336" y="-11" on="1"/>
        <pt x="317" y="-30" on="0"/>
        <pt x="317" y="-59" on="1"/>
        <pt x="339" y="-49" on="0"/>
        <pt x="399" y="-49" on="0"/>
        <pt x="435" y="-91" on="0"/>
        <pt x="435" y="-126" on="1"/>
        <pt x="435" y="-180" on="0"/>
        <pt x="361" y="-250" on="0"/>
        <pt x="306" y="-250" on="1"/>
        <pt x="271" y="-250" on="0"/>
        <pt x="228" y="-217" on="0"/>
        <pt x="228" y="-184" on="1"/>
        <pt x="228" y="-172" on="0"/>
        <pt x="235" y="-158" on="1"/>
        <pt x="261" y="-174" on="0"/>
        <pt x="320" y="-174" on="0"/>
        <pt x="355" y="-155" on="0"/>
        <pt x="355" y="-138" on="1"/>
        <pt x="355" y="-110" on="0"/>
        <pt x="316" y="-110" on="1"/>
        <pt x="296" y="-110" on="0"/>
      </contour>
    </TTGlyph>
    <TTGlyph name="D" xMin="60" yMin="-6" xMax="626" yMax="716">
      <contour>
        <pt x="60" y="45" on="1"/>
        <pt x="91" y="194" on="0"/>
        <pt x="91" y="514" on="0"/>
        <pt x="66" y="678" on="1"/>
        <pt x="202" y="716" on="0"/>
        <pt x="307" y="716" on="1"/>
        <pt x="463" y="716" on="0"/>
        <pt x="626" y="553" on="0"/>
        <pt x="626" y="221" on="0"/>
        <pt x="441" y="-6" on="0"/>
        <pt x="277" y="-6" on="1"/>
        <pt x="165" y="-6" on="0"/>
      </contour>
      <contour>
        <pt x="215" y="615" on="1"/>
        <pt x="206" y="493" on="0"/>
        <pt x="206" y="264" on="0"/>
        <pt x="217" y="102" on="1"/>
        <pt x="258" y="88" on="0"/>
        <pt x="360" y="88" on="0"/>
        <pt x="435" y="135" on="0"/>
        <pt x="455" y="176" on="1"/>
        <pt x="494" y="254" on="0"/>
        <pt x="494" y="367" on="1"/>
        <pt x="494" y="476" on="0"/>
        <pt x="452" y="547" on="1"/>
        <pt x="406" y="627" on="0"/>
        <pt x="309" y="627" on="1"/>
        <pt x="256" y="627" on="0"/>
      </contour>
    </TTGlyph>
    <TTGlyph name="D.ini" xMin="60" yMin="-6" xMax="1095" yMax="716">
      <contour>
        <pt x="131" y="248" on="1"/>
        <pt x="100" y="260" on="0"/>
        <pt x="60" y="323" on="0"/>
        <pt x="60" y="357" on="1"/>
        <pt x="60" y="424" on="0"/>
        <pt x="164" y="543" on="0"/>
        <pt x="326" y="626" on="0"/>
        <pt x="424" y="656" on="1"/>
        <pt x="614" y="716" on="0"/>
        <pt x="932" y="716" on="0"/>
        <pt x="1095" y="553" on="0"/>
        <pt x="1095" y="221" on="0"/>
        <pt x="910" y="-6" on="0"/>
        <pt x="746" y="-6" on="1"/>
        <pt x="634" y="-6" on="0"/>
        <pt x="529" y="45" on="1"/>
        <pt x="560" y="194" on="0"/>
        <pt x="560" y="476" on="0"/>
        <pt x="548" y="589" on="1"/>
        <pt x="386" y="542" on="0"/>
        <pt x="264" y="456" on="1"/>
        <pt x="203" y="413" on="0"/>
        <pt x="131" y="305" on="0"/>
      </contour>
      <contour>
        <pt x="683" y="619" on="1"/>
        <pt x="675" y="512" on="0"/>
        <pt x="675" y="264" on="0"/>
        <pt x="686" y="102" on="1"/>
        <pt x="727" y="88" on="0"/>
        <pt x="829" y="88" on="0"/>
        <pt x="904" y="135" on="0"/>
        <pt x="924" y="176" on="1"/>
        <pt x="963" y="254" on="0"/>
        <pt x="963" y="367" on="1"/>
        <pt x="963" y="476" on="0"/>
        <pt x="922" y="547" on="1"/>
        <pt x="875" y="627" on="0"/>
        <pt x="778" y="627" on="1"/>
        <pt x="737" y="627" on="0"/>
      </contour>
    </TTGlyph>
    <TTGlyph name="D.swash" xMin="-319" yMin="-249" xMax="686" yMax="716">
      <contour>
        <pt x="490" y="3" on="0"/>
        <pt x="554" y="170" on="0"/>
        <pt x="554" y="347" on="0"/>
        <pt x="526" y="469" on="0"/>
        <pt x="470" y="569" on="0"/>
        <pt x="373" y="627" on="0"/>
        <pt x="257" y="627" on="0"/>
        <pt x="215" y="616" on="1"/>
        <pt x="207" y="493" on="0"/>
        <pt x="207" y="397" on="1"/>
        <pt x="207" y="131" on="0"/>
        <pt x="228" y="12" on="1"/>
        <pt x="196" y="0" on="0"/>
        <pt x="124" y="0" on="0"/>
        <pt x="71" y="46" on="0"/>
        <pt x="71" y="122" on="0"/>
        <pt x="91" y="311" on="0"/>
        <pt x="91" y="368" on="1"/>
        <pt x="91" y="542" on="0"/>
        <pt x="66" y="678" on="1"/>
        <pt x="202" y="716" on="0"/>
        <pt x="307" y="716" on="1"/>
        <pt x="495" y="716" on="0"/>
        <pt x="686" y="510" on="0"/>
        <pt x="686" y="307" on="1"/>
        <pt x="686" y="145" on="0"/>
        <pt x="529" y="-112" on="0"/>
        <pt x="274" y="-249" on="0"/>
        <pt x="126" y="-249" on="1"/>
        <pt x="-37" y="-249" on="0"/>
        <pt x="-169" y="-202" on="1"/>
        <pt x="-237" y="-177" on="0"/>
        <pt x="-319" y="-84" on="0"/>
        <pt x="-319" y="41" on="0"/>
        <pt x="-275" y="72" on="1"/>
        <pt x="-257" y="-2" on="0"/>
        <pt x="-184" y="-54" on="1"/>
        <pt x="-51" y="-150" on="0"/>
        <pt x="173" y="-150" on="1"/>
        <pt x="326" y="-150" on="0"/>
        <pt x="436" y="-48" on="1"/>
      </contour>
    </TTGlyph>
    <TTGlyph name="E" xMin="60" yMin="-6" xMax="523" yMax="722">
      <contour>
        <pt x="511" y="138" on="1"/>
        <pt x="523" y="111" on="0"/>
        <pt x="523" y="43" on="0"/>
        <pt x="476" y="-6" on="0"/>
        <pt x="442" y="-6" on="1"/>
        <pt x="336" y="-6" on="0"/>
        <pt x="110" y="6" on="1"/>
        <pt x="92" y="7" on="0"/>
        <pt x="64" y="28" on="0"/>
        <pt x="64" y="44" on="1"/>
        <pt x="64" y="97" on="0"/>
        <pt x="81" y="349" on="0"/>
        <pt x="81" y="568" on="0"/>
        <pt x="60" y="710" on="1"/>
        <pt x="134" y="704" on="0"/>
        <pt x="384" y="704" on="0"/>
        <pt x="498" y="722" on="1"/>
        <pt x="510" y="700" on="0"/>
        <pt x="510" y="639" on="0"/>
        <pt x="463" y="592" on="0"/>
        <pt x="394" y="592" on="0"/>
        <pt x="243" y="612" on="0"/>
        <pt x="207" y="612" on="1"/>
        <pt x="199" y="511" on="0"/>
        <pt x="198" y="422" on="1"/>
        <pt x="261" y="416" on="0"/>
        <pt x="406" y="416" on="0"/>
        <pt x="458" y="437" on="1"/>
        <pt x="470" y="415" on="0"/>
        <pt x="470" y="354" on="0"/>
        <pt x="423" y="305" on="0"/>
        <pt x="358" y="305" on="0"/>
        <pt x="230" y="330" on="0"/>
        <pt x="197" y="330" on="1"/>
        <pt x="197" y="172" on="0"/>
        <pt x="204" y="98" on="1"/>
        <pt x="252" y="94" on="0"/>
        <pt x="279" y="94" on="1"/>
        <pt x="411" y="94" on="0"/>
      </contour>
    </TTGlyph>
    <TTGlyph name="E.end" xMin="60" yMin="-6" xMax="713" yMax="722">
      <contour>
        <pt x="442" y="-6" on="1"/>
        <pt x="336" y="-6" on="0"/>
        <pt x="110" y="6" on="1"/>
        <pt x="92" y="7" on="0"/>
        <pt x="64" y="28" on="0"/>
        <pt x="64" y="44" on="1"/>
        <pt x="64" y="97" on="0"/>
        <pt x="81" y="348" on="0"/>
        <pt x="81" y="568" on="0"/>
        <pt x="60" y="710" on="1"/>
        <pt x="134" y="704" on="0"/>
        <pt x="384" y="704" on="0"/>
        <pt x="498" y="722" on="1"/>
        <pt x="510" y="700" on="0"/>
        <pt x="510" y="641" on="0"/>
        <pt x="466" y="592" on="0"/>
        <pt x="418" y="592" on="1"/>
        <pt x="397" y="592" on="0"/>
        <pt x="243" y="612" on="0"/>
        <pt x="207" y="612" on="1"/>
        <pt x="199" y="511" on="0"/>
        <pt x="198" y="422" on="1"/>
        <pt x="261" y="416" on="0"/>
        <pt x="406" y="416" on="0"/>
        <pt x="458" y="437" on="1"/>
        <pt x="470" y="415" on="0"/>
        <pt x="470" y="356" on="0"/>
        <pt x="426" y="305" on="0"/>
        <pt x="381" y="305" on="1"/>
        <pt x="359" y="305" on="0"/>
        <pt x="230" y="330" on="0"/>
        <pt x="197" y="330" on="1"/>
        <pt x="197" y="172" on="0"/>
        <pt x="204" y="98" on="1"/>
        <pt x="288" y="91" on="0"/>
        <pt x="358" y="91" on="1"/>
        <pt x="487" y="91" on="0"/>
        <pt x="626" y="161" on="0"/>
        <pt x="655" y="254" on="1"/>
        <pt x="713" y="201" on="0"/>
        <pt x="713" y="134" on="1"/>
        <pt x="713" y="-6" on="0"/>
      </contour>
    </TTGlyph>
    <TTGlyph name="E.ini" xMin="60" yMin="-6" xMax="913" yMax="722">
      <contour>
        <pt x="429" y="431" on="1"/>
        <pt x="457" y="431" on="0"/>
        <pt x="471" y="430" on="1"/>
        <pt x="470" y="562" on="0"/>
        <pt x="450" y="710" on="1"/>
        <pt x="523" y="704" on="0"/>
        <pt x="774" y="704" on="0"/>
        <pt x="888" y="722" on="1"/>
        <pt x="900" y="700" on="0"/>
        <pt x="900" y="641" on="0"/>
        <pt x="856" y="592" on="0"/>
        <pt x="808" y="592" on="1"/>
        <pt x="787" y="592" on="0"/>
        <pt x="633" y="612" on="0"/>
        <pt x="597" y="612" on="1"/>
        <pt x="587" y="450" on="0"/>
        <pt x="586" y="422" on="1"/>
        <pt x="652" y="416" on="0"/>
        <pt x="797" y="416" on="0"/>
        <pt x="848" y="437" on="1"/>
        <pt x="860" y="415" on="0"/>
        <pt x="860" y="351" on="0"/>
        <pt x="812" y="305" on="0"/>
        <pt x="729" y="305" on="0"/>
        <pt x="586" y="332" on="1"/>
        <pt x="586" y="197" on="0"/>
        <pt x="594" y="98" on="1"/>
        <pt x="635" y="94" on="0"/>
        <pt x="677" y="94" on="1"/>
        <pt x="801" y="94" on="0"/>
        <pt x="901" y="138" on="1"/>
        <pt x="913" y="111" on="0"/>
        <pt x="913" y="44" on="0"/>
        <pt x="866" y="-6" on="0"/>
        <pt x="832" y="-6" on="1"/>
        <pt x="726" y="-6" on="0"/>
        <pt x="500" y="6" on="1"/>
        <pt x="482" y="7" on="0"/>
        <pt x="454" y="28" on="0"/>
        <pt x="454" y="44" on="1"/>
        <pt x="454" y="96" on="0"/>
        <pt x="468" y="307" on="0"/>
        <pt x="469" y="345" on="1"/>
        <pt x="452" y="345" on="1"/>
        <pt x="331" y="345" on="0"/>
        <pt x="150" y="240" on="0"/>
        <pt x="118" y="126" on="1"/>
        <pt x="60" y="181" on="0"/>
        <pt x="60" y="249" on="1"/>
        <pt x="60" y="431" on="0"/>
      </contour>
    </TTGlyph>
    <TTGlyph name="E.swash_ini" xMin="60" yMin="-6" xMax="1130" yMax="722">
      <contour>
        <pt x="599" y="711" on="1"/>
        <pt x="887" y="705" on="1"/>
        <pt x="1005" y="705" on="0"/>
        <pt x="1105" y="722" on="1"/>
        <pt x="1117" y="700" on="0"/>
        <pt x="1117" y="639" on="0"/>
        <pt x="1070" y="592" on="0"/>
        <pt x="1001" y="592" on="0"/>
        <pt x="850" y="612" on="0"/>
        <pt x="814" y="612" on="1"/>
        <pt x="806" y="511" on="0"/>
        <pt x="805" y="422" on="1"/>
        <pt x="868" y="416" on="0"/>
        <pt x="1012" y="416" on="0"/>
        <pt x="1065" y="437" on="1"/>
        <pt x="1077" y="415" on="0"/>
        <pt x="1077" y="354" on="0"/>
        <pt x="1030" y="305" on="0"/>
        <pt x="965" y="305" on="0"/>
        <pt x="837" y="330" on="0"/>
        <pt x="804" y="330" on="1"/>
        <pt x="804" y="172" on="0"/>
        <pt x="811" y="98" on="1"/>
        <pt x="859" y="94" on="0"/>
        <pt x="886" y="94" on="1"/>
        <pt x="1018" y="94" on="0"/>
        <pt x="1118" y="138" on="1"/>
        <pt x="1130" y="111" on="0"/>
        <pt x="1130" y="43" on="0"/>
        <pt x="1083" y="-6" on="0"/>
        <pt x="1049" y="-6" on="1"/>
        <pt x="943" y="-6" on="0"/>
        <pt x="717" y="6" on="1"/>
        <pt x="699" y="7" on="0"/>
        <pt x="671" y="28" on="0"/>
        <pt x="671" y="44" on="1"/>
        <pt x="671" y="97" on="0"/>
        <pt x="688" y="349" on="0"/>
        <pt x="688" y="526" on="0"/>
        <pt x="678" y="619" on="1"/>
        <pt x="624" y="619" on="1"/>
        <pt x="331" y="619" on="0"/>
        <pt x="199" y="514" on="1"/>
        <pt x="145" y="471" on="0"/>
        <pt x="113" y="408" on="1"/>
        <pt x="60" y="450" on="0"/>
        <pt x="60" y="561" on="0"/>
        <pt x="140" y="637" on="0"/>
        <pt x="255" y="679" on="0"/>
        <pt x="334" y="692" on="1"/>
        <pt x="456" y="711" on="0"/>
      </contour>
    </TTGlyph>
    <TTGlyph name="Eacute" xMin="60" yMin="-6" xMax="523" yMax="950">
      <contour>
        <pt x="511" y="138" on="1"/>
        <pt x="523" y="111" on="0"/>
        <pt x="523" y="43" on="0"/>
        <pt x="476" y="-6" on="0"/>
        <pt x="442" y="-6" on="1"/>
        <pt x="336" y="-6" on="0"/>
        <pt x="110" y="6" on="1"/>
        <pt x="92" y="7" on="0"/>
        <pt x="64" y="28" on="0"/>
        <pt x="64" y="44" on="1"/>
        <pt x="64" y="97" on="0"/>
        <pt x="81" y="349" on="0"/>
        <pt x="81" y="568" on="0"/>
        <pt x="60" y="710" on="1"/>
        <pt x="134" y="704" on="0"/>
        <pt x="384" y="704" on="0"/>
        <pt x="498" y="722" on="1"/>
        <pt x="510" y="700" on="0"/>
        <pt x="510" y="639" on="0"/>
        <pt x="463" y="592" on="0"/>
        <pt x="394" y="592" on="0"/>
        <pt x="243" y="612" on="0"/>
        <pt x="207" y="612" on="1"/>
        <pt x="199" y="511" on="0"/>
        <pt x="198" y="422" on="1"/>
        <pt x="261" y="416" on="0"/>
        <pt x="406" y="416" on="0"/>
        <pt x="458" y="437" on="1"/>
        <pt x="470" y="415" on="0"/>
        <pt x="470" y="354" on="0"/>
        <pt x="423" y="305" on="0"/>
        <pt x="358" y="305" on="0"/>
        <pt x="230" y="330" on="0"/>
        <pt x="197" y="330" on="1"/>
        <pt x="197" y="172" on="0"/>
        <pt x="204" y="98" on="1"/>
        <pt x="252" y="94" on="0"/>
        <pt x="279" y="94" on="1"/>
        <pt x="411" y="94" on="0"/>
      </contour>
      <contour>
        <pt x="235" y="810" on="1"/>
        <pt x="325" y="860" on="0"/>
        <pt x="374" y="950" on="1"/>
        <pt x="414" y="950" on="0"/>
        <pt x="469" y="921" on="0"/>
        <pt x="469" y="893" on="1"/>
        <pt x="469" y="853" on="0"/>
        <pt x="320" y="772" on="0"/>
        <pt x="276" y="772" on="1"/>
        <pt x="243" y="772" on="0"/>
      </contour>
    </TTGlyph>
    <TTGlyph name="Eacute.end" xMin="60" yMin="-6" xMax="713" yMax="950">
      <contour>
        <pt x="442" y="-6" on="1"/>
        <pt x="336" y="-6" on="0"/>
        <pt x="110" y="6" on="1"/>
        <pt x="92" y="7" on="0"/>
        <pt x="64" y="28" on="0"/>
        <pt x="64" y="44" on="1"/>
        <pt x="64" y="97" on="0"/>
        <pt x="81" y="348" on="0"/>
        <pt x="81" y="568" on="0"/>
        <pt x="60" y="710" on="1"/>
        <pt x="134" y="704" on="0"/>
        <pt x="384" y="704" on="0"/>
        <pt x="498" y="722" on="1"/>
        <pt x="510" y="700" on="0"/>
        <pt x="510" y="641" on="0"/>
        <pt x="466" y="592" on="0"/>
        <pt x="418" y="592" on="1"/>
        <pt x="397" y="592" on="0"/>
        <pt x="243" y="612" on="0"/>
        <pt x="207" y="612" on="1"/>
        <pt x="199" y="511" on="0"/>
        <pt x="198" y="422" on="1"/>
        <pt x="261" y="416" on="0"/>
        <pt x="406" y="416" on="0"/>
        <pt x="458" y="437" on="1"/>
        <pt x="470" y="415" on="0"/>
        <pt x="470" y="356" on="0"/>
        <pt x="426" y="305" on="0"/>
        <pt x="381" y="305" on="1"/>
        <pt x="359" y="305" on="0"/>
        <pt x="230" y="330" on="0"/>
        <pt x="197" y="330" on="1"/>
        <pt x="197" y="172" on="0"/>
        <pt x="204" y="98" on="1"/>
        <pt x="288" y="91" on="0"/>
        <pt x="358" y="91" on="1"/>
        <pt x="487" y="91" on="0"/>
        <pt x="626" y="161" on="0"/>
        <pt x="655" y="254" on="1"/>
        <pt x="713" y="201" on="0"/>
        <pt x="713" y="134" on="1"/>
        <pt x="713" y="-6" on="0"/>
      </contour>
      <contour>
        <pt x="235" y="810" on="1"/>
        <pt x="325" y="860" on="0"/>
        <pt x="374" y="950" on="1"/>
        <pt x="414" y="950" on="0"/>
        <pt x="469" y="921" on="0"/>
        <pt x="469" y="893" on="1"/>
        <pt x="469" y="853" on="0"/>
        <pt x="320" y="772" on="0"/>
        <pt x="276" y="772" on="1"/>
        <pt x="243" y="772" on="0"/>
      </contour>
    </TTGlyph>
    <TTGlyph name="Eacute.ini" xMin="60" yMin="-6" xMax="913" yMax="950">
      <contour>
        <pt x="429" y="431" on="1"/>
        <pt x="457" y="431" on="0"/>
        <pt x="471" y="430" on="1"/>
        <pt x="470" y="562" on="0"/>
        <pt x="450" y="710" on="1"/>
        <pt x="523" y="704" on="0"/>
        <pt x="774" y="704" on="0"/>
        <pt x="888" y="722" on="1"/>
        <pt x="900" y="700" on="0"/>
        <pt x="900" y="641" on="0"/>
        <pt x="856" y="592" on="0"/>
        <pt x="808" y="592" on="1"/>
        <pt x="787" y="592" on="0"/>
        <pt x="633" y="612" on="0"/>
        <pt x="597" y="612" on="1"/>
        <pt x="587" y="450" on="0"/>
        <pt x="586" y="422" on="1"/>
        <pt x="652" y="416" on="0"/>
        <pt x="797" y="416" on="0"/>
        <pt x="848" y="437" on="1"/>
        <pt x="860" y="415" on="0"/>
        <pt x="860" y="351" on="0"/>
        <pt x="812" y="305" on="0"/>
        <pt x="729" y="305" on="0"/>
        <pt x="586" y="332" on="1"/>
        <pt x="586" y="197" on="0"/>
        <pt x="594" y="98" on="1"/>
        <pt x="635" y="94" on="0"/>
        <pt x="677" y="94" on="1"/>
        <pt x="801" y="94" on="0"/>
        <pt x="901" y="138" on="1"/>
        <pt x="913" y="111" on="0"/>
        <pt x="913" y="44" on="0"/>
        <pt x="866" y="-6" on="0"/>
        <pt x="832" y="-6" on="1"/>
        <pt x="726" y="-6" on="0"/>
        <pt x="500" y="6" on="1"/>
        <pt x="482" y="7" on="0"/>
        <pt x="454" y="28" on="0"/>
        <pt x="454" y="44" on="1"/>
        <pt x="454" y="96" on="0"/>
        <pt x="468" y="307" on="0"/>
        <pt x="469" y="345" on="1"/>
        <pt x="452" y="345" on="1"/>
        <pt x="331" y="345" on="0"/>
        <pt x="150" y="240" on="0"/>
        <pt x="118" y="126" on="1"/>
        <pt x="60" y="181" on="0"/>
        <pt x="60" y="249" on="1"/>
        <pt x="60" y="431" on="0"/>
      </contour>
      <contour>
        <pt x="625" y="810" on="1"/>
        <pt x="715" y="860" on="0"/>
        <pt x="764" y="950" on="1"/>
        <pt x="804" y="950" on="0"/>
        <pt x="859" y="921" on="0"/>
        <pt x="859" y="893" on="1"/>
        <pt x="859" y="853" on="0"/>
        <pt x="710" y="772" on="0"/>
        <pt x="666" y="772" on="1"/>
        <pt x="633" y="772" on="0"/>
      </contour>
    </TTGlyph>
    <TTGlyph name="Eacute.swash_ini" xMin="60" yMin="-6" xMax="1130" yMax="950">
      <contour>
        <pt x="599" y="711" on="1"/>
        <pt x="887" y="705" on="1"/>
        <pt x="1005" y="705" on="0"/>
        <pt x="1105" y="722" on="1"/>
        <pt x="1117" y="700" on="0"/>
        <pt x="1117" y="639" on="0"/>
        <pt x="1070" y="592" on="0"/>
        <pt x="1001" y="592" on="0"/>
        <pt x="850" y="612" on="0"/>
        <pt x="814" y="612" on="1"/>
        <pt x="806" y="511" on="0"/>
        <pt x="805" y="422" on="1"/>
        <pt x="868" y="416" on="0"/>
        <pt x="1012" y="416" on="0"/>
        <pt x="1065" y="437" on="1"/>
        <pt x="1077" y="415" on="0"/>
        <pt x="1077" y="354" on="0"/>
        <pt x="1030" y="305" on="0"/>
        <pt x="965" y="305" on="0"/>
        <pt x="837" y="330" on="0"/>
        <pt x="804" y="330" on="1"/>
        <pt x="804" y="172" on="0"/>
        <pt x="811" y="98" on="1"/>
        <pt x="859" y="94" on="0"/>
        <pt x="886" y="94" on="1"/>
        <pt x="1018" y="94" on="0"/>
        <pt x="1118" y="138" on="1"/>
        <pt x="1130" y="111" on="0"/>
        <pt x="1130" y="43" on="0"/>
        <pt x="1083" y="-6" on="0"/>
        <pt x="1049" y="-6" on="1"/>
        <pt x="943" y="-6" on="0"/>
        <pt x="717" y="6" on="1"/>
        <pt x="699" y="7" on="0"/>
        <pt x="671" y="28" on="0"/>
        <pt x="671" y="44" on="1"/>
        <pt x="671" y="97" on="0"/>
        <pt x="688" y="349" on="0"/>
        <pt x="688" y="526" on="0"/>
        <pt x="678" y="619" on="1"/>
        <pt x="624" y="619" on="1"/>
        <pt x="331" y="619" on="0"/>
        <pt x="199" y="514" on="1"/>
        <pt x="145" y="471" on="0"/>
        <pt x="113" y="408" on="1"/>
        <pt x="60" y="450" on="0"/>
        <pt x="60" y="561" on="0"/>
        <pt x="140" y="637" on="0"/>
        <pt x="255" y="679" on="0"/>
        <pt x="334" y="692" on="1"/>
        <pt x="456" y="711" on="0"/>
      </contour>
      <contour>
        <pt x="842" y="810" on="1"/>
        <pt x="932" y="860" on="0"/>
        <pt x="981" y="950" on="1"/>
        <pt x="1021" y="950" on="0"/>
        <pt x="1076" y="921" on="0"/>
        <pt x="1076" y="893" on="1"/>
        <pt x="1076" y="853" on="0"/>
        <pt x="927" y="772" on="0"/>
        <pt x="883" y="772" on="1"/>
        <pt x="850" y="772" on="0"/>
      </contour>
    </TTGlyph>
    <TTGlyph name="Ecircumflex" xMin="60" yMin="-6" xMax="523" yMax="970">
      <contour>
        <pt x="511" y="138" on="1"/>
        <pt x="523" y="111" on="0"/>
        <pt x="523" y="43" on="0"/>
        <pt x="476" y="-6" on="0"/>
        <pt x="442" y="-6" on="1"/>
        <pt x="336" y="-6" on="0"/>
        <pt x="110" y="6" on="1"/>
        <pt x="92" y="7" on="0"/>
        <pt x="64" y="28" on="0"/>
        <pt x="64" y="44" on="1"/>
        <pt x="64" y="97" on="0"/>
        <pt x="81" y="349" on="0"/>
        <pt x="81" y="568" on="0"/>
        <pt x="60" y="710" on="1"/>
        <pt x="134" y="704" on="0"/>
        <pt x="384" y="704" on="0"/>
        <pt x="498" y="722" on="1"/>
        <pt x="510" y="700" on="0"/>
        <pt x="510" y="639" on="0"/>
        <pt x="463" y="592" on="0"/>
        <pt x="394" y="592" on="0"/>
        <pt x="243" y="612" on="0"/>
        <pt x="207" y="612" on="1"/>
        <pt x="199" y="511" on="0"/>
        <pt x="198" y="422" on="1"/>
        <pt x="261" y="416" on="0"/>
        <pt x="406" y="416" on="0"/>
        <pt x="458" y="437" on="1"/>
        <pt x="470" y="415" on="0"/>
        <pt x="470" y="354" on="0"/>
        <pt x="423" y="305" on="0"/>
        <pt x="358" y="305" on="0"/>
        <pt x="230" y="330" on="0"/>
        <pt x="197" y="330" on="1"/>
        <pt x="197" y="172" on="0"/>
        <pt x="204" y="98" on="1"/>
        <pt x="252" y="94" on="0"/>
        <pt x="279" y="94" on="1"/>
        <pt x="411" y="94" on="0"/>
      </contour>
      <contour>
        <pt x="479" y="800" on="1"/>
        <pt x="466" y="772" on="0"/>
        <pt x="419" y="772" on="0"/>
        <pt x="327" y="822" on="0"/>
        <pt x="289" y="852" on="1"/>
        <pt x="198" y="772" on="0"/>
        <pt x="139" y="772" on="0"/>
        <pt x="126" y="800" on="1"/>
        <pt x="169" y="833" on="0"/>
        <pt x="207" y="878" on="0"/>
        <pt x="247" y="931" on="0"/>
        <pt x="248" y="932" on="1"/>
        <pt x="278" y="970" on="0"/>
        <pt x="319" y="970" on="1"/>
        <pt x="348" y="919" on="0"/>
        <pt x="442" y="818" on="0"/>
      </contour>
    </TTGlyph>
    <TTGlyph name="Ecircumflex.end" xMin="60" yMin="-6" xMax="713" yMax="970">
      <contour>
        <pt x="442" y="-6" on="1"/>
        <pt x="336" y="-6" on="0"/>
        <pt x="110" y="6" on="1"/>
        <pt x="92" y="7" on="0"/>
        <pt x="64" y="28" on="0"/>
        <pt x="64" y="44" on="1"/>
        <pt x="64" y="97" on="0"/>
        <pt x="81" y="348" on="0"/>
        <pt x="81" y="568" on="0"/>
        <pt x="60" y="710" on="1"/>
        <pt x="134" y="704" on="0"/>
        <pt x="384" y="704" on="0"/>
        <pt x="498" y="722" on="1"/>
        <pt x="510" y="700" on="0"/>
        <pt x="510" y="641" on="0"/>
        <pt x="466" y="592" on="0"/>
        <pt x="418" y="592" on="1"/>
        <pt x="397" y="592" on="0"/>
        <pt x="243" y="612" on="0"/>
        <pt x="207" y="612" on="1"/>
        <pt x="199" y="511" on="0"/>
        <pt x="198" y="422" on="1"/>
        <pt x="261" y="416" on="0"/>
        <pt x="406" y="416" on="0"/>
        <pt x="458" y="437" on="1"/>
        <pt x="470" y="415" on="0"/>
        <pt x="470" y="356" on="0"/>
        <pt x="426" y="305" on="0"/>
        <pt x="381" y="305" on="1"/>
        <pt x="359" y="305" on="0"/>
        <pt x="230" y="330" on="0"/>
        <pt x="197" y="330" on="1"/>
        <pt x="197" y="172" on="0"/>
        <pt x="204" y="98" on="1"/>
        <pt x="288" y="91" on="0"/>
        <pt x="358" y="91" on="1"/>
        <pt x="487" y="91" on="0"/>
        <pt x="626" y="161" on="0"/>
        <pt x="655" y="254" on="1"/>
        <pt x="713" y="201" on="0"/>
        <pt x="713" y="134" on="1"/>
        <pt x="713" y="-6" on="0"/>
      </contour>
      <contour>
        <pt x="479" y="800" on="1"/>
        <pt x="466" y="772" on="0"/>
        <pt x="419" y="772" on="0"/>
        <pt x="327" y="822" on="0"/>
        <pt x="289" y="852" on="1"/>
        <pt x="198" y="772" on="0"/>
        <pt x="139" y="772" on="0"/>
        <pt x="126" y="800" on="1"/>
        <pt x="169" y="833" on="0"/>
        <pt x="207" y="878" on="0"/>
        <pt x="247" y="931" on="0"/>
        <pt x="248" y="932" on="1"/>
        <pt x="278" y="970" on="0"/>
        <pt x="319" y="970" on="1"/>
        <pt x="348" y="919" on="0"/>
        <pt x="442" y="818" on="0"/>
      </contour>
    </TTGlyph>
    <TTGlyph name="Ecircumflex.ini" xMin="60" yMin="-6" xMax="913" yMax="970">
      <contour>
        <pt x="429" y="431" on="1"/>
        <pt x="457" y="431" on="0"/>
        <pt x="471" y="430" on="1"/>
        <pt x="470" y="562" on="0"/>
        <pt x="450" y="710" on="1"/>
        <pt x="523" y="704" on="0"/>
        <pt x="774" y="704" on="0"/>
        <pt x="888" y="722" on="1"/>
        <pt x="900" y="700" on="0"/>
        <pt x="900" y="641" on="0"/>
        <pt x="856" y="592" on="0"/>
        <pt x="808" y="592" on="1"/>
        <pt x="787" y="592" on="0"/>
        <pt x="633" y="612" on="0"/>
        <pt x="597" y="612" on="1"/>
        <pt x="587" y="450" on="0"/>
        <pt x="586" y="422" on="1"/>
        <pt x="652" y="416" on="0"/>
        <pt x="797" y="416" on="0"/>
        <pt x="848" y="437" on="1"/>
        <pt x="860" y="415" on="0"/>
        <pt x="860" y="351" on="0"/>
        <pt x="812" y="305" on="0"/>
        <pt x="729" y="305" on="0"/>
        <pt x="586" y="332" on="1"/>
        <pt x="586" y="197" on="0"/>
        <pt x="594" y="98" on="1"/>
        <pt x="635" y="94" on="0"/>
        <pt x="677" y="94" on="1"/>
        <pt x="801" y="94" on="0"/>
        <pt x="901" y="138" on="1"/>
        <pt x="913" y="111" on="0"/>
        <pt x="913" y="44" on="0"/>
        <pt x="866" y="-6" on="0"/>
        <pt x="832" y="-6" on="1"/>
        <pt x="726" y="-6" on="0"/>
        <pt x="500" y="6" on="1"/>
        <pt x="482" y="7" on="0"/>
        <pt x="454" y="28" on="0"/>
        <pt x="454" y="44" on="1"/>
        <pt x="454" y="96" on="0"/>
        <pt x="468" y="307" on="0"/>
        <pt x="469" y="345" on="1"/>
        <pt x="452" y="345" on="1"/>
        <pt x="331" y="345" on="0"/>
        <pt x="150" y="240" on="0"/>
        <pt x="118" y="126" on="1"/>
        <pt x="60" y="181" on="0"/>
        <pt x="60" y="249" on="1"/>
        <pt x="60" y="431" on="0"/>
      </contour>
      <contour>
        <pt x="869" y="800" on="1"/>
        <pt x="856" y="772" on="0"/>
        <pt x="809" y="772" on="0"/>
        <pt x="717" y="822" on="0"/>
        <pt x="679" y="852" on="1"/>
        <pt x="588" y="772" on="0"/>
        <pt x="529" y="772" on="0"/>
        <pt x="516" y="800" on="1"/>
        <pt x="559" y="833" on="0"/>
        <pt x="597" y="878" on="0"/>
        <pt x="637" y="931" on="0"/>
        <pt x="638" y="932" on="1"/>
        <pt x="668" y="970" on="0"/>
        <pt x="709" y="970" on="1"/>
        <pt x="738" y="919" on="0"/>
        <pt x="832" y="818" on="0"/>
      </contour>
    </TTGlyph>
    <TTGlyph name="Ecircumflex.swash_ini" xMin="60" yMin="-6" xMax="1130" yMax="970">
      <contour>
        <pt x="599" y="711" on="1"/>
        <pt x="887" y="705" on="1"/>
        <pt x="1005" y="705" on="0"/>
        <pt x="1105" y="722" on="1"/>
        <pt x="1117" y="700" on="0"/>
        <pt x="1117" y="639" on="0"/>
        <pt x="1070" y="592" on="0"/>
        <pt x="1001" y="592" on="0"/>
        <pt x="850" y="612" on="0"/>
        <pt x="814" y="612" on="1"/>
        <pt x="806" y="511" on="0"/>
        <pt x="805" y="422" on="1"/>
        <pt x="868" y="416" on="0"/>
        <pt x="1012" y="416" on="0"/>
        <pt x="1065" y="437" on="1"/>
        <pt x="1077" y="415" on="0"/>
        <pt x="1077" y="354" on="0"/>
        <pt x="1030" y="305" on="0"/>
        <pt x="965" y="305" on="0"/>
        <pt x="837" y="330" on="0"/>
        <pt x="804" y="330" on="1"/>
        <pt x="804" y="172" on="0"/>
        <pt x="811" y="98" on="1"/>
        <pt x="859" y="94" on="0"/>
        <pt x="886" y="94" on="1"/>
        <pt x="1018" y="94" on="0"/>
        <pt x="1118" y="138" on="1"/>
        <pt x="1130" y="111" on="0"/>
        <pt x="1130" y="43" on="0"/>
        <pt x="1083" y="-6" on="0"/>
        <pt x="1049" y="-6" on="1"/>
        <pt x="943" y="-6" on="0"/>
        <pt x="717" y="6" on="1"/>
        <pt x="699" y="7" on="0"/>
        <pt x="671" y="28" on="0"/>
        <pt x="671" y="44" on="1"/>
        <pt x="671" y="97" on="0"/>
        <pt x="688" y="349" on="0"/>
        <pt x="688" y="526" on="0"/>
        <pt x="678" y="619" on="1"/>
        <pt x="624" y="619" on="1"/>
        <pt x="331" y="619" on="0"/>
        <pt x="199" y="514" on="1"/>
        <pt x="145" y="471" on="0"/>
        <pt x="113" y="408" on="1"/>
        <pt x="60" y="450" on="0"/>
        <pt x="60" y="561" on="0"/>
        <pt x="140" y="637" on="0"/>
        <pt x="255" y="679" on="0"/>
        <pt x="334" y="692" on="1"/>
        <pt x="456" y="711" on="0"/>
      </contour>
      <contour>
        <pt x="1086" y="800" on="1"/>
        <pt x="1073" y="772" on="0"/>
        <pt x="1026" y="772" on="0"/>
        <pt x="934" y="822" on="0"/>
        <pt x="896" y="852" on="1"/>
        <pt x="805" y="772" on="0"/>
        <pt x="746" y="772" on="0"/>
        <pt x="733" y="800" on="1"/>
        <pt x="776" y="833" on="0"/>
        <pt x="814" y="878" on="0"/>
        <pt x="854" y="931" on="0"/>
        <pt x="855" y="932" on="1"/>
        <pt x="885" y="970" on="0"/>
        <pt x="926" y="970" on="1"/>
        <pt x="955" y="919" on="0"/>
        <pt x="1049" y="818" on="0"/>
      </contour>
    </TTGlyph>
    <TTGlyph name="Edieresis" xMin="60" yMin="-6" xMax="523" yMax="938">
      <contour>
        <pt x="511" y="138" on="1"/>
        <pt x="523" y="111" on="0"/>
        <pt x="523" y="43" on="0"/>
        <pt x="476" y="-6" on="0"/>
        <pt x="442" y="-6" on="1"/>
        <pt x="336" y="-6" on="0"/>
        <pt x="110" y="6" on="1"/>
        <pt x="92" y="7" on="0"/>
        <pt x="64" y="28" on="0"/>
        <pt x="64" y="44" on="1"/>
        <pt x="64" y="97" on="0"/>
        <pt x="81" y="349" on="0"/>
        <pt x="81" y="568" on="0"/>
        <pt x="60" y="710" on="1"/>
        <pt x="134" y="704" on="0"/>
        <pt x="384" y="704" on="0"/>
        <pt x="498" y="722" on="1"/>
        <pt x="510" y="700" on="0"/>
        <pt x="510" y="639" on="0"/>
        <pt x="463" y="592" on="0"/>
        <pt x="394" y="592" on="0"/>
        <pt x="243" y="612" on="0"/>
        <pt x="207" y="612" on="1"/>
        <pt x="199" y="511" on="0"/>
        <pt x="198" y="422" on="1"/>
        <pt x="261" y="416" on="0"/>
        <pt x="406" y="416" on="0"/>
        <pt x="458" y="437" on="1"/>
        <pt x="470" y="415" on="0"/>
        <pt x="470" y="354" on="0"/>
        <pt x="423" y="305" on="0"/>
        <pt x="358" y="305" on="0"/>
        <pt x="230" y="330" on="0"/>
        <pt x="197" y="330" on="1"/>
        <pt x="197" y="172" on="0"/>
        <pt x="204" y="98" on="1"/>
        <pt x="252" y="94" on="0"/>
        <pt x="279" y="94" on="1"/>
        <pt x="411" y="94" on="0"/>
      </contour>
      <contour>
        <pt x="141" y="926" on="1"/>
        <pt x="167" y="938" on="0"/>
        <pt x="200" y="938" on="1"/>
        <pt x="250" y="938" on="0"/>
        <pt x="250" y="886" on="1"/>
        <pt x="250" y="858" on="0"/>
        <pt x="212" y="821" on="0"/>
        <pt x="161" y="821" on="0"/>
        <pt x="133" y="849" on="0"/>
        <pt x="133" y="902" on="0"/>
      </contour>
      <contour>
        <pt x="365" y="926" on="1"/>
        <pt x="390" y="938" on="0"/>
        <pt x="424" y="938" on="1"/>
        <pt x="474" y="938" on="0"/>
        <pt x="474" y="886" on="1"/>
        <pt x="474" y="858" on="0"/>
        <pt x="436" y="821" on="0"/>
        <pt x="385" y="821" on="0"/>
        <pt x="357" y="849" on="0"/>
        <pt x="357" y="902" on="0"/>
      </contour>
    </TTGlyph>
    <TTGlyph name="Edieresis.end" xMin="60" yMin="-6" xMax="713" yMax="938">
      <contour>
        <pt x="442" y="-6" on="1"/>
        <pt x="336" y="-6" on="0"/>
        <pt x="110" y="6" on="1"/>
        <pt x="92" y="7" on="0"/>
        <pt x="64" y="28" on="0"/>
        <pt x="64" y="44" on="1"/>
        <pt x="64" y="97" on="0"/>
        <pt x="81" y="348" on="0"/>
        <pt x="81" y="568" on="0"/>
        <pt x="60" y="710" on="1"/>
        <pt x="134" y="704" on="0"/>
        <pt x="384" y="704" on="0"/>
        <pt x="498" y="722" on="1"/>
        <pt x="510" y="700" on="0"/>
        <pt x="510" y="641" on="0"/>
        <pt x="466" y="592" on="0"/>
        <pt x="418" y="592" on="1"/>
        <pt x="397" y="592" on="0"/>
        <pt x="243" y="612" on="0"/>
        <pt x="207" y="612" on="1"/>
        <pt x="199" y="511" on="0"/>
        <pt x="198" y="422" on="1"/>
        <pt x="261" y="416" on="0"/>
        <pt x="406" y="416" on="0"/>
        <pt x="458" y="437" on="1"/>
        <pt x="470" y="415" on="0"/>
        <pt x="470" y="356" on="0"/>
        <pt x="426" y="305" on="0"/>
        <pt x="381" y="305" on="1"/>
        <pt x="359" y="305" on="0"/>
        <pt x="230" y="330" on="0"/>
        <pt x="197" y="330" on="1"/>
        <pt x="197" y="172" on="0"/>
        <pt x="204" y="98" on="1"/>
        <pt x="288" y="91" on="0"/>
        <pt x="358" y="91" on="1"/>
        <pt x="487" y="91" on="0"/>
        <pt x="626" y="161" on="0"/>
        <pt x="655" y="254" on="1"/>
        <pt x="713" y="201" on="0"/>
        <pt x="713" y="134" on="1"/>
        <pt x="713" y="-6" on="0"/>
      </contour>
      <contour>
        <pt x="141" y="926" on="1"/>
        <pt x="167" y="938" on="0"/>
        <pt x="200" y="938" on="1"/>
        <pt x="250" y="938" on="0"/>
        <pt x="250" y="886" on="1"/>
        <pt x="250" y="858" on="0"/>
        <pt x="212" y="821" on="0"/>
        <pt x="161" y="821" on="0"/>
        <pt x="133" y="849" on="0"/>
        <pt x="133" y="902" on="0"/>
      </contour>
      <contour>
        <pt x="365" y="926" on="1"/>
        <pt x="390" y="938" on="0"/>
        <pt x="424" y="938" on="1"/>
        <pt x="474" y="938" on="0"/>
        <pt x="474" y="886" on="1"/>
        <pt x="474" y="858" on="0"/>
        <pt x="436" y="821" on="0"/>
        <pt x="385" y="821" on="0"/>
        <pt x="357" y="849" on="0"/>
        <pt x="357" y="902" on="0"/>
      </contour>
    </TTGlyph>
    <TTGlyph name="Edieresis.ini" xMin="60" yMin="-6" xMax="913" yMax="938">
      <contour>
        <pt x="429" y="431" on="1"/>
        <pt x="457" y="431" on="0"/>
        <pt x="471" y="430" on="1"/>
        <pt x="470" y="562" on="0"/>
        <pt x="450" y="710" on="1"/>
        <pt x="523" y="704" on="0"/>
        <pt x="774" y="704" on="0"/>
        <pt x="888" y="722" on="1"/>
        <pt x="900" y="700" on="0"/>
        <pt x="900" y="641" on="0"/>
        <pt x="856" y="592" on="0"/>
        <pt x="808" y="592" on="1"/>
        <pt x="787" y="592" on="0"/>
        <pt x="633" y="612" on="0"/>
        <pt x="597" y="612" on="1"/>
        <pt x="587" y="450" on="0"/>
        <pt x="586" y="422" on="1"/>
        <pt x="652" y="416" on="0"/>
        <pt x="797" y="416" on="0"/>
        <pt x="848" y="437" on="1"/>
        <pt x="860" y="415" on="0"/>
        <pt x="860" y="351" on="0"/>
        <pt x="812" y="305" on="0"/>
        <pt x="729" y="305" on="0"/>
        <pt x="586" y="332" on="1"/>
        <pt x="586" y="197" on="0"/>
        <pt x="594" y="98" on="1"/>
        <pt x="635" y="94" on="0"/>
        <pt x="677" y="94" on="1"/>
        <pt x="801" y="94" on="0"/>
        <pt x="901" y="138" on="1"/>
        <pt x="913" y="111" on="0"/>
        <pt x="913" y="44" on="0"/>
        <pt x="866" y="-6" on="0"/>
        <pt x="832" y="-6" on="1"/>
        <pt x="726" y="-6" on="0"/>
        <pt x="500" y="6" on="1"/>
        <pt x="482" y="7" on="0"/>
        <pt x="454" y="28" on="0"/>
        <pt x="454" y="44" on="1"/>
        <pt x="454" y="96" on="0"/>
        <pt x="468" y="307" on="0"/>
        <pt x="469" y="345" on="1"/>
        <pt x="452" y="345" on="1"/>
        <pt x="331" y="345" on="0"/>
        <pt x="150" y="240" on="0"/>
        <pt x="118" y="126" on="1"/>
        <pt x="60" y="181" on="0"/>
        <pt x="60" y="249" on="1"/>
        <pt x="60" y="431" on="0"/>
      </contour>
      <contour>
        <pt x="531" y="926" on="1"/>
        <pt x="556" y="938" on="0"/>
        <pt x="590" y="938" on="1"/>
        <pt x="640" y="938" on="0"/>
        <pt x="640" y="886" on="1"/>
        <pt x="640" y="858" on="0"/>
        <pt x="602" y="821" on="0"/>
        <pt x="551" y="821" on="0"/>
        <pt x="523" y="849" on="0"/>
        <pt x="523" y="902" on="0"/>
      </contour>
      <contour>
        <pt x="755" y="926" on="1"/>
        <pt x="780" y="938" on="0"/>
        <pt x="814" y="938" on="1"/>
        <pt x="864" y="938" on="0"/>
        <pt x="864" y="886" on="1"/>
        <pt x="864" y="858" on="0"/>
        <pt x="826" y="821" on="0"/>
        <pt x="775" y="821" on="0"/>
        <pt x="747" y="849" on="0"/>
        <pt x="747" y="902" on="0"/>
      </contour>
    </TTGlyph>
    <TTGlyph name="Edieresis.swash_ini" xMin="60" yMin="-6" xMax="1130" yMax="938">
      <contour>
        <pt x="599" y="711" on="1"/>
        <pt x="887" y="705" on="1"/>
        <pt x="1005" y="705" on="0"/>
        <pt x="1105" y="722" on="1"/>
        <pt x="1117" y="700" on="0"/>
        <pt x="1117" y="639" on="0"/>
        <pt x="1070" y="592" on="0"/>
        <pt x="1001" y="592" on="0"/>
        <pt x="850" y="612" on="0"/>
        <pt x="814" y="612" on="1"/>
        <pt x="806" y="511" on="0"/>
        <pt x="805" y="422" on="1"/>
        <pt x="868" y="416" on="0"/>
        <pt x="1012" y="416" on="0"/>
        <pt x="1065" y="437" on="1"/>
        <pt x="1077" y="415" on="0"/>
        <pt x="1077" y="354" on="0"/>
        <pt x="1030" y="305" on="0"/>
        <pt x="965" y="305" on="0"/>
        <pt x="837" y="330" on="0"/>
        <pt x="804" y="330" on="1"/>
        <pt x="804" y="172" on="0"/>
        <pt x="811" y="98" on="1"/>
        <pt x="859" y="94" on="0"/>
        <pt x="886" y="94" on="1"/>
        <pt x="1018" y="94" on="0"/>
        <pt x="1118" y="138" on="1"/>
        <pt x="1130" y="111" on="0"/>
        <pt x="1130" y="43" on="0"/>
        <pt x="1083" y="-6" on="0"/>
        <pt x="1049" y="-6" on="1"/>
        <pt x="943" y="-6" on="0"/>
        <pt x="717" y="6" on="1"/>
        <pt x="699" y="7" on="0"/>
        <pt x="671" y="28" on="0"/>
        <pt x="671" y="44" on="1"/>
        <pt x="671" y="97" on="0"/>
        <pt x="688" y="349" on="0"/>
        <pt x="688" y="526" on="0"/>
        <pt x="678" y="619" on="1"/>
        <pt x="624" y="619" on="1"/>
        <pt x="331" y="619" on="0"/>
        <pt x="199" y="514" on="1"/>
        <pt x="145" y="471" on="0"/>
        <pt x="113" y="408" on="1"/>
        <pt x="60" y="450" on="0"/>
        <pt x="60" y="561" on="0"/>
        <pt x="140" y="637" on="0"/>
        <pt x="255" y="679" on="0"/>
        <pt x="334" y="692" on="1"/>
        <pt x="456" y="711" on="0"/>
      </contour>
      <contour>
        <pt x="748" y="926" on="1"/>
        <pt x="774" y="938" on="0"/>
        <pt x="807" y="938" on="1"/>
        <pt x="857" y="938" on="0"/>
        <pt x="857" y="886" on="1"/>
        <pt x="857" y="858" on="0"/>
        <pt x="819" y="821" on="0"/>
        <pt x="768" y="821" on="0"/>
        <pt x="740" y="849" on="0"/>
        <pt x="740" y="902" on="0"/>
      </contour>
      <contour>
        <pt x="972" y="926" on="1"/>
        <pt x="997" y="938" on="0"/>
        <pt x="1031" y="938" on="1"/>
        <pt x="1081" y="938" on="0"/>
        <pt x="1081" y="886" on="1"/>
        <pt x="1081" y="858" on="0"/>
        <pt x="1043" y="821" on="0"/>
        <pt x="992" y="821" on="0"/>
        <pt x="964" y="849" on="0"/>
        <pt x="964" y="902" on="0"/>
      </contour>
    </TTGlyph>
    <TTGlyph name="Egrave" xMin="60" yMin="-6" xMax="523" yMax="950">
      <contour>
        <pt x="511" y="138" on="1"/>
        <pt x="523" y="111" on="0"/>
        <pt x="523" y="43" on="0"/>
        <pt x="476" y="-6" on="0"/>
        <pt x="442" y="-6" on="1"/>
        <pt x="336" y="-6" on="0"/>
        <pt x="110" y="6" on="1"/>
        <pt x="92" y="7" on="0"/>
        <pt x="64" y="28" on="0"/>
        <pt x="64" y="44" on="1"/>
        <pt x="64" y="97" on="0"/>
        <pt x="81" y="349" on="0"/>
        <pt x="81" y="568" on="0"/>
        <pt x="60" y="710" on="1"/>
        <pt x="134" y="704" on="0"/>
        <pt x="384" y="704" on="0"/>
        <pt x="498" y="722" on="1"/>
        <pt x="510" y="700" on="0"/>
        <pt x="510" y="639" on="0"/>
        <pt x="463" y="592" on="0"/>
        <pt x="394" y="592" on="0"/>
        <pt x="243" y="612" on="0"/>
        <pt x="207" y="612" on="1"/>
        <pt x="199" y="511" on="0"/>
        <pt x="198" y="422" on="1"/>
        <pt x="261" y="416" on="0"/>
        <pt x="406" y="416" on="0"/>
        <pt x="458" y="437" on="1"/>
        <pt x="470" y="415" on="0"/>
        <pt x="470" y="354" on="0"/>
        <pt x="423" y="305" on="0"/>
        <pt x="358" y="305" on="0"/>
        <pt x="230" y="330" on="0"/>
        <pt x="197" y="330" on="1"/>
        <pt x="197" y="172" on="0"/>
        <pt x="204" y="98" on="1"/>
        <pt x="252" y="94" on="0"/>
        <pt x="279" y="94" on="1"/>
        <pt x="411" y="94" on="0"/>
      </contour>
      <contour>
        <pt x="399" y="810" on="1"/>
        <pt x="391" y="772" on="0"/>
        <pt x="358" y="772" on="1"/>
        <pt x="314" y="772" on="0"/>
        <pt x="165" y="853" on="0"/>
        <pt x="165" y="893" on="1"/>
        <pt x="165" y="921" on="0"/>
        <pt x="220" y="950" on="0"/>
        <pt x="260" y="950" on="1"/>
        <pt x="309" y="860" on="0"/>
      </contour>
    </TTGlyph>
    <TTGlyph name="Egrave.end" xMin="60" yMin="-6" xMax="713" yMax="950">
      <contour>
        <pt x="442" y="-6" on="1"/>
        <pt x="336" y="-6" on="0"/>
        <pt x="110" y="6" on="1"/>
        <pt x="92" y="7" on="0"/>
        <pt x="64" y="28" on="0"/>
        <pt x="64" y="44" on="1"/>
        <pt x="64" y="97" on="0"/>
        <pt x="81" y="348" on="0"/>
        <pt x="81" y="568" on="0"/>
        <pt x="60" y="710" on="1"/>
        <pt x="134" y="704" on="0"/>
        <pt x="384" y="704" on="0"/>
        <pt x="498" y="722" on="1"/>
        <pt x="510" y="700" on="0"/>
        <pt x="510" y="641" on="0"/>
        <pt x="466" y="592" on="0"/>
        <pt x="418" y="592" on="1"/>
        <pt x="397" y="592" on="0"/>
        <pt x="243" y="612" on="0"/>
        <pt x="207" y="612" on="1"/>
        <pt x="199" y="511" on="0"/>
        <pt x="198" y="422" on="1"/>
        <pt x="261" y="416" on="0"/>
        <pt x="406" y="416" on="0"/>
        <pt x="458" y="437" on="1"/>
        <pt x="470" y="415" on="0"/>
        <pt x="470" y="356" on="0"/>
        <pt x="426" y="305" on="0"/>
        <pt x="381" y="305" on="1"/>
        <pt x="359" y="305" on="0"/>
        <pt x="230" y="330" on="0"/>
        <pt x="197" y="330" on="1"/>
        <pt x="197" y="172" on="0"/>
        <pt x="204" y="98" on="1"/>
        <pt x="288" y="91" on="0"/>
        <pt x="358" y="91" on="1"/>
        <pt x="487" y="91" on="0"/>
        <pt x="626" y="161" on="0"/>
        <pt x="655" y="254" on="1"/>
        <pt x="713" y="201" on="0"/>
        <pt x="713" y="134" on="1"/>
        <pt x="713" y="-6" on="0"/>
      </contour>
      <contour>
        <pt x="399" y="810" on="1"/>
        <pt x="391" y="772" on="0"/>
        <pt x="358" y="772" on="1"/>
        <pt x="314" y="772" on="0"/>
        <pt x="165" y="853" on="0"/>
        <pt x="165" y="893" on="1"/>
        <pt x="165" y="921" on="0"/>
        <pt x="220" y="950" on="0"/>
        <pt x="260" y="950" on="1"/>
        <pt x="309" y="860" on="0"/>
      </contour>
    </TTGlyph>
    <TTGlyph name="Egrave.ini" xMin="60" yMin="-6" xMax="913" yMax="950">
      <contour>
        <pt x="429" y="431" on="1"/>
        <pt x="457" y="431" on="0"/>
        <pt x="471" y="430" on="1"/>
        <pt x="470" y="562" on="0"/>
        <pt x="450" y="710" on="1"/>
        <pt x="523" y="704" on="0"/>
        <pt x="774" y="704" on="0"/>
        <pt x="888" y="722" on="1"/>
        <pt x="900" y="700" on="0"/>
        <pt x="900" y="641" on="0"/>
        <pt x="856" y="592" on="0"/>
        <pt x="808" y="592" on="1"/>
        <pt x="787" y="592" on="0"/>
        <pt x="633" y="612" on="0"/>
        <pt x="597" y="612" on="1"/>
        <pt x="587" y="450" on="0"/>
        <pt x="586" y="422" on="1"/>
        <pt x="652" y="416" on="0"/>
        <pt x="797" y="416" on="0"/>
        <pt x="848" y="437" on="1"/>
        <pt x="860" y="415" on="0"/>
        <pt x="860" y="351" on="0"/>
        <pt x="812" y="305" on="0"/>
        <pt x="729" y="305" on="0"/>
        <pt x="586" y="332" on="1"/>
        <pt x="586" y="197" on="0"/>
        <pt x="594" y="98" on="1"/>
        <pt x="635" y="94" on="0"/>
        <pt x="677" y="94" on="1"/>
        <pt x="801" y="94" on="0"/>
        <pt x="901" y="138" on="1"/>
        <pt x="913" y="111" on="0"/>
        <pt x="913" y="44" on="0"/>
        <pt x="866" y="-6" on="0"/>
        <pt x="832" y="-6" on="1"/>
        <pt x="726" y="-6" on="0"/>
        <pt x="500" y="6" on="1"/>
        <pt x="482" y="7" on="0"/>
        <pt x="454" y="28" on="0"/>
        <pt x="454" y="44" on="1"/>
        <pt x="454" y="96" on="0"/>
        <pt x="468" y="307" on="0"/>
        <pt x="469" y="345" on="1"/>
        <pt x="452" y="345" on="1"/>
        <pt x="331" y="345" on="0"/>
        <pt x="150" y="240" on="0"/>
        <pt x="118" y="126" on="1"/>
        <pt x="60" y="181" on="0"/>
        <pt x="60" y="249" on="1"/>
        <pt x="60" y="431" on="0"/>
      </contour>
      <contour>
        <pt x="789" y="810" on="1"/>
        <pt x="781" y="772" on="0"/>
        <pt x="748" y="772" on="1"/>
        <pt x="704" y="772" on="0"/>
        <pt x="555" y="853" on="0"/>
        <pt x="555" y="893" on="1"/>
        <pt x="555" y="921" on="0"/>
        <pt x="610" y="950" on="0"/>
        <pt x="650" y="950" on="1"/>
        <pt x="699" y="860" on="0"/>
      </contour>
    </TTGlyph>
    <TTGlyph name="Egrave.swash_ini" xMin="60" yMin="-6" xMax="1130" yMax="950">
      <contour>
        <pt x="599" y="711" on="1"/>
        <pt x="887" y="705" on="1"/>
        <pt x="1005" y="705" on="0"/>
        <pt x="1105" y="722" on="1"/>
        <pt x="1117" y="700" on="0"/>
        <pt x="1117" y="639" on="0"/>
        <pt x="1070" y="592" on="0"/>
        <pt x="1001" y="592" on="0"/>
        <pt x="850" y="612" on="0"/>
        <pt x="814" y="612" on="1"/>
        <pt x="806" y="511" on="0"/>
        <pt x="805" y="422" on="1"/>
        <pt x="868" y="416" on="0"/>
        <pt x="1012" y="416" on="0"/>
        <pt x="1065" y="437" on="1"/>
        <pt x="1077" y="415" on="0"/>
        <pt x="1077" y="354" on="0"/>
        <pt x="1030" y="305" on="0"/>
        <pt x="965" y="305" on="0"/>
        <pt x="837" y="330" on="0"/>
        <pt x="804" y="330" on="1"/>
        <pt x="804" y="172" on="0"/>
        <pt x="811" y="98" on="1"/>
        <pt x="859" y="94" on="0"/>
        <pt x="886" y="94" on="1"/>
        <pt x="1018" y="94" on="0"/>
        <pt x="1118" y="138" on="1"/>
        <pt x="1130" y="111" on="0"/>
        <pt x="1130" y="43" on="0"/>
        <pt x="1083" y="-6" on="0"/>
        <pt x="1049" y="-6" on="1"/>
        <pt x="943" y="-6" on="0"/>
        <pt x="717" y="6" on="1"/>
        <pt x="699" y="7" on="0"/>
        <pt x="671" y="28" on="0"/>
        <pt x="671" y="44" on="1"/>
        <pt x="671" y="97" on="0"/>
        <pt x="688" y="349" on="0"/>
        <pt x="688" y="526" on="0"/>
        <pt x="678" y="619" on="1"/>
        <pt x="624" y="619" on="1"/>
        <pt x="331" y="619" on="0"/>
        <pt x="199" y="514" on="1"/>
        <pt x="145" y="471" on="0"/>
        <pt x="113" y="408" on="1"/>
        <pt x="60" y="450" on="0"/>
        <pt x="60" y="561" on="0"/>
        <pt x="140" y="637" on="0"/>
        <pt x="255" y="679" on="0"/>
        <pt x="334" y="692" on="1"/>
        <pt x="456" y="711" on="0"/>
      </contour>
      <contour>
        <pt x="1006" y="810" on="1"/>
        <pt x="998" y="772" on="0"/>
        <pt x="965" y="772" on="1"/>
        <pt x="921" y="772" on="0"/>
        <pt x="772" y="853" on="0"/>
        <pt x="772" y="893" on="1"/>
        <pt x="772" y="921" on="0"/>
        <pt x="827" y="950" on="0"/>
        <pt x="867" y="950" on="1"/>
        <pt x="916" y="860" on="0"/>
      </contour>
    </TTGlyph>
    <TTGlyph name="Eth" xMin="40" yMin="-12" xMax="696" yMax="718">
      <contour>
        <pt x="160" y="401" on="1"/>
        <pt x="158" y="576" on="0"/>
        <pt x="136" y="670" on="1"/>
        <pt x="280" y="718" on="0"/>
        <pt x="539" y="718" on="0"/>
        <pt x="696" y="530" on="0"/>
        <pt x="696" y="397" on="1"/>
        <pt x="696" y="226" on="0"/>
        <pt x="618" y="110" on="1"/>
        <pt x="579" y="53" on="0"/>
        <pt x="453" y="-12" on="0"/>
        <pt x="373" y="-12" on="1"/>
        <pt x="250" y="-12" on="0"/>
        <pt x="130" y="39" on="1"/>
        <pt x="159" y="164" on="0"/>
        <pt x="161" y="308" on="1"/>
        <pt x="95" y="307" on="0"/>
        <pt x="52" y="293" on="1"/>
        <pt x="40" y="313" on="0"/>
        <pt x="40" y="369" on="0"/>
        <pt x="84" y="404" on="0"/>
        <pt x="139" y="404" on="0"/>
      </contour>
      <contour>
        <pt x="277" y="299" on="1"/>
        <pt x="279" y="187" on="0"/>
        <pt x="285" y="100" on="1"/>
        <pt x="328" y="83" on="0"/>
        <pt x="437" y="83" on="0"/>
        <pt x="509" y="131" on="0"/>
        <pt x="528" y="173" on="1"/>
        <pt x="564" y="253" on="0"/>
        <pt x="564" y="367" on="1"/>
        <pt x="564" y="470" on="0"/>
        <pt x="528" y="546" on="1"/>
        <pt x="509" y="584" on="0"/>
        <pt x="440" y="628" on="0"/>
        <pt x="342" y="628" on="0"/>
        <pt x="285" y="613" on="1"/>
        <pt x="276" y="491" on="0"/>
        <pt x="276" y="389" on="1"/>
        <pt x="359" y="389" on="0"/>
        <pt x="403" y="404" on="1"/>
        <pt x="415" y="384" on="0"/>
        <pt x="415" y="328" on="0"/>
        <pt x="371" y="293" on="0"/>
        <pt x="334" y="293" on="1"/>
        <pt x="321" y="293" on="0"/>
      </contour>
    </TTGlyph>
    <TTGlyph name="F" xMin="60" yMin="0" xMax="510" yMax="722">
      <contour>
        <pt x="197" y="320" on="1"/>
        <pt x="197" y="127" on="0"/>
        <pt x="218" y="12" on="1"/>
        <pt x="186" y="0" on="0"/>
        <pt x="114" y="0" on="0"/>
        <pt x="61" y="46" on="0"/>
        <pt x="61" y="127" on="0"/>
        <pt x="81" y="353" on="0"/>
        <pt x="81" y="415" on="1"/>
        <pt x="81" y="568" on="0"/>
        <pt x="60" y="710" on="1"/>
        <pt x="134" y="704" on="0"/>
        <pt x="384" y="704" on="0"/>
        <pt x="498" y="722" on="1"/>
        <pt x="510" y="700" on="0"/>
        <pt x="510" y="639" on="0"/>
        <pt x="463" y="592" on="0"/>
        <pt x="394" y="592" on="0"/>
        <pt x="243" y="612" on="0"/>
        <pt x="207" y="612" on="1"/>
        <pt x="199" y="503" on="0"/>
        <pt x="197" y="412" on="1"/>
        <pt x="255" y="406" on="0"/>
        <pt x="396" y="406" on="0"/>
        <pt x="448" y="427" on="1"/>
        <pt x="460" y="405" on="0"/>
        <pt x="460" y="344" on="0"/>
        <pt x="413" y="295" on="0"/>
        <pt x="349" y="295" on="0"/>
        <pt x="229" y="320" on="0"/>
      </contour>
    </TTGlyph>
    <TTGlyph name="F.ini" xMin="10" yMin="0" xMax="928" yMax="722">
      <contour>
        <pt x="878" y="344" on="0"/>
        <pt x="831" y="295" on="0"/>
        <pt x="770" y="295" on="0"/>
        <pt x="616" y="323" on="1"/>
        <pt x="616" y="118" on="0"/>
        <pt x="636" y="12" on="1"/>
        <pt x="604" y="0" on="0"/>
        <pt x="532" y="0" on="0"/>
        <pt x="479" y="46" on="0"/>
        <pt x="479" y="125" on="0"/>
        <pt x="495" y="307" on="0"/>
        <pt x="497" y="341" on="1"/>
        <pt x="415" y="351" on="0"/>
        <pt x="244" y="351" on="0"/>
        <pt x="94" y="258" on="0"/>
        <pt x="56" y="167" on="1"/>
        <pt x="10" y="226" on="0"/>
        <pt x="10" y="318" on="0"/>
        <pt x="54" y="388" on="0"/>
        <pt x="90" y="407" on="1"/>
        <pt x="160" y="443" on="0"/>
        <pt x="351" y="443" on="0"/>
        <pt x="499" y="425" on="1"/>
        <pt x="498" y="579" on="0"/>
        <pt x="478" y="710" on="1"/>
        <pt x="552" y="704" on="0"/>
        <pt x="802" y="704" on="0"/>
        <pt x="916" y="722" on="1"/>
        <pt x="928" y="700" on="0"/>
        <pt x="928" y="639" on="0"/>
        <pt x="881" y="592" on="0"/>
        <pt x="812" y="592" on="0"/>
        <pt x="661" y="612" on="0"/>
        <pt x="625" y="612" on="1"/>
        <pt x="620" y="553" on="0"/>
        <pt x="616" y="412" on="1"/>
        <pt x="671" y="406" on="0"/>
        <pt x="814" y="406" on="0"/>
        <pt x="866" y="427" on="1"/>
        <pt x="878" y="405" on="0"/>
      </contour>
    </TTGlyph>
    <TTGlyph name="F.swash_ini" xMin="60" yMin="0" xMax="1117" yMax="722">
      <contour>
        <pt x="599" y="711" on="1"/>
        <pt x="857" y="704" on="1"/>
        <pt x="1015" y="704" on="0"/>
        <pt x="1105" y="722" on="1"/>
        <pt x="1117" y="700" on="0"/>
        <pt x="1117" y="639" on="0"/>
        <pt x="1070" y="592" on="0"/>
        <pt x="1012" y="592" on="0"/>
        <pt x="873" y="609" on="0"/>
        <pt x="812" y="613" on="1"/>
        <pt x="807" y="525" on="0"/>
        <pt x="804" y="412" on="1"/>
        <pt x="862" y="406" on="0"/>
        <pt x="1002" y="406" on="0"/>
        <pt x="1055" y="427" on="1"/>
        <pt x="1067" y="405" on="0"/>
        <pt x="1067" y="344" on="0"/>
        <pt x="1020" y="295" on="0"/>
        <pt x="956" y="295" on="0"/>
        <pt x="836" y="320" on="0"/>
        <pt x="804" y="320" on="1"/>
        <pt x="804" y="127" on="0"/>
        <pt x="825" y="12" on="1"/>
        <pt x="793" y="0" on="0"/>
        <pt x="721" y="0" on="0"/>
        <pt x="668" y="46" on="0"/>
        <pt x="668" y="127" on="0"/>
        <pt x="688" y="353" on="0"/>
        <pt x="688" y="504" on="0"/>
        <pt x="678" y="618" on="1"/>
        <pt x="661" y="619" on="0"/>
        <pt x="536" y="619" on="0"/>
        <pt x="393" y="601" on="0"/>
        <pt x="323" y="579" on="1"/>
        <pt x="176" y="533" on="0"/>
        <pt x="113" y="408" on="1"/>
        <pt x="60" y="450" on="0"/>
        <pt x="60" y="561" on="0"/>
        <pt x="140" y="637" on="0"/>
        <pt x="255" y="679" on="0"/>
        <pt x="334" y="692" on="1"/>
        <pt x="456" y="711" on="0"/>
      </contour>
    </TTGlyph>
    <TTGlyph name="G" xMin="24" yMin="-6" xMax="585" yMax="722">
      <contour>
        <pt x="418" y="332" on="1"/>
        <pt x="525" y="340" on="1"/>
        <pt x="585" y="340" on="0"/>
        <pt x="585" y="279" on="1"/>
        <pt x="585" y="244" on="0"/>
        <pt x="567" y="96" on="0"/>
        <pt x="567" y="50" on="1"/>
        <pt x="542" y="46" on="0"/>
        <pt x="369" y="-6" on="0"/>
        <pt x="311" y="-6" on="1"/>
        <pt x="169" y="-6" on="0"/>
        <pt x="24" y="170" on="0"/>
        <pt x="24" y="322" on="1"/>
        <pt x="24" y="430" on="0"/>
        <pt x="103" y="610" on="0"/>
        <pt x="259" y="722" on="0"/>
        <pt x="448" y="722" on="0"/>
        <pt x="575" y="634" on="0"/>
        <pt x="575" y="559" on="1"/>
        <pt x="575" y="517" on="0"/>
        <pt x="526" y="460" on="0"/>
        <pt x="450" y="460" on="0"/>
        <pt x="435" y="469" on="1"/>
        <pt x="438" y="487" on="0"/>
        <pt x="438" y="505" on="1"/>
        <pt x="438" y="558" on="0"/>
        <pt x="378" y="625" on="0"/>
        <pt x="268" y="625" on="0"/>
        <pt x="219" y="588" on="1"/>
        <pt x="190" y="547" on="0"/>
        <pt x="158" y="405" on="0"/>
        <pt x="158" y="338" on="1"/>
        <pt x="158" y="230" on="0"/>
        <pt x="242" y="91" on="0"/>
        <pt x="333" y="91" on="1"/>
        <pt x="400" y="91" on="0"/>
        <pt x="458" y="130" on="1"/>
        <pt x="462" y="169" on="0"/>
        <pt x="462" y="242" on="1"/>
        <pt x="422" y="230" on="0"/>
        <pt x="400" y="230" on="1"/>
        <pt x="345" y="230" on="0"/>
        <pt x="345" y="288" on="1"/>
        <pt x="345" y="313" on="0"/>
        <pt x="355" y="341" on="1"/>
        <pt x="382" y="332" on="0"/>
      </contour>
    </TTGlyph>
    <TTGlyph name="G.swash" xMin="24" yMin="-250" xMax="585" yMax="722">
      <contour>
        <pt x="418" y="332" on="1"/>
        <pt x="525" y="340" on="1"/>
        <pt x="585" y="340" on="0"/>
        <pt x="585" y="279" on="1"/>
        <pt x="585" y="256" on="0"/>
        <pt x="569" y="65" on="0"/>
        <pt x="569" y="-46" on="0"/>
        <pt x="561" y="-127" on="0"/>
        <pt x="551" y="-167" on="1"/>
        <pt x="530" y="-250" on="0"/>
        <pt x="462" y="-250" on="1"/>
        <pt x="411" y="-250" on="0"/>
        <pt x="362" y="-216" on="1"/>
        <pt x="413" y="-175" on="0"/>
        <pt x="450" y="-61" on="0"/>
        <pt x="452" y="19" on="1"/>
        <pt x="369" y="-6" on="0"/>
        <pt x="311" y="-6" on="1"/>
        <pt x="169" y="-6" on="0"/>
        <pt x="24" y="170" on="0"/>
        <pt x="24" y="322" on="1"/>
        <pt x="24" y="430" on="0"/>
        <pt x="103" y="610" on="0"/>
        <pt x="259" y="722" on="0"/>
        <pt x="448" y="722" on="0"/>
        <pt x="575" y="634" on="0"/>
        <pt x="575" y="559" on="1"/>
        <pt x="575" y="517" on="0"/>
        <pt x="526" y="460" on="0"/>
        <pt x="450" y="460" on="0"/>
        <pt x="435" y="469" on="1"/>
        <pt x="438" y="487" on="0"/>
        <pt x="438" y="505" on="1"/>
        <pt x="438" y="558" on="0"/>
        <pt x="378" y="625" on="0"/>
        <pt x="268" y="625" on="0"/>
        <pt x="219" y="588" on="1"/>
        <pt x="190" y="547" on="0"/>
        <pt x="158" y="405" on="0"/>
        <pt x="158" y="338" on="1"/>
        <pt x="158" y="230" on="0"/>
        <pt x="242" y="91" on="0"/>
        <pt x="333" y="91" on="1"/>
        <pt x="400" y="91" on="0"/>
        <pt x="458" y="130" on="1"/>
        <pt x="462" y="169" on="0"/>
        <pt x="462" y="242" on="1"/>
        <pt x="422" y="230" on="0"/>
        <pt x="400" y="230" on="1"/>
        <pt x="345" y="230" on="0"/>
        <pt x="345" y="288" on="1"/>
        <pt x="345" y="313" on="0"/>
        <pt x="355" y="341" on="1"/>
        <pt x="382" y="332" on="0"/>
      </contour>
    </TTGlyph>
    <TTGlyph name="H" xMin="60" yMin="-6" xMax="628" yMax="716">
      <contour>
        <pt x="218" y="12" on="1"/>
        <pt x="186" y="0" on="0"/>
        <pt x="114" y="0" on="0"/>
        <pt x="61" y="46" on="0"/>
        <pt x="61" y="126" on="0"/>
        <pt x="81" y="353" on="0"/>
        <pt x="81" y="421" on="1"/>
        <pt x="81" y="596" on="0"/>
        <pt x="60" y="698" on="1"/>
        <pt x="92" y="710" on="0"/>
        <pt x="164" y="710" on="0"/>
        <pt x="217" y="664" on="0"/>
        <pt x="217" y="597" on="0"/>
        <pt x="212" y="535" on="0"/>
        <pt x="204" y="455" on="0"/>
        <pt x="202" y="425" on="1"/>
        <pt x="242" y="421" on="0"/>
        <pt x="438" y="421" on="0"/>
        <pt x="491" y="429" on="1"/>
        <pt x="491" y="588" on="0"/>
        <pt x="470" y="704" on="1"/>
        <pt x="502" y="716" on="0"/>
        <pt x="574" y="716" on="0"/>
        <pt x="627" y="670" on="0"/>
        <pt x="627" y="589" on="0"/>
        <pt x="607" y="383" on="0"/>
        <pt x="607" y="321" on="1"/>
        <pt x="607" y="125" on="0"/>
        <pt x="628" y="6" on="1"/>
        <pt x="596" y="-6" on="0"/>
        <pt x="524" y="-6" on="0"/>
        <pt x="471" y="40" on="0"/>
        <pt x="471" y="116" on="0"/>
        <pt x="487" y="288" on="0"/>
        <pt x="489" y="320" on="1"/>
        <pt x="391" y="327" on="0"/>
        <pt x="197" y="327" on="1"/>
        <pt x="197" y="301" on="1"/>
        <pt x="197" y="124" on="0"/>
      </contour>
    </TTGlyph>
    <TTGlyph name="H.end" xMin="60" yMin="-6" xMax="1049" yMax="716">
      <contour>
        <pt x="202" y="425" on="1"/>
        <pt x="430" y="413" on="0"/>
        <pt x="491" y="411" on="1"/>
        <pt x="491" y="611" on="0"/>
        <pt x="470" y="704" on="1"/>
        <pt x="502" y="716" on="0"/>
        <pt x="574" y="716" on="0"/>
        <pt x="627" y="670" on="0"/>
        <pt x="627" y="593" on="0"/>
        <pt x="612" y="435" on="0"/>
        <pt x="610" y="409" on="1"/>
        <pt x="657" y="409" on="1"/>
        <pt x="777" y="409" on="0"/>
        <pt x="959" y="522" on="0"/>
        <pt x="991" y="643" on="1"/>
        <pt x="1049" y="588" on="0"/>
        <pt x="1049" y="520" on="1"/>
        <pt x="1049" y="323" on="0"/>
        <pt x="680" y="323" on="1"/>
        <pt x="631" y="323" on="0"/>
        <pt x="607" y="324" on="1"/>
        <pt x="607" y="125" on="0"/>
        <pt x="628" y="6" on="1"/>
        <pt x="596" y="-6" on="0"/>
        <pt x="524" y="-6" on="0"/>
        <pt x="471" y="40" on="0"/>
        <pt x="471" y="109" on="0"/>
        <pt x="488" y="299" on="0"/>
        <pt x="490" y="330" on="1"/>
        <pt x="406" y="334" on="0"/>
        <pt x="270" y="334" on="0"/>
        <pt x="197" y="327" on="1"/>
        <pt x="197" y="301" on="1"/>
        <pt x="197" y="124" on="0"/>
        <pt x="218" y="12" on="1"/>
        <pt x="186" y="0" on="0"/>
        <pt x="114" y="0" on="0"/>
        <pt x="61" y="46" on="0"/>
        <pt x="61" y="126" on="0"/>
        <pt x="81" y="353" on="0"/>
        <pt x="81" y="421" on="1"/>
        <pt x="81" y="596" on="0"/>
        <pt x="60" y="698" on="1"/>
        <pt x="92" y="710" on="0"/>
        <pt x="164" y="710" on="0"/>
        <pt x="217" y="664" on="0"/>
        <pt x="217" y="597" on="0"/>
        <pt x="212" y="535" on="0"/>
        <pt x="204" y="455" on="0"/>
      </contour>
    </TTGlyph>
    <TTGlyph name="H.ini" xMin="10" yMin="-6" xMax="995" yMax="716">
      <contour>
        <pt x="448" y="429" on="1"/>
        <pt x="448" y="591" on="0"/>
        <pt x="427" y="698" on="1"/>
        <pt x="459" y="710" on="0"/>
        <pt x="531" y="710" on="0"/>
        <pt x="584" y="664" on="0"/>
        <pt x="584" y="585" on="0"/>
        <pt x="568" y="420" on="1"/>
        <pt x="640" y="415" on="0"/>
        <pt x="805" y="415" on="0"/>
        <pt x="858" y="429" on="1"/>
        <pt x="858" y="588" on="0"/>
        <pt x="837" y="704" on="1"/>
        <pt x="869" y="716" on="0"/>
        <pt x="941" y="716" on="0"/>
        <pt x="994" y="670" on="0"/>
        <pt x="994" y="589" on="0"/>
        <pt x="974" y="383" on="0"/>
        <pt x="974" y="321" on="1"/>
        <pt x="974" y="125" on="0"/>
        <pt x="995" y="6" on="1"/>
        <pt x="963" y="-6" on="0"/>
        <pt x="891" y="-6" on="0"/>
        <pt x="838" y="40" on="0"/>
        <pt x="838" y="116" on="0"/>
        <pt x="854" y="288" on="0"/>
        <pt x="856" y="320" on="1"/>
        <pt x="623" y="337" on="0"/>
        <pt x="564" y="340" on="1"/>
        <pt x="564" y="301" on="1"/>
        <pt x="564" y="124" on="0"/>
        <pt x="585" y="12" on="1"/>
        <pt x="553" y="0" on="0"/>
        <pt x="481" y="0" on="0"/>
        <pt x="428" y="46" on="0"/>
        <pt x="428" y="125" on="0"/>
        <pt x="444" y="307" on="0"/>
        <pt x="446" y="345" on="1"/>
        <pt x="402" y="345" on="1"/>
        <pt x="281" y="345" on="0"/>
        <pt x="100" y="240" on="0"/>
        <pt x="68" y="126" on="1"/>
        <pt x="10" y="181" on="0"/>
        <pt x="10" y="249" on="1"/>
        <pt x="10" y="431" on="0"/>
        <pt x="379" y="431" on="1"/>
        <pt x="402" y="431" on="0"/>
      </contour>
    </TTGlyph>
    <TTGlyph name="H.swash" xMin="60" yMin="-250" xMax="768" yMax="716">
      <contour>
        <pt x="768" y="-202" on="1"/>
        <pt x="730" y="-250" on="0"/>
        <pt x="681" y="-250" on="1"/>
        <pt x="602" y="-250" on="0"/>
        <pt x="486" y="-62" on="0"/>
        <pt x="486" y="97" on="1"/>
        <pt x="486" y="146" on="0"/>
        <pt x="489" y="320" on="1"/>
        <pt x="391" y="327" on="0"/>
        <pt x="197" y="327" on="1"/>
        <pt x="197" y="301" on="1"/>
        <pt x="197" y="124" on="0"/>
        <pt x="218" y="12" on="1"/>
        <pt x="186" y="0" on="0"/>
        <pt x="152" y="0" on="1"/>
        <pt x="61" y="0" on="0"/>
        <pt x="61" y="101" on="1"/>
        <pt x="61" y="120" on="0"/>
        <pt x="81" y="354" on="0"/>
        <pt x="81" y="521" on="0"/>
        <pt x="74" y="629" on="0"/>
        <pt x="60" y="698" on="1"/>
        <pt x="92" y="710" on="0"/>
        <pt x="164" y="710" on="0"/>
        <pt x="217" y="664" on="0"/>
        <pt x="217" y="597" on="0"/>
        <pt x="212" y="535" on="0"/>
        <pt x="204" y="455" on="0"/>
        <pt x="202" y="425" on="1"/>
        <pt x="242" y="421" on="0"/>
        <pt x="435" y="421" on="0"/>
        <pt x="491" y="429" on="1"/>
        <pt x="491" y="588" on="0"/>
        <pt x="470" y="704" on="1"/>
        <pt x="502" y="716" on="0"/>
        <pt x="536" y="716" on="1"/>
        <pt x="627" y="716" on="0"/>
        <pt x="627" y="615" on="1"/>
        <pt x="627" y="594" on="0"/>
        <pt x="607" y="382" on="0"/>
        <pt x="607" y="255" on="0"/>
        <pt x="609" y="184" on="0"/>
        <pt x="617" y="67" on="0"/>
        <pt x="638" y="-9" on="0"/>
        <pt x="655" y="-54" on="1"/>
        <pt x="688" y="-140" on="0"/>
      </contour>
    </TTGlyph>
    <TTGlyph name="H.swash_end" xMin="60" yMin="-250" xMax="1049" yMax="716">
      <contour>
        <pt x="486" y="97" on="1"/>
        <pt x="490" y="330" on="1"/>
        <pt x="406" y="334" on="0"/>
        <pt x="270" y="334" on="0"/>
        <pt x="197" y="327" on="1"/>
        <pt x="197" y="301" on="1"/>
        <pt x="197" y="124" on="0"/>
        <pt x="218" y="12" on="1"/>
        <pt x="186" y="0" on="0"/>
        <pt x="114" y="0" on="0"/>
        <pt x="61" y="46" on="0"/>
        <pt x="61" y="126" on="0"/>
        <pt x="81" y="353" on="0"/>
        <pt x="81" y="421" on="1"/>
        <pt x="81" y="596" on="0"/>
        <pt x="60" y="698" on="1"/>
        <pt x="92" y="710" on="0"/>
        <pt x="164" y="710" on="0"/>
        <pt x="217" y="664" on="0"/>
        <pt x="217" y="597" on="0"/>
        <pt x="212" y="535" on="0"/>
        <pt x="204" y="455" on="0"/>
        <pt x="202" y="425" on="1"/>
        <pt x="430" y="413" on="0"/>
        <pt x="491" y="411" on="1"/>
        <pt x="491" y="611" on="0"/>
        <pt x="470" y="704" on="1"/>
        <pt x="502" y="716" on="0"/>
        <pt x="574" y="716" on="0"/>
        <pt x="627" y="670" on="0"/>
        <pt x="627" y="593" on="0"/>
        <pt x="612" y="435" on="0"/>
        <pt x="610" y="409" on="1"/>
        <pt x="657" y="409" on="1"/>
        <pt x="777" y="409" on="0"/>
        <pt x="959" y="522" on="0"/>
        <pt x="991" y="643" on="1"/>
        <pt x="1049" y="588" on="0"/>
        <pt x="1049" y="520" on="1"/>
        <pt x="1049" y="323" on="0"/>
        <pt x="680" y="323" on="1"/>
        <pt x="631" y="323" on="0"/>
        <pt x="607" y="324" on="1"/>
        <pt x="607" y="140" on="0"/>
        <pt x="626" y="39" on="0"/>
        <pt x="649" y="-48" on="0"/>
        <pt x="666" y="-79" on="1"/>
        <pt x="707" y="-154" on="0"/>
        <pt x="768" y="-202" on="1"/>
        <pt x="730" y="-250" on="0"/>
        <pt x="681" y="-250" on="1"/>
        <pt x="602" y="-250" on="0"/>
        <pt x="486" y="-62" on="0"/>
      </contour>
    </TTGlyph>
    <TTGlyph name="H.swash_ini" xMin="10" yMin="-250" xMax="1135" yMax="716">
      <contour>
        <pt x="427" y="698" on="1"/>
        <pt x="459" y="710" on="0"/>
        <pt x="531" y="710" on="0"/>
        <pt x="584" y="664" on="0"/>
        <pt x="584" y="585" on="0"/>
        <pt x="568" y="420" on="1"/>
        <pt x="640" y="415" on="0"/>
        <pt x="805" y="415" on="0"/>
        <pt x="858" y="429" on="1"/>
        <pt x="858" y="588" on="0"/>
        <pt x="837" y="704" on="1"/>
        <pt x="869" y="716" on="0"/>
        <pt x="941" y="716" on="0"/>
        <pt x="994" y="670" on="0"/>
        <pt x="994" y="589" on="0"/>
        <pt x="974" y="383" on="0"/>
        <pt x="974" y="255" on="0"/>
        <pt x="976" y="184" on="0"/>
        <pt x="984" y="67" on="0"/>
        <pt x="1005" y="-9" on="0"/>
        <pt x="1022" y="-54" on="1"/>
        <pt x="1055" y="-140" on="0"/>
        <pt x="1135" y="-202" on="1"/>
        <pt x="1097" y="-250" on="0"/>
        <pt x="1048" y="-250" on="1"/>
        <pt x="969" y="-250" on="0"/>
        <pt x="853" y="-62" on="0"/>
        <pt x="853" y="97" on="1"/>
        <pt x="853" y="146" on="0"/>
        <pt x="856" y="320" on="1"/>
        <pt x="623" y="337" on="0"/>
        <pt x="564" y="340" on="1"/>
        <pt x="564" y="301" on="1"/>
        <pt x="564" y="124" on="0"/>
        <pt x="585" y="12" on="1"/>
        <pt x="553" y="0" on="0"/>
        <pt x="481" y="0" on="0"/>
        <pt x="428" y="46" on="0"/>
        <pt x="428" y="125" on="0"/>
        <pt x="444" y="307" on="0"/>
        <pt x="446" y="345" on="1"/>
        <pt x="402" y="345" on="1"/>
        <pt x="281" y="345" on="0"/>
        <pt x="100" y="240" on="0"/>
        <pt x="68" y="126" on="1"/>
        <pt x="10" y="181" on="0"/>
        <pt x="10" y="249" on="1"/>
        <pt x="10" y="431" on="0"/>
        <pt x="379" y="431" on="1"/>
        <pt x="402" y="431" on="0"/>
        <pt x="448" y="429" on="1"/>
        <pt x="448" y="591" on="0"/>
      </contour>
    </TTGlyph>
    <TTGlyph name="I" xMin="60" yMin="0" xMax="218" yMax="710">
      <contour>
        <pt x="218" y="12" on="1"/>
        <pt x="186" y="0" on="0"/>
        <pt x="114" y="0" on="0"/>
        <pt x="61" y="46" on="0"/>
        <pt x="61" y="126" on="0"/>
        <pt x="81" y="353" on="0"/>
        <pt x="81" y="421" on="1"/>
        <pt x="81" y="596" on="0"/>
        <pt x="60" y="698" on="1"/>
        <pt x="92" y="710" on="0"/>
        <pt x="164" y="710" on="0"/>
        <pt x="217" y="664" on="0"/>
        <pt x="217" y="584" on="0"/>
        <pt x="197" y="357" on="0"/>
        <pt x="197" y="289" on="1"/>
        <pt x="197" y="114" on="0"/>
      </contour>
    </TTGlyph>
    <TTGlyph name="I.swash" xMin="60" yMin="-252" xMax="269" yMax="710">
      <contour>
        <pt x="61" y="11" on="1"/>
        <pt x="61" y="66" on="0"/>
        <pt x="81" y="338" on="0"/>
        <pt x="81" y="521" on="0"/>
        <pt x="74" y="629" on="0"/>
        <pt x="60" y="698" on="1"/>
        <pt x="92" y="710" on="0"/>
        <pt x="164" y="710" on="0"/>
        <pt x="217" y="664" on="0"/>
        <pt x="217" y="584" on="0"/>
        <pt x="197" y="357" on="0"/>
        <pt x="197" y="103" on="0"/>
        <pt x="224" y="-129" on="0"/>
        <pt x="269" y="-224" on="1"/>
        <pt x="235" y="-252" on="0"/>
        <pt x="190" y="-252" on="1"/>
        <pt x="119" y="-252" on="0"/>
        <pt x="61" y="-121" on="0"/>
      </contour>
    </TTGlyph>
    <TTGlyph name="Iacute" xMin="52" yMin="0" xMax="286" yMax="950">
      <component glyphName="I" x="0" y="0" flags="0x1004"/>
      <component glyphName="acute" x="2" y="200" flags="0x1004"/>
    </TTGlyph>
    <TTGlyph name="Iacute.swash" xMin="52" yMin="-252" xMax="286" yMax="950">
      <contour>
        <pt x="61" y="11" on="1"/>
        <pt x="61" y="66" on="0"/>
        <pt x="81" y="338" on="0"/>
        <pt x="81" y="521" on="0"/>
        <pt x="74" y="629" on="0"/>
        <pt x="60" y="698" on="1"/>
        <pt x="92" y="710" on="0"/>
        <pt x="164" y="710" on="0"/>
        <pt x="217" y="664" on="0"/>
        <pt x="217" y="584" on="0"/>
        <pt x="197" y="357" on="0"/>
        <pt x="197" y="103" on="0"/>
        <pt x="224" y="-129" on="0"/>
        <pt x="269" y="-224" on="1"/>
        <pt x="235" y="-252" on="0"/>
        <pt x="190" y="-252" on="1"/>
        <pt x="119" y="-252" on="0"/>
        <pt x="61" y="-121" on="0"/>
      </contour>
      <contour>
        <pt x="52" y="810" on="1"/>
        <pt x="142" y="860" on="0"/>
        <pt x="191" y="950" on="1"/>
        <pt x="231" y="950" on="0"/>
        <pt x="286" y="921" on="0"/>
        <pt x="286" y="893" on="1"/>
        <pt x="286" y="853" on="0"/>
        <pt x="137" y="772" on="0"/>
        <pt x="93" y="772" on="1"/>
        <pt x="60" y="772" on="0"/>
      </contour>
    </TTGlyph>
    <TTGlyph name="Icircumflex" xMin="-35" yMin="0" xMax="318" yMax="970">
      <component glyphName="I" x="0" y="0" flags="0x1004"/>
      <component glyphName="circumflex" x="-85" y="200" flags="0x1004"/>
    </TTGlyph>
    <TTGlyph name="Icircumflex.swash" xMin="-35" yMin="-252" xMax="318" yMax="970">
      <contour>
        <pt x="61" y="11" on="1"/>
        <pt x="61" y="66" on="0"/>
        <pt x="81" y="338" on="0"/>
        <pt x="81" y="521" on="0"/>
        <pt x="74" y="629" on="0"/>
        <pt x="60" y="698" on="1"/>
        <pt x="92" y="710" on="0"/>
        <pt x="164" y="710" on="0"/>
        <pt x="217" y="664" on="0"/>
        <pt x="217" y="584" on="0"/>
        <pt x="197" y="357" on="0"/>
        <pt x="197" y="103" on="0"/>
        <pt x="224" y="-129" on="0"/>
        <pt x="269" y="-224" on="1"/>
        <pt x="235" y="-252" on="0"/>
        <pt x="190" y="-252" on="1"/>
        <pt x="119" y="-252" on="0"/>
        <pt x="61" y="-121" on="0"/>
      </contour>
      <contour>
        <pt x="318" y="800" on="1"/>
        <pt x="305" y="772" on="0"/>
        <pt x="258" y="772" on="0"/>
        <pt x="166" y="822" on="0"/>
        <pt x="128" y="852" on="1"/>
        <pt x="37" y="772" on="0"/>
        <pt x="-22" y="772" on="0"/>
        <pt x="-35" y="800" on="1"/>
        <pt x="8" y="833" on="0"/>
        <pt x="46" y="878" on="0"/>
        <pt x="86" y="931" on="0"/>
        <pt x="87" y="932" on="1"/>
        <pt x="117" y="970" on="0"/>
        <pt x="158" y="970" on="1"/>
        <pt x="187" y="919" on="0"/>
        <pt x="281" y="818" on="0"/>
      </contour>
    </TTGlyph>
    <TTGlyph name="Idieresis" xMin="-31" yMin="0" xMax="310" yMax="938">
      <component glyphName="I" x="0" y="0" flags="0x1004"/>
      <component glyphName="dieresis" x="-101" y="200" flags="0x1004"/>
    </TTGlyph>
    <TTGlyph name="Idieresis.swash" xMin="-31" yMin="-252" xMax="310" yMax="938">
      <contour>
        <pt x="61" y="11" on="1"/>
        <pt x="61" y="66" on="0"/>
        <pt x="81" y="338" on="0"/>
        <pt x="81" y="521" on="0"/>
        <pt x="74" y="629" on="0"/>
        <pt x="60" y="698" on="1"/>
        <pt x="92" y="710" on="0"/>
        <pt x="164" y="710" on="0"/>
        <pt x="217" y="664" on="0"/>
        <pt x="217" y="584" on="0"/>
        <pt x="197" y="357" on="0"/>
        <pt x="197" y="103" on="0"/>
        <pt x="224" y="-129" on="0"/>
        <pt x="269" y="-224" on="1"/>
        <pt x="235" y="-252" on="0"/>
        <pt x="190" y="-252" on="1"/>
        <pt x="119" y="-252" on="0"/>
        <pt x="61" y="-121" on="0"/>
      </contour>
      <contour>
        <pt x="-23" y="926" on="1"/>
        <pt x="2" y="938" on="0"/>
        <pt x="36" y="938" on="1"/>
        <pt x="86" y="938" on="0"/>
        <pt x="86" y="886" on="1"/>
        <pt x="86" y="858" on="0"/>
        <pt x="48" y="821" on="0"/>
        <pt x="-3" y="821" on="0"/>
        <pt x="-31" y="849" on="0"/>
        <pt x="-31" y="902" on="0"/>
      </contour>
      <contour>
        <pt x="201" y="926" on="1"/>
        <pt x="227" y="938" on="0"/>
        <pt x="260" y="938" on="1"/>
        <pt x="310" y="938" on="0"/>
        <pt x="310" y="886" on="1"/>
        <pt x="310" y="858" on="0"/>
        <pt x="272" y="821" on="0"/>
        <pt x="221" y="821" on="0"/>
        <pt x="193" y="849" on="0"/>
        <pt x="193" y="902" on="0"/>
      </contour>
    </TTGlyph>
    <TTGlyph name="Igrave" xMin="1" yMin="0" xMax="235" yMax="950">
      <contour>
        <pt x="218" y="12" on="1"/>
        <pt x="186" y="0" on="0"/>
        <pt x="114" y="0" on="0"/>
        <pt x="61" y="46" on="0"/>
        <pt x="61" y="126" on="0"/>
        <pt x="81" y="353" on="0"/>
        <pt x="81" y="421" on="1"/>
        <pt x="81" y="596" on="0"/>
        <pt x="60" y="698" on="1"/>
        <pt x="92" y="710" on="0"/>
        <pt x="164" y="710" on="0"/>
        <pt x="217" y="664" on="0"/>
        <pt x="217" y="584" on="0"/>
        <pt x="197" y="357" on="0"/>
        <pt x="197" y="289" on="1"/>
        <pt x="197" y="114" on="0"/>
      </contour>
      <contour>
        <pt x="235" y="810" on="1"/>
        <pt x="227" y="772" on="0"/>
        <pt x="194" y="772" on="1"/>
        <pt x="150" y="772" on="0"/>
        <pt x="1" y="853" on="0"/>
        <pt x="1" y="893" on="1"/>
        <pt x="1" y="921" on="0"/>
        <pt x="56" y="950" on="0"/>
        <pt x="96" y="950" on="1"/>
        <pt x="145" y="860" on="0"/>
      </contour>
    </TTGlyph>
    <TTGlyph name="Igrave.swash" xMin="1" yMin="-252" xMax="269" yMax="950">
      <contour>
        <pt x="61" y="11" on="1"/>
        <pt x="61" y="66" on="0"/>
        <pt x="81" y="338" on="0"/>
        <pt x="81" y="521" on="0"/>
        <pt x="74" y="629" on="0"/>
        <pt x="60" y="698" on="1"/>
        <pt x="92" y="710" on="0"/>
        <pt x="164" y="710" on="0"/>
        <pt x="217" y="664" on="0"/>
        <pt x="217" y="584" on="0"/>
        <pt x="197" y="357" on="0"/>
        <pt x="197" y="103" on="0"/>
        <pt x="224" y="-129" on="0"/>
        <pt x="269" y="-224" on="1"/>
        <pt x="235" y="-252" on="0"/>
        <pt x="190" y="-252" on="1"/>
        <pt x="119" y="-252" on="0"/>
        <pt x="61" y="-121" on="0"/>
      </contour>
      <contour>
        <pt x="235" y="810" on="1"/>
        <pt x="227" y="772" on="0"/>
        <pt x="194" y="772" on="1"/>
        <pt x="150" y="772" on="0"/>
        <pt x="1" y="853" on="0"/>
        <pt x="1" y="893" on="1"/>
        <pt x="1" y="921" on="0"/>
        <pt x="56" y="950" on="0"/>
        <pt x="96" y="950" on="1"/>
        <pt x="145" y="860" on="0"/>
      </contour>
    </TTGlyph>
    <TTGlyph name="Itilde" xMin="-43" yMin="0" xMax="321" yMax="905">
      <component glyphName="I" x="0" y="0" flags="0x1004"/>
      <component glyphName="tilde" x="-113" y="204" flags="0x1004"/>
    </TTGlyph>
    <TTGlyph name="Itilde.swash" xMin="-43" yMin="-252" xMax="321" yMax="905">
      <contour>
        <pt x="61" y="11" on="1"/>
        <pt x="61" y="66" on="0"/>
        <pt x="81" y="338" on="0"/>
        <pt x="81" y="521" on="0"/>
        <pt x="74" y="629" on="0"/>
        <pt x="60" y="698" on="1"/>
        <pt x="92" y="710" on="0"/>
        <pt x="164" y="710" on="0"/>
        <pt x="217" y="664" on="0"/>
        <pt x="217" y="584" on="0"/>
        <pt x="197" y="357" on="0"/>
        <pt x="197" y="103" on="0"/>
        <pt x="224" y="-129" on="0"/>
        <pt x="269" y="-224" on="1"/>
        <pt x="235" y="-252" on="0"/>
        <pt x="190" y="-252" on="1"/>
        <pt x="119" y="-252" on="0"/>
        <pt x="61" y="-121" on="0"/>
      </contour>
      <contour>
        <pt x="311" y="905" on="1"/>
        <pt x="321" y="886" on="0"/>
        <pt x="321" y="833" on="0"/>
        <pt x="271" y="786" on="0"/>
        <pt x="206" y="786" on="0"/>
        <pt x="73" y="825" on="0"/>
        <pt x="-4" y="825" on="0"/>
        <pt x="-33" y="795" on="1"/>
        <pt x="-43" y="814" on="0"/>
        <pt x="-43" y="863" on="0"/>
        <pt x="11" y="904" on="0"/>
        <pt x="89" y="904" on="0"/>
        <pt x="206" y="875" on="0"/>
        <pt x="282" y="875" on="0"/>
      </contour>
    </TTGlyph>
    <TTGlyph name="J" xMin="0" yMin="-11" xMax="390" yMax="722">
      <contour>
        <pt x="92" y="722" on="1"/>
        <pt x="170" y="710" on="0"/>
        <pt x="321" y="710" on="1"/>
        <pt x="380" y="710" on="0"/>
        <pt x="384" y="647" on="1"/>
        <pt x="390" y="531" on="0"/>
        <pt x="390" y="345" on="0"/>
        <pt x="382" y="254" on="1"/>
        <pt x="373" y="143" on="0"/>
        <pt x="240" y="-11" on="0"/>
        <pt x="138" y="-11" on="1"/>
        <pt x="82" y="-11" on="0"/>
        <pt x="0" y="50" on="0"/>
        <pt x="0" y="139" on="0"/>
        <pt x="49" y="196" on="0"/>
        <pt x="86" y="196" on="1"/>
        <pt x="104" y="196" on="0"/>
        <pt x="119" y="189" on="1"/>
        <pt x="112" y="171" on="0"/>
        <pt x="112" y="126" on="0"/>
        <pt x="143" y="87" on="0"/>
        <pt x="196" y="87" on="0"/>
        <pt x="233" y="126" on="0"/>
        <pt x="242" y="162" on="1"/>
        <pt x="264" y="243" on="0"/>
        <pt x="264" y="494" on="0"/>
        <pt x="251" y="611" on="1"/>
        <pt x="235" y="611" on="0"/>
        <pt x="164" y="596" on="0"/>
        <pt x="150" y="596" on="1"/>
        <pt x="80" y="596" on="0"/>
        <pt x="80" y="667" on="1"/>
        <pt x="80" y="692" on="0"/>
      </contour>
    </TTGlyph>
    <TTGlyph name="J.ini" xMin="0" yMin="-21" xMax="596" yMax="722">
      <contour>
        <pt x="297" y="722" on="1"/>
        <pt x="375" y="710" on="0"/>
        <pt x="526" y="710" on="1"/>
        <pt x="585" y="710" on="0"/>
        <pt x="589" y="647" on="1"/>
        <pt x="596" y="537" on="0"/>
        <pt x="596" y="373" on="0"/>
        <pt x="591" y="300" on="0"/>
        <pt x="573" y="206" on="0"/>
        <pt x="542" y="133" on="0"/>
        <pt x="486" y="59" on="0"/>
        <pt x="448" y="34" on="1"/>
        <pt x="360" y="-21" on="0"/>
        <pt x="223" y="-21" on="1"/>
        <pt x="133" y="-21" on="0"/>
        <pt x="0" y="78" on="0"/>
        <pt x="0" y="156" on="1"/>
        <pt x="0" y="202" on="0"/>
        <pt x="54" y="266" on="0"/>
        <pt x="91" y="266" on="1"/>
        <pt x="109" y="266" on="0"/>
        <pt x="124" y="259" on="1"/>
        <pt x="117" y="235" on="0"/>
        <pt x="117" y="216" on="1"/>
        <pt x="117" y="157" on="0"/>
        <pt x="187" y="77" on="0"/>
        <pt x="255" y="77" on="1"/>
        <pt x="469" y="77" on="0"/>
        <pt x="469" y="378" on="1"/>
        <pt x="469" y="514" on="0"/>
        <pt x="456" y="611" on="1"/>
        <pt x="440" y="611" on="0"/>
        <pt x="369" y="596" on="0"/>
        <pt x="355" y="596" on="1"/>
        <pt x="285" y="596" on="0"/>
        <pt x="285" y="667" on="1"/>
        <pt x="285" y="692" on="0"/>
      </contour>
    </TTGlyph>
    <TTGlyph name="J.swash" xMin="-95" yMin="-251" xMax="391" yMax="722">
      <contour>
        <pt x="92" y="722" on="1"/>
        <pt x="170" y="710" on="0"/>
        <pt x="321" y="710" on="1"/>
        <pt x="380" y="710" on="0"/>
        <pt x="384" y="647" on="1"/>
        <pt x="391" y="500" on="0"/>
        <pt x="391" y="287" on="0"/>
        <pt x="387" y="188" on="0"/>
        <pt x="371" y="59" on="0"/>
        <pt x="345" y="-40" on="0"/>
        <pt x="296" y="-142" on="0"/>
        <pt x="230" y="-209" on="0"/>
        <pt x="130" y="-251" on="0"/>
        <pt x="1" y="-251" on="0"/>
        <pt x="-95" y="-186" on="0"/>
        <pt x="-95" y="-134" on="1"/>
        <pt x="-95" y="-96" on="0"/>
        <pt x="-41" y="-44" on="0"/>
        <pt x="-4" y="-44" on="1"/>
        <pt x="14" y="-44" on="0"/>
        <pt x="29" y="-51" on="1"/>
        <pt x="22" y="-69" on="0"/>
        <pt x="22" y="-115" on="0"/>
        <pt x="61" y="-153" on="0"/>
        <pt x="100" y="-153" on="1"/>
        <pt x="264" y="-153" on="0"/>
        <pt x="264" y="308" on="1"/>
        <pt x="264" y="488" on="0"/>
        <pt x="251" y="611" on="1"/>
        <pt x="235" y="611" on="0"/>
        <pt x="164" y="596" on="0"/>
        <pt x="150" y="596" on="1"/>
        <pt x="80" y="596" on="0"/>
        <pt x="80" y="667" on="1"/>
        <pt x="80" y="692" on="0"/>
      </contour>
    </TTGlyph>
    <TTGlyph name="J.swash_ini" xMin="0" yMin="-251" xMax="596" yMax="722">
      <contour>
        <pt x="297" y="722" on="1"/>
        <pt x="375" y="710" on="0"/>
        <pt x="526" y="710" on="1"/>
        <pt x="585" y="710" on="0"/>
        <pt x="589" y="647" on="1"/>
        <pt x="596" y="469" on="0"/>
        <pt x="596" y="233" on="0"/>
        <pt x="591" y="144" on="0"/>
        <pt x="573" y="28" on="0"/>
        <pt x="542" y="-61" on="0"/>
        <pt x="486" y="-153" on="0"/>
        <pt x="448" y="-183" on="1"/>
        <pt x="360" y="-251" on="0"/>
        <pt x="223" y="-251" on="1"/>
        <pt x="133" y="-251" on="0"/>
        <pt x="0" y="-152" on="0"/>
        <pt x="0" y="-74" on="1"/>
        <pt x="0" y="-28" on="0"/>
        <pt x="54" y="36" on="0"/>
        <pt x="91" y="36" on="1"/>
        <pt x="109" y="36" on="0"/>
        <pt x="124" y="29" on="1"/>
        <pt x="117" y="5" on="0"/>
        <pt x="117" y="-14" on="1"/>
        <pt x="117" y="-73" on="0"/>
        <pt x="187" y="-153" on="0"/>
        <pt x="255" y="-153" on="1"/>
        <pt x="302" y="-153" on="0"/>
        <pt x="376" y="-113" on="0"/>
        <pt x="421" y="-42" on="0"/>
        <pt x="451" y="37" on="0"/>
        <pt x="458" y="86" on="1"/>
        <pt x="469" y="174" on="0"/>
        <pt x="469" y="248" on="1"/>
        <pt x="469" y="453" on="0"/>
        <pt x="456" y="611" on="1"/>
        <pt x="440" y="611" on="0"/>
        <pt x="369" y="596" on="0"/>
        <pt x="355" y="596" on="1"/>
        <pt x="285" y="596" on="0"/>
        <pt x="285" y="667" on="1"/>
        <pt x="285" y="692" on="0"/>
      </contour>
    </TTGlyph>
    <TTGlyph name="Jcircumflex" xMin="0" yMin="-11" xMax="417" yMax="974">
      <component glyphName="J" x="0" y="0" flags="0x1004"/>
      <component glyphName="circumflex" x="14" y="204" flags="0x1004"/>
    </TTGlyph>
    <TTGlyph name="K" xMin="60" yMin="-6" xMax="628" yMax="716">
      <contour>
        <pt x="359" y="390" on="1"/>
        <pt x="411" y="284" on="0"/>
        <pt x="562" y="102" on="0"/>
        <pt x="628" y="82" on="1"/>
        <pt x="628" y="40" on="0"/>
        <pt x="584" y="-6" on="0"/>
        <pt x="543" y="-6" on="1"/>
        <pt x="489" y="-6" on="0"/>
        <pt x="348" y="145" on="0"/>
        <pt x="242" y="333" on="0"/>
        <pt x="221" y="404" on="1"/>
        <pt x="320" y="447" on="0"/>
        <pt x="460" y="628" on="0"/>
        <pt x="460" y="716" on="1"/>
        <pt x="503" y="716" on="0"/>
        <pt x="566" y="686" on="0"/>
        <pt x="566" y="653" on="1"/>
        <pt x="566" y="601" on="0"/>
        <pt x="442" y="453" on="0"/>
      </contour>
      <contour>
        <pt x="218" y="12" on="1"/>
        <pt x="186" y="0" on="0"/>
        <pt x="114" y="0" on="0"/>
        <pt x="61" y="46" on="0"/>
        <pt x="61" y="126" on="0"/>
        <pt x="81" y="353" on="0"/>
        <pt x="81" y="421" on="1"/>
        <pt x="81" y="596" on="0"/>
        <pt x="60" y="698" on="1"/>
        <pt x="92" y="710" on="0"/>
        <pt x="164" y="710" on="0"/>
        <pt x="217" y="664" on="0"/>
        <pt x="217" y="584" on="0"/>
        <pt x="197" y="357" on="0"/>
        <pt x="197" y="289" on="1"/>
        <pt x="197" y="114" on="0"/>
      </contour>
    </TTGlyph>
    <TTGlyph name="K.swash" xMin="60" yMin="-250" xMax="971" yMax="716">
      <contour>
        <pt x="359" y="390" on="1"/>
        <pt x="470" y="205" on="0"/>
        <pt x="533" y="125" on="1"/>
        <pt x="730" y="-127" on="0"/>
        <pt x="971" y="-142" on="1"/>
        <pt x="971" y="-191" on="0"/>
        <pt x="915" y="-250" on="0"/>
        <pt x="863" y="-250" on="1"/>
        <pt x="785" y="-250" on="0"/>
        <pt x="613" y="-154" on="0"/>
        <pt x="466" y="-5" on="0"/>
        <pt x="400" y="84" on="1"/>
        <pt x="275" y="254" on="0"/>
        <pt x="221" y="404" on="1"/>
        <pt x="320" y="447" on="0"/>
        <pt x="460" y="628" on="0"/>
        <pt x="460" y="716" on="1"/>
        <pt x="503" y="716" on="0"/>
        <pt x="566" y="686" on="0"/>
        <pt x="566" y="653" on="1"/>
        <pt x="566" y="601" on="0"/>
        <pt x="442" y="453" on="0"/>
      </contour>
      <contour>
        <pt x="218" y="12" on="1"/>
        <pt x="186" y="0" on="0"/>
        <pt x="114" y="0" on="0"/>
        <pt x="61" y="46" on="0"/>
        <pt x="61" y="126" on="0"/>
        <pt x="81" y="353" on="0"/>
        <pt x="81" y="421" on="1"/>
        <pt x="81" y="596" on="0"/>
        <pt x="60" y="698" on="1"/>
        <pt x="92" y="710" on="0"/>
        <pt x="164" y="710" on="0"/>
        <pt x="217" y="664" on="0"/>
        <pt x="217" y="584" on="0"/>
        <pt x="197" y="357" on="0"/>
        <pt x="197" y="289" on="1"/>
        <pt x="197" y="114" on="0"/>
      </contour>
    </TTGlyph>
    <TTGlyph name="L" xMin="60" yMin="-6" xMax="503" yMax="710">
      <contour>
        <pt x="60" y="698" on="1"/>
        <pt x="92" y="710" on="0"/>
        <pt x="129" y="710" on="1"/>
        <pt x="218" y="710" on="0"/>
        <pt x="218" y="629" on="1"/>
        <pt x="218" y="585" on="0"/>
        <pt x="198" y="384" on="0"/>
        <pt x="198" y="168" on="0"/>
        <pt x="205" y="97" on="1"/>
        <pt x="232" y="94" on="0"/>
        <pt x="259" y="94" on="1"/>
        <pt x="391" y="94" on="0"/>
        <pt x="491" y="138" on="1"/>
        <pt x="503" y="111" on="0"/>
        <pt x="503" y="43" on="0"/>
        <pt x="456" y="-6" on="0"/>
        <pt x="422" y="-6" on="1"/>
        <pt x="351" y="-6" on="0"/>
        <pt x="111" y="6" on="1"/>
        <pt x="92" y="7" on="0"/>
        <pt x="64" y="28" on="0"/>
        <pt x="64" y="44" on="1"/>
        <pt x="64" y="97" on="0"/>
        <pt x="81" y="349" on="0"/>
        <pt x="81" y="562" on="0"/>
      </contour>
    </TTGlyph>
</ttFont>
